<?xml version="1.0" encoding="UTF-8" standalone="no"?>
<svg width="25px" height="22px" viewBox="0 0 25 22" version="1.1" xmlns="http://www.w3.org/2000/svg" xmlns:xlink="http://www.w3.org/1999/xlink" xmlns:sketch="http://www.bohemiancoding.com/sketch/ns">
    <!-- Generator: Sketch 3.3.2 (12043) - http://www.bohemiancoding.com/sketch -->
    <title>myelin_monogram</title>
    <desc>Created with Sketch.</desc>
    <defs></defs>
    <g id="Page-1" stroke="none" stroke-width="1" fill="none" fill-rule="evenodd" sketch:type="MSPage">
        <g id="1" sketch:type="MSArtboardGroup" transform="translate(-702.000000, -18.000000)">
            <g id="myelin_monogram" sketch:type="MSLayerGroup" transform="translate(702.000000, 18.000000)">
                <path d="M23.3228665,4.54529565 C22.4624342,3.50153913 21.1990883,2.92676522 19.7651598,2.92676522 C18.6783177,2.92676522 17.7130921,3.25418261 16.795235,3.81709565 C16.5793515,3.9293913 16.3457049,4.08893913 16.1100846,4.26828696 C16.0659117,4.29889565 16.0173214,4.33524348 15.9578289,4.38526957 C15.3973966,4.8552087 14.8969267,4.5164087 14.6859305,4.323 C14.6526598,4.2879913 14.6191071,4.25326957 14.5848966,4.2196 C14.5819831,4.21644348 14.5794455,4.213 14.5794455,4.213 L14.5801034,4.21472174 C13.738656,3.3814 12.5114944,2.92676522 11.2378102,2.92676522 C10.4032237,2.92676522 9.58893797,3.12141739 8.83987782,3.46595652 L8.83987782,3.46461739 C8.12399436,3.83555652 8.01262218,3.58437391 8.04316729,3.2494 L8.03282895,3.2692 C8.0531297,3.04958261 8.01243421,2.62077391 7.23339286,3.18722609 L6.11929511,4.05077391 L6.1231485,4.05383478 C5.92531015,4.20381739 5.77897556,4.42601739 5.73207707,4.69298261 L2.83621241,20.9570087 C2.83621241,20.9570087 2.63282895,21.8798609 3.62277256,21.1344435 L4.72239662,20.2516696 L4.72202068,20.2516696 C4.91403195,20.1035043 5.05538534,19.8869478 5.10322368,19.6269652 L7.18903195,8.4876 C7.51901316,6.5824 9.37333647,4.97314783 11.2378102,4.97314783 C12.0667575,4.97314783 12.7834868,5.28832174 13.2551974,5.86041739 C13.4479605,6.09409565 13.5861184,6.3646 13.6816071,6.65605217 C13.7274718,6.87662609 13.7724906,7.44432174 13.5373402,8.74767826 L11.4733365,20.9570087 C11.4733365,20.9570087 11.269859,21.8798609 12.2597086,21.1344435 L13.3595207,20.2516696 L13.3522838,20.2464087 C13.5478665,20.0991043 13.6938252,19.8818783 13.7431673,19.619313 C13.7431673,19.619313 15.23875,11.1249217 15.6980545,8.68933043 C15.8053853,8.2193913 15.9615883,7.66518261 16.1673214,7.24488696 C16.2524718,7.09222609 16.3464568,6.94492174 16.4492763,6.80297391 C16.4831109,6.76308696 16.5098966,6.72712174 16.5296335,6.69555652 C17.3158177,5.67370435 18.5365883,4.97314783 19.7651598,4.97314783 C20.5943891,4.97314783 21.3111184,5.28832174 21.782735,5.86041739 C22.2693891,6.45097391 22.4542575,7.25751304 22.3057613,8.11675652 L19.9758741,20.9570087 C19.9758741,20.9570087 19.7722086,21.8798609 20.7620583,21.1344435 L21.8620583,20.2516696 L21.8547274,20.2464087 C22.0503102,20.0991043 22.1962688,19.8818783 22.2455169,19.619313 L24.2830169,8.48721739 C24.5392199,7.00671304 24.1981485,5.60703478 23.3228665,4.54529565" id="Fill-13" fill="#FFFFFF" sketch:type="MSShapeGroup"></path>
                <path d="M12.5351974,1.72650261 L14.8323778,4.06443304" id="Fill-15" fill="#FFFFFF" sketch:type="MSShapeGroup"></path>
                <path d="M22.2538987,7.27351741 C22.2530402,7.28513907 22.2515806,7.29711025 22.2505503,7.30881929 C22.2379292,7.4569299 22.2197273,7.60591431 22.1937124,7.75603468 L20.332486,17.9255973 C20.2874965,18.1654578 20.1539876,18.3637251 19.9753174,18.4984664 L19.9821002,18.5032724 L18.9773058,19.3097106 C18.9530939,19.3281479 18.9305991,19.3438765 18.9080185,19.3601293 L18.9083619,19.3581196 C18.0861872,19.9408627 18.2589332,19.1477064 18.2589332,19.1477064 L19.0240983,14.9301804 L19.0243559,14.9301804 L19.1569204,14.1984529 L20.3873492,7.41769588 C20.4920099,6.81258322 20.4136217,6.23709269 20.1696137,5.75728423 C20.1335534,5.68641833 20.0942305,5.61756219 20.0513016,5.55106533 C20.0074282,5.48386943 19.9608074,5.41850852 19.9096361,5.35646809 C19.859581,5.29600051 19.8060916,5.23911556 19.7504557,5.18511417 C19.7300215,5.16501656 19.7080419,5.1470161 19.6867492,5.12814183 C19.6507747,5.09616042 19.6142851,5.06452854 19.576336,5.03446951 C19.5478312,5.01244953 19.5182961,4.99165288 19.4888468,4.97120575 C19.4563926,4.94839934 19.423509,4.92637935 19.3898527,4.90549532 C19.3545652,4.88347534 19.3188483,4.86224178 19.2822729,4.84223156 C19.2539398,4.82702728 19.224834,4.81260944 19.1956423,4.79854111 C19.1525417,4.77739494 19.1092693,4.75616138 19.0646232,4.73772401 C19.0457345,4.73012188 19.0262448,4.72374307 19.0071843,4.71649046 C18.8177819,4.6440517 18.6156725,4.59310864 18.4024875,4.56750604 C18.2927612,4.55474843 18.1812319,4.54592296 18.0665258,4.54592296 C18.0091727,4.54592296 17.951648,4.54863177 17.8942091,4.55195224 C17.8317904,4.55553486 17.7696293,4.56147676 17.7074683,4.56872938 C17.7021451,4.5695158 17.6969936,4.56995271 17.6917563,4.57030223 C17.6337164,4.57755485 17.5761058,4.58672984 17.5184951,4.59712816 C17.5087073,4.59922531 17.4989196,4.60036126 17.4893035,4.60237102 C17.434612,4.61276934 17.3800923,4.62482791 17.3258301,4.63802242 C17.3133808,4.64116813 17.3009314,4.6436148 17.2888254,4.64676051 C17.2369673,4.6600424 17.1857101,4.67489716 17.1346247,4.69045095 C17.119342,4.69482 17.104231,4.69927642 17.0891201,4.70408237 C17.0402669,4.71972355 16.991929,4.73650068 16.9436769,4.75415162 C16.9265912,4.76053043 16.9095054,4.76699661 16.8924197,4.77337542 C16.8462282,4.79093898 16.8002084,4.80981325 16.7544462,4.82982347 C16.7357292,4.83786251 16.7170122,4.84581417 16.698381,4.85429012 C16.6549369,4.87386344 16.6116646,4.89431057 16.5687357,4.91554412 C16.5481298,4.92594245 16.5276097,4.93634078 16.5070897,4.94682648 C16.4663931,4.96797266 16.4258682,4.98964312 16.3856867,5.01244953 C16.3637071,5.02485762 16.3418992,5.03761523 16.3200055,5.0505476 C16.2818846,5.0729171 16.2441071,5.09537399 16.2066731,5.11940374 C16.1834915,5.13382158 16.1603957,5.14902586 16.1374717,5.16423013 C16.1020983,5.18782297 16.0667248,5.21150319 16.0319524,5.23588246 C16.0075688,5.2530965 15.9834427,5.27118434 15.9594025,5.2891848 C15.9269483,5.31277764 15.894494,5.33680739 15.8628125,5.36162356 C15.8370551,5.38207069 15.8118129,5.40286734 15.7864848,5.42375137 C15.7571214,5.44769374 15.7274146,5.47181086 15.6986523,5.49697656 C15.6716929,5.52030726 15.6457638,5.54424962 15.6194055,5.56827936 C15.5932188,5.59230911 15.5666887,5.61590195 15.5408455,5.6408055 C15.5125124,5.66763143 15.4852096,5.69603022 15.4576493,5.72407949 C15.4350687,5.7468859 15.4120588,5.76934279 15.3900792,5.79258611 C15.3583976,5.82622775 15.3280039,5.86065582 15.2975244,5.89508389 C15.2806104,5.91430768 15.2630954,5.93274505 15.2465248,5.95196885 C15.1999899,6.00675666 15.1544852,6.06250567 15.1108694,6.11939063 C15.0927534,6.14813894 15.0683698,6.18099416 15.037461,6.21743199 C14.9434466,6.34719261 14.8575888,6.48175918 14.7798874,6.62113169 C14.5918588,7.00525808 14.4492489,7.51145557 14.3511134,7.9406705 C13.9315261,10.1657375 12.565356,17.9255973 12.565356,17.9255973 C12.5202807,18.1654578 12.3868576,18.3637251 12.2081874,18.4984664 L12.2148843,18.5032724 L11.21009,19.3097106 C11.1920598,19.3234294 11.1754892,19.3348763 11.158146,19.3474591 L11.1584035,19.3462358 C10.3160522,19.9525718 10.4918032,19.1477064 10.4918032,19.1477064 L11.1922315,15.004192 L12.3772415,7.99397284 C12.5920578,6.80332085 12.5508461,6.28480265 12.5090333,6.08330232 C12.4713417,5.96795955 12.4247209,5.8570732 12.3713173,5.75011899 C12.337661,5.68283571 12.3009139,5.61756219 12.2610758,5.55429842 C12.2590152,5.55106533 12.2573839,5.54748271 12.2553234,5.54424962 C12.2139399,5.4789761 12.1688645,5.41649876 12.1194963,5.35646809 C12.0684967,5.29477718 12.013977,5.23666889 11.9569673,5.18144417 C11.9367049,5.16187085 11.9144677,5.14421991 11.8934325,5.12578254 C11.8558268,5.0921409 11.8178776,5.05849926 11.7779537,5.0276538 C11.7501358,5.00642025 11.7211158,4.98684693 11.6921818,4.96683671 C11.6566366,4.94193315 11.6209197,4.91755388 11.5840009,4.895097 C11.5504305,4.87464987 11.5160873,4.85586298 11.4814007,4.83707609 C11.4470576,4.81863872 11.4121993,4.80063825 11.37674,4.78377374 C11.3380181,4.76533638 11.2986952,4.74812234 11.2587713,4.73213164 C11.2256302,4.71850022 11.1920598,4.70609213 11.158146,4.69447047 C11.1142726,4.6788293 11.0700558,4.66362502 11.0245511,4.65043051 C10.9938999,4.64160504 10.9622184,4.63435242 10.9309661,4.62640076 C10.8809968,4.6143422 10.8311993,4.60193411 10.7797704,4.59275912 C10.7542707,4.58795317 10.7277406,4.58472008 10.7017256,4.58113746 C10.6436857,4.57196247 10.5859034,4.563137 10.5262322,4.55789415 C10.4441521,4.55072891 10.3613851,4.54592296 10.2765576,4.54592296 C10.1919876,4.54592296 10.1073318,4.55230177 10.0229335,4.559467 C9.92651516,4.56750604 9.83052609,4.58070056 9.73470874,4.59747769 C9.72878454,4.5987884 9.72294621,4.59957483 9.71702202,4.60036126 C9.62635614,4.61722577 9.53637711,4.63837194 9.44682738,4.66240169 C9.43566586,4.66563478 9.42424677,4.66799407 9.41299939,4.67122716 C9.32808598,4.6952569 9.24385943,4.72286926 9.16023389,4.75336519 C9.14486534,4.75895757 9.12906749,4.76411304 9.1137848,4.77014232 C9.03453801,4.80020135 8.95623565,4.83340609 8.87870602,4.86905749 C8.85921629,4.87788296 8.83972656,4.88670843 8.82040854,4.89588342 C8.74725766,4.9307484 8.67487949,4.96884647 8.60344577,5.00843001 C8.58086515,5.021275 8.55794111,5.03411999 8.53553221,5.04722712 C8.46830552,5.08611162 8.40219498,5.1277923 8.33702887,5.17104584 C8.31144323,5.18782297 8.28602931,5.20503701 8.26070125,5.22268795 C8.19974218,5.26515506 8.13989926,5.30875812 8.08108663,5.35445833 C8.05309698,5.37647831 8.02553661,5.3984983 7.99797624,5.4208678 C7.94354237,5.46586896 7.88988121,5.51139441 7.83750793,5.55866747 C7.80780111,5.58558078 7.77886702,5.61319314 7.74993292,5.6408055 C7.70168081,5.68685523 7.65420143,5.73334186 7.60826748,5.78175088 C7.57761623,5.81381966 7.54808113,5.8470244 7.51837431,5.88031652 C7.47647569,5.92715267 7.43492049,5.97398883 7.39516831,6.02239784 C7.36434534,6.06049591 7.33523953,6.09929303 7.30570443,6.13817752 C7.27007343,6.18466415 7.2342707,6.23150031 7.20061443,6.2795598 C7.17056418,6.32325024 7.14266038,6.36763974 7.11424144,6.41211661 C7.08453462,6.45860324 7.0542268,6.50456559 7.02658058,6.55183865 C6.9978182,6.60112147 6.97206084,6.65154024 6.94570249,6.7020464 C6.921834,6.74687279 6.89710695,6.79134967 6.87495562,6.83739939 C6.84842555,6.89349793 6.82524393,6.95073241 6.80146131,7.00796689 C6.78368873,7.05008448 6.76445657,7.09167778 6.74848702,7.1345818 C6.72375996,7.20064175 6.70323993,7.26792503 6.68263405,7.33555784 C6.67155839,7.37085972 6.65842214,7.40563732 6.64880606,7.44128872 C6.62030125,7.54544674 6.59626106,7.6503038 6.57797333,7.75647158 L4.67244431,17.9323256 C4.62874267,18.1699143 4.49969833,18.3679194 4.32411903,18.5032724 L4.32463418,18.5032724 L3.32001153,19.3097106 C3.30163795,19.3237789 3.28472396,19.3353132 3.26729482,19.347896 L3.26746653,19.3466727 C2.4261455,19.9522223 2.60146722,19.1477064 2.60146722,19.1477064 L5.24691916,4.28998434 C5.27937342,4.1054359 5.36420097,3.94439292 5.48182622,3.81742849 C5.51943196,3.77653424 5.56030029,3.73930998 5.60425951,3.70610524 L5.60065348,3.70330905 L6.61849824,2.91434701 C6.67645228,2.8723168 6.72839628,2.83788873 6.7778504,2.80748018 C6.79098665,2.79900423 6.80360775,2.79140209 6.816143,2.78423686 C6.85812748,2.75933331 6.89727866,2.73818713 6.93308138,2.72132262 C6.93754599,2.71931286 6.94286918,2.71607977 6.94741964,2.71415739 C6.98657082,2.69650645 7.02125739,2.68444789 7.05328237,2.67527289 C7.06169644,2.67291361 7.06942364,2.67125337 7.07740842,2.66933099 C7.10307992,2.66330171 7.12686254,2.66006862 7.14815529,2.65928219 C7.15124617,2.65928219 7.15536734,2.65770933 7.15854408,2.65770933 C7.15991781,2.65770933 7.16069053,2.65805886 7.16206426,2.65805886 C7.18352872,2.65849576 7.20276088,2.66129195 7.21976073,2.66644742 C7.22362433,2.66767076 7.22662936,2.66968052 7.23032124,2.67090385 C7.24294235,2.6757098 7.25479073,2.6816517 7.26492196,2.68846741 C7.26930071,2.6917005 7.27342188,2.69528312 7.27737134,2.69886573 C7.2856137,2.70603097 7.29308333,2.71372048 7.29978024,2.72254595 C7.30278526,2.72647809 7.30604786,2.730585 7.30888117,2.73460452 C7.3157498,2.74578927 7.32175985,2.75741093 7.3267396,2.76973163 C7.32794161,2.7726152 7.32931534,2.77462496 7.33034563,2.77742115 C7.33584054,2.79262543 7.34013343,2.80861613 7.34322431,2.82504374 C7.3442546,2.83019921 7.34485561,2.83509254 7.34562833,2.83989849 C7.34743134,2.85186967 7.34897679,2.86392823 7.34992122,2.87589941 C7.35052223,2.8823656 7.35095152,2.8883075 7.35112323,2.89433678 C7.35155252,2.90595844 7.35172424,2.91679367 7.35172424,2.92797842 C7.35155252,2.9335708 7.35172424,2.93881365 7.35155252,2.94396913 C7.35095152,2.95961031 7.3501788,2.97481458 7.34871921,2.98923243 L7.35824943,2.97123196 C7.3540424,3.01649526 7.35326968,3.0593119 7.3562747,3.09933235 C7.37258769,3.33211504 7.52824797,3.4566328 8.08598053,3.16792635 L8.08598053,3.1690623 C8.49225986,2.98206719 8.92000364,2.84470444 9.35993924,2.76300331 C9.3665503,2.76177997 9.37307549,2.76020712 9.37985826,2.75898378 C9.51534194,2.73460452 9.65194177,2.71573024 9.78940018,2.70218621 C9.81438482,2.69965216 9.83919773,2.69772978 9.86418237,2.69563264 C10.0009539,2.68409836 10.1382406,2.67649623 10.2765576,2.67649623 C10.4219149,2.67649623 10.5664995,2.68287503 10.709968,2.69563264 C10.7780533,2.7017493 10.8445072,2.71415739 10.9119915,2.72298286 C10.986602,2.73294428 11.0619852,2.73975999 11.1355653,2.7529545 C11.228807,2.76973163 11.3197304,2.79384876 11.411169,2.81586874 C11.4572747,2.8270535 11.5046682,2.83509254 11.550087,2.84793753 C11.6641921,2.87904513 11.775378,2.9175801 11.8855336,2.95760055 C11.9065688,2.96520268 11.9286343,2.97079506 11.9494977,2.9788341 C12.0750219,3.02645669 12.1973693,3.08063284 12.3167976,3.13900327 C12.3211763,3.14144994 12.3259844,3.14302279 12.330449,3.14503255 C12.4503924,3.2047137 12.5664722,3.27033675 12.6788601,3.3405036 C12.6824661,3.34286288 12.6860722,3.34443574 12.6894206,3.34653288 C12.7934803,3.41215593 12.8926461,3.48345873 12.9894079,3.55834416 C13.000226,3.56673272 13.012332,3.57354843 13.0231501,3.581937 C13.1118412,3.65201647 13.1952951,3.72856213 13.2769459,3.80615636 C13.2930871,3.82144801 13.3112031,3.83472991 13.3268293,3.85028371 L13.3274303,3.85107013 C13.3282889,3.85185656 13.3290616,3.85229347 13.3299202,3.8530799 L13.3293191,3.85150704 C13.3293191,3.85150704 13.3316373,3.85465275 13.334213,3.85744894 C13.3488947,3.87195417 13.3631471,3.88707106 13.3776571,3.90192581 L13.3778288,3.90192581 C13.394056,3.91870294 13.4105407,3.93513055 13.4265102,3.95199506 C13.5249033,4.04208476 13.6926696,4.16502967 13.9006173,4.20872011 C13.8976981,4.20872011 13.8943496,4.20828321 13.8914305,4.20828321 C13.9706773,4.22593415 14.0562775,4.231177 14.1460848,4.21876892 C14.1400748,4.21911844 14.1341506,4.21955534 14.125479,4.21955534 L14.1237618,4.21955534 C14.1364688,4.21833201 14.1489181,4.2174582 14.1615392,4.21588535 C14.2959068,4.19465179 14.4397187,4.13339779 14.5885103,4.00888002 C14.6428583,3.96317982 14.6872468,3.92997508 14.7276,3.90192581 C14.9428456,3.73817403 15.1562882,3.5924227 15.3535037,3.48983754 C16.1050174,3.02890335 16.8919904,2.74255618 17.7618163,2.6880305 C17.8621841,2.68086527 17.9635822,2.67649623 18.0665258,2.67649623 C18.2085346,2.67649623 18.3485688,2.68366146 18.4867999,2.69615693 C18.4992493,2.69729288 18.5117846,2.69772978 18.5242339,2.69886573 C18.656455,2.71171072 18.7862721,2.73093452 18.914372,2.75452736 C18.9305991,2.75776045 18.9471697,2.76055664 18.9634827,2.76378973 C19.0897796,2.78860591 19.2135866,2.81945136 19.3351613,2.85466586 C19.3507874,2.85947181 19.3662418,2.86392823 19.3816104,2.8686468 C19.5043871,2.90595844 19.6245022,2.94833817 19.7419558,2.99648504 C19.7532031,3.00129099 19.7643647,3.00609694 19.7752686,3.01046598 C19.8966716,3.06132166 20.0151554,3.11742019 20.1300332,3.17946062 C20.1335534,3.18112086 20.1370736,3.18348014 20.1406796,3.185053 C20.5036007,3.3820969 20.8335524,3.63445291 21.1225499,3.93801412 C21.1231509,3.93836364 21.1235802,3.93880055 21.1241812,3.93958698 C21.1902059,4.00888002 21.2549427,4.08018283 21.3165887,4.15506825 C21.3665579,4.21553582 21.4145525,4.27757625 21.4608298,4.34049049 C21.4610874,4.34084002 21.4612591,4.34084002 21.4614308,4.34127692 C21.5429958,4.45303708 21.617778,4.56872938 21.6874087,4.68721786 C21.6929036,4.69648024 21.6990854,4.70565523 21.7046661,4.71526713 C21.7700898,4.82903704 21.8293317,4.94638958 21.8835939,5.06566449 C21.8907201,5.08139305 21.8981897,5.09616042 21.9048866,5.11171422 C21.9564013,5.22871723 22.001906,5.34842905 22.0425167,5.47015063 C22.0488702,5.4894618 22.0555671,5.50816131 22.061663,5.52747249 C22.1000415,5.64840764 22.1330968,5.77135255 22.1608288,5.89630722 C22.165551,5.91710387 22.1698439,5.9379879 22.1742227,5.95878456 C22.2004093,6.08452566 22.2211869,6.21149009 22.2366413,6.3408138 C22.2389595,6.36126093 22.2409342,6.38205758 22.2430807,6.40285423 C22.2565603,6.53383819 22.2654896,6.66639499 22.2678077,6.80096156 C22.268237,6.81852512 22.2678077,6.83661297 22.2679794,6.85461343 C22.2690956,6.99276262 22.2650603,7.13257204 22.2538987,7.27351741 L22.2538987,7.27351741 Z M17.7769273,18.9817701 L16.2790513,17.474275 L16.2879805,17.4663233 C16.1893298,17.3494951 16.2442789,17.0971391 16.2442789,17.0971391 L18.3726948,5.36730332 C18.388922,5.2727572 18.4003411,5.17908488 18.4080683,5.08567471 C18.8656906,5.15461824 19.2550559,5.36005071 19.5238768,5.6860688 C19.8400913,6.0696709 19.974373,6.58783958 19.9128987,7.15939797 L18.3817099,15.5256812 L18.4084976,15.5006902 L17.7769273,18.9817701 Z M10.011171,18.9680513 L8.53063831,17.4784693 C8.41790696,17.3674082 8.47714887,17.0971391 8.47714887,17.0971391 L10.3625872,5.94358028 C10.42492,5.59755196 10.4654449,5.30963193 10.4908588,5.06854806 C11.004117,5.11494731 11.4401031,5.32999168 11.733737,5.6860688 C11.8536804,5.83138322 11.9502704,6.00920333 12.0211032,6.2150727 C12.0443706,6.35601808 12.0791431,6.80777727 11.8818417,7.90152386 L10.011171,18.9680513 Z M2.12143601,18.9689251 L0.638756878,17.4770712 C0.6378983,17.4762848 0.637383152,17.4754983 0.636782148,17.4750614 L0.636181143,17.474275 L0.636352858,17.474275 C0.528944694,17.3613789 0.586812882,17.0971391 0.586812882,17.0971391 L3.22041643,2.30521483 L4.82449856,3.93801412 C4.7926453,4.02207453 4.76705966,4.10936804 4.75117596,4.19945774 L2.92927248,14.4323715 L2.72149649,15.5415845 L2.73368831,15.5304871 L2.12143601,18.9689251 Z M3.58951931,1.65571268 L3.58599914,1.65282911 L4.60375804,0.863954447 C4.83729138,0.69417338 5.02780994,0.620074386 5.17788945,0.604083683 L6.7768201,2.23111583 C6.63970512,2.28922413 6.49091348,2.37695454 6.32563713,2.49710326 C6.32160181,2.50024897 6.31748063,2.50348207 6.3132736,2.50671516 L5.2955147,3.29558982 C5.27508053,3.311231 5.25593423,3.32844504 5.23824751,3.34731931 C5.18673281,3.39092237 5.14148572,3.44020519 5.09701136,3.49027444 L3.43883879,1.80268734 C3.48451516,1.74859857 3.53362585,1.69809241 3.58951931,1.65571268 L3.58951931,1.65571268 Z M8.26190326,0.626103667 C9.42407505,0.626103667 10.5434896,1.04055122 11.3122608,1.79980377 L11.3811188,1.86988324 C11.3913359,1.88071847 11.4018105,1.89076727 11.41177,1.90151512 C11.4121993,1.90195203 11.4127145,1.90238893 11.4131438,1.90273845 L11.9386796,2.43742211 C11.4163205,2.26196129 10.8547243,2.16383255 10.2765576,2.16383255 C9.47267059,2.16383255 8.67659665,2.3400798 7.91014366,2.68733146 C7.89237109,2.69405978 7.87468437,2.70218621 7.85759866,2.7109243 C7.85030075,2.71450691 7.84343212,2.71817691 7.83673521,2.72175953 C7.80325065,2.55556108 7.73130177,2.44100473 7.66476194,2.36655621 C7.61436339,2.31045768 6.29987977,1.0209779 6.29987977,1.0209779 C6.92003099,0.768272373 7.58328285,0.626103667 8.26190326,0.626103667 L8.26190326,0.626103667 Z M12.573856,1.95848746 C12.6281181,1.91278726 12.6725066,1.87958252 12.7129457,1.85153325 C12.9281054,1.68778147 13.141548,1.54194276 13.3386777,1.43944498 C14.1772512,0.92520845 15.0590972,0.626103667 16.0518714,0.626103667 C17.1823617,0.626103667 18.1961711,1.01774481 18.9579878,1.73776334 L18.9585888,1.73741381 L18.9689776,1.74781214 C19.0343154,1.81028947 19.0981078,1.87433967 19.1594961,1.94118605 L19.6141134,2.40343095 C19.129961,2.24562106 18.6101776,2.16383255 18.0665258,2.16383255 C17.0442164,2.16383255 16.0764268,2.45105353 15.1080361,3.04166096 C14.9095328,3.14660541 14.6887923,3.2915703 14.4342238,3.48503159 C14.3778152,3.52470251 14.3245833,3.56550939 14.2677454,3.61356888 C14.1484889,3.71327047 14.0744794,3.71327047 14.0503533,3.71327047 C13.940627,3.71327047 13.8279815,3.62798673 13.7748355,3.58115057 C13.7505377,3.55554797 13.7259824,3.53029489 13.7009119,3.50547872 C13.6918968,3.49542992 13.682109,3.48625492 13.672493,3.47742945 L12.329247,2.11026807 C12.408923,2.07575261 12.4904021,2.02813003 12.573856,1.95848746 L12.573856,1.95848746 Z M21.7023479,3.82546753 C21.6343485,3.74297998 21.5629148,3.66398765 21.4899356,3.58717985 C21.4865013,3.58350985 21.4841832,3.57914081 21.4807489,3.5759951 L19.5215587,1.5847594 C19.4587107,1.51668969 19.3928578,1.44984331 19.320222,1.38020074 L19.3161867,1.37653074 C19.3042525,1.36412265 19.2914597,1.35215147 19.2783234,1.34087934 C18.4169975,0.53793635 17.3019617,0.113439992 16.0518714,0.113439992 C15.0295621,0.113439992 14.0617724,0.400573593 13.0933818,0.991268402 C12.8948785,1.09621285 12.6741379,1.24161465 12.4194836,1.43463903 C12.363075,1.47422258 12.3100148,1.51511683 12.2530911,1.56317632 C12.1338345,1.66287791 12.0599109,1.66287791 12.0356131,1.66287791 C11.9257151,1.66287791 11.8133272,1.57759417 11.7601812,1.53075801 C11.7357975,1.50506803 11.7112422,1.47981495 11.6862576,1.45508616 C11.6771566,1.44503736 11.6673688,1.43577498 11.6577528,1.42694951 L11.6350004,1.40379358 C11.6326823,1.40134691 11.6294197,1.40064787 11.6271015,1.3982012 C10.7797704,0.581626795 9.55749814,0.113439992 8.26190326,0.113439992 C7.50935924,0.113439992 6.76248184,0.268016784 6.04067494,0.573587753 C6.00710452,0.502721852 5.96288773,0.435438567 5.90879729,0.374970992 C5.74309165,0.18998565 5.50586642,0.0878373913 5.24065153,0.0878373913 C4.95165403,0.0878373913 4.63878804,0.208423018 4.31106864,0.446710702 C4.30686161,0.449856414 4.30274043,0.453089507 4.29861925,0.456235219 L3.28086035,1.24519727 C3.26042619,1.26083844 3.24127989,1.27805248 3.22359317,1.29683937 C2.96722165,1.51511683 2.79533424,1.81509542 2.73643576,2.14906518 L0.0925292655,16.9972627 C0.0644537501,17.1340138 0.00950472901,17.5371892 0.261926795,17.8175071 C0.26767927,17.8238859 0.273603461,17.8303521 0.279527653,17.8363814 L2.21605136,19.78515 C2.22669773,19.8011407 2.2351118,19.8179178 2.24730361,19.8334716 C2.31822219,19.9236487 2.40811536,19.9889222 2.50942761,20.0317389 C2.53595769,20.0438848 2.56351806,20.0529724 2.59159357,20.0603124 C2.65177992,20.0765653 2.71402686,20.0878374 2.77996568,20.0878374 C3.02423125,20.0878374 3.28317852,19.9749413 3.61939784,19.7217988 C3.62377659,19.7186531 3.62789777,19.7155074 3.63201894,19.7123617 L4.63664159,18.905574 C4.63895975,18.9036516 4.64153549,18.9015544 4.64411122,18.8996321 C4.91834118,18.6817915 5.10387999,18.3729874 5.16750065,18.0270465 L7.0727721,7.85259056 C7.31360335,6.46139943 8.63134956,5.23588246 9.9832672,5.07693663 C9.95896943,5.28997123 9.92239399,5.54424962 9.86710153,5.85104392 L7.98252183,17.0001463 C7.95281501,17.1451986 7.89769428,17.5689085 8.18076759,17.847304 L10.1050136,19.7834898 C10.1160034,19.7999174 10.1248468,19.8174809 10.1374679,19.8334716 C10.2087299,19.9239982 10.2992241,19.9892717 10.4010515,20.0321758 C10.4256927,20.0434479 10.4512783,20.0513122 10.4772074,20.0586522 C10.5385957,20.0757788 10.6023881,20.0878374 10.6700441,20.0878374 C10.9143955,20.0878374 11.1733428,19.9749413 11.5097338,19.7217988 C11.513855,19.7186531 11.518062,19.7155074 11.5220115,19.7123617 L12.52672,18.905574 C12.5518764,18.8855637 12.575058,18.8631069 12.5956639,18.8387276 C12.8367527,18.6260425 13.0003977,18.3397827 13.0601548,18.0223279 C13.0747506,17.9389666 14.4276127,10.2562641 14.8440233,8.0471878 C14.9573556,7.55261197 15.088804,7.14375679 15.2247169,6.86186604 C15.2878225,6.74966898 15.3577966,6.64000597 15.4327505,6.53549842 C15.4653765,6.49617702 15.4944823,6.45729253 15.5193811,6.41971875 C16.1343808,5.62883432 17.03357,5.12097659 17.9040827,5.06409163 C17.8975575,5.13495754 17.8891435,5.20626034 17.8766941,5.27834957 L15.7502528,16.9969132 C15.7288742,17.1015081 15.6892937,17.3754472 15.7974746,17.6244828 C15.8216007,17.7050479 15.8652165,17.77871 15.9248877,17.8387407 L17.9000474,19.8263938 C17.9019363,19.8287531 17.9028807,19.8311123 17.9046837,19.8334716 C17.9436632,19.8831913 17.9895971,19.9232118 18.038622,19.9589506 C18.1078234,20.0170589 18.1891308,20.0548948 18.2755038,20.0690505 C18.3275336,20.0811091 18.3813665,20.0878374 18.4372599,20.0878374 C18.6816114,20.0878374 18.9404728,19.9749413 19.2769497,19.7217988 C19.2810709,19.7186531 19.2851062,19.7155074 19.2891415,19.7123617 L20.2939359,18.905574 C20.3191781,18.8855637 20.3421021,18.8631069 20.3628797,18.8387276 C20.6039685,18.6260425 20.7675277,18.3397827 20.8272848,18.0223279 L22.6888546,7.84979437 C22.9498624,6.34125071 22.5993907,4.91353436 21.7023479,3.82546753 L21.7023479,3.82546753 Z" id="Fill-17" fill="#00FF9B" sketch:type="MSShapeGroup"></path>
            </g>
        </g>
    </g>
</svg>