<?xml version="1.0" encoding="UTF-8" standalone="no"?>
<svg width="55px" height="47px" viewBox="0 0 55 47" version="1.1" xmlns="http://www.w3.org/2000/svg" xmlns:xlink="http://www.w3.org/1999/xlink" xmlns:sketch="http://www.bohemiancoding.com/sketch/ns">
    <!-- Generator: Sketch 3.3.3 (12072) - http://www.bohemiancoding.com/sketch -->
    <title>monogram2</title>
    <desc>Created with Sketch.</desc>
    <defs></defs>
    <g id="Page-1" stroke="none" stroke-width="1" fill="none" fill-rule="evenodd" sketch:type="MSPage">
        <g id="monogram2" sketch:type="MSLayerGroup">
            <g id="Page-1" sketch:type="MSShapeGroup">
                <g id="myelin_monogram">
                    <path d="M1.09879656,39.9009157 C1.0704437,40.02802 0.946964941,40.6747809 1.27918648,41.03852 L5.25536676,44.9499417 L6.97790567,35.496607 L6.95838739,35.5137722 L7.28958166,33.78642 L11.6493474,9.85565478 C11.6818093,9.67623739 11.7356387,9.48885043 11.8093972,9.29860261 L11.8794575,9.11816348 L7.500379,4.76208087 L1.09879656,39.9009157 L1.09879656,39.9009157 Z" id="Fill-1" fill="#00FF99"></path>
                    <path d="M29.0340261,14.4185987 C28.8526088,13.9034378 28.6031859,13.4559161 28.2931535,13.088703 C27.547761,12.2048987 26.4193994,11.6549987 25.1168115,11.5395422 L24.8246538,11.5137943 L24.7934245,11.8037639 C24.7282952,12.40659 24.6261838,13.0878857 24.489145,13.831303 L19.9802186,39.9003639 C19.9504275,40.0329857 19.8209906,40.7132596 20.1897832,41.0684161 L24.1396652,44.9522509 L28.7126937,18.5141378 C29.1920213,15.9172857 29.1063464,14.8193248 29.0467643,14.4676422 L29.0340261,14.4185987 L29.0340261,14.4185987 Z" id="Fill-3" fill="#00FF99"></path>
                    <path d="M46.9349528,13.0887439 C46.2501696,12.27687 45.2629559,11.7559874 44.0799432,11.581883 L43.7649799,11.5357004 L43.7384761,11.8508048 C43.7199851,12.0717048 43.6932759,12.2785048 43.6577321,12.4799917 L38.5667503,39.9008135 C38.5451775,39.9978787 38.4660771,40.410457 38.5885286,40.7607091 L38.5038809,40.8348874 L42.7169514,44.9782439 L44.4922924,35.4145613 L44.4304503,35.4711657 L47.9340829,16.7574004 C48.0900236,15.3404526 47.735202,14.0375309 46.9349528,13.0887439" id="Fill-5" fill="#00FF99"></path>
                    <path d="M12.3454922,1.09957522 C11.8902028,1.14698391 11.3800568,1.3695187 10.8218342,1.76636217 L8.38636475,3.6114187 L8.08681063,3.85132304 L8.11125984,3.87012304 C8.07057965,3.9122187 8.02989946,3.95676652 7.9886029,4.00437957 L7.80821297,4.2130187 L12.1940715,8.57523174 L12.4046634,8.34370565 C12.498762,8.2401013 12.6000516,8.13118391 12.7120248,8.03841 L12.7370904,8.0153187 C12.7681142,7.98303174 12.8016034,7.95360565 12.8389963,7.92561 L15.2750822,6.08034913 L15.2968605,6.06359261 C15.675515,5.79446652 16.0093801,5.60176652 16.3175634,5.47425348 L16.7295017,5.30382739 L12.4870511,1.08486217 L12.3454922,1.09957522 L12.3454922,1.09957522 Z" id="Fill-7" fill="#00FF9B"></path>
                    <path d="M19.7565392,1.14945652 C18.1416589,1.14945652 16.5247242,1.46721739 14.9505241,2.09415652 L14.521944,2.26478696 L14.854371,2.58356957 C16.1060059,3.78370435 18.0056474,5.60873478 18.1067315,5.71622174 C18.2760268,5.90176957 18.390671,6.13411304 18.4467604,6.40691739 L18.5262716,6.79395217 L18.9234171,6.58715217 C18.9548518,6.57141739 18.9873138,6.55670435 19.0362122,6.5381087 C20.8327151,5.74278696 22.6970183,5.3396087 24.5775525,5.3396087 C25.8912349,5.3396087 27.1981373,5.54967826 28.4614832,5.9643 L29.6547688,6.35603478 L27.2638831,3.97824348 C25.4016345,2.1803913 22.6653781,1.14945652 19.7565392,1.14945652" id="Fill-9" fill="#00FF9B"></path>
                    <path d="M46.0523365,4.31913652 C45.9109831,4.16873652 45.7575079,4.01649739 45.5875962,3.85771913 L45.3880989,3.66522348 L45.3802916,3.67053652 C43.5061265,2.02022348 41.0975717,1.14949739 38.397681,1.14949739 C36.1089067,1.14949739 33.9347766,1.78563217 31.7692757,3.08405826 C31.3252863,3.30986261 30.8215094,3.63375391 30.2392486,4.06676696 C30.119468,4.14830174 30.0066729,4.23290174 29.8856596,4.33262348 C29.7237607,4.46463217 29.556109,4.56639739 29.3726373,4.64384522 L28.9658354,4.81611043 L32.5050118,8.33600174 C32.5206264,8.34989739 32.5368574,8.36420174 32.5639775,8.39301478 C32.6215051,8.44880174 32.6782108,8.50561043 32.7345056,8.56364522 L32.7534075,8.58142348 C32.9187992,8.72405826 33.249788,8.96314522 33.6083078,8.96314522 C33.6929555,8.96314522 33.9499803,8.96314522 34.3193893,8.66132348 C34.4449226,8.55751478 34.5647032,8.4669887 34.7052347,8.37012783 C35.2985902,7.92955391 35.8126399,7.59891913 36.2925839,7.35022783 C38.5622508,5.99724087 40.8280141,5.33964957 43.2186943,5.33964957 C44.4781365,5.33964957 45.6936112,5.52335826 46.8310129,5.88566696 L48.0058074,6.25962348 L46.0523365,4.31913652 L46.0523365,4.31913652 Z" id="Fill-11" fill="#00FF9B"></path>
                    <path d="M50.984871,9.71040435 C49.1039259,7.48056087 46.3421931,6.25263478 43.2075586,6.25263478 C40.8316712,6.25263478 38.7216432,6.95211739 36.7151648,8.15470435 C36.2432335,8.3946087 35.7324711,8.73546087 35.2173942,9.11861304 C35.1208301,9.18400435 35.0146096,9.26165652 34.8845563,9.36853043 C33.6594252,10.3724913 32.5653746,9.6486913 32.104127,9.2355 C32.0313958,9.1607087 31.9580482,9.08653043 31.8832624,9.0146 C31.8768933,9.00785652 31.871346,9.0005 31.871346,9.0005 L31.8727841,9.00417826 C30.0333411,7.2239 27.3507086,6.25263478 24.5663757,6.25263478 C22.7419308,6.25263478 20.9618644,6.66848261 19.3243841,7.40454348 L19.3243841,7.40168261 C17.7594295,8.19414348 17.5159648,7.65752609 17.5827378,6.9419 L17.5601377,6.9842 C17.6045161,6.51501739 17.5155539,5.59892609 15.8125332,6.80907391 L13.3770637,8.65392609 L13.3854874,8.66046522 C12.9530036,8.98088261 12.6331094,9.45558261 12.5305871,10.0259174 L6.20009224,44.7717913 C6.20009224,44.7717913 5.75548654,46.7433391 7.91954931,45.1508565 L10.3233787,43.2649304 L10.3225568,43.2649304 C10.7423024,42.9483957 11.0513075,42.4857522 11.1558843,41.9303348 L15.7155582,18.1326 C16.4369125,14.0624 20.4905495,10.6244522 24.5663757,10.6244522 C26.3784932,10.6244522 27.9452968,11.2977783 28.976478,12.5199826 C29.3978672,13.0192043 29.6998868,13.5971 29.9086296,14.2197478 C30.0088919,14.6909739 30.107305,15.9037783 29.5932554,18.6882217 L25.0812472,44.7717913 C25.0812472,44.7717913 24.636436,46.7433391 26.8002933,45.1508565 L29.2045336,43.2649304 L29.1887135,43.2536913 C29.6162664,42.9389957 29.9353388,42.4749217 30.0432029,41.913987 C30.0432029,41.913987 33.3126163,23.7668783 34.3166773,18.5635696 C34.5513075,17.5596087 34.8927745,16.3756174 35.3425166,15.477713 C35.5286593,15.1515739 35.7341148,14.8368783 35.9588831,14.5336261 C36.0328471,14.448413 36.0914019,14.3715783 36.1345476,14.3041435 C37.8531828,12.1210957 40.5218443,10.6244522 43.2075586,10.6244522 C45.0202924,10.6244522 46.5870961,11.2977783 47.6180718,12.5199826 C48.6819204,13.7816261 49.0860513,15.504687 48.7614316,17.3403435 L43.6681898,44.7717913 C43.6681898,44.7717913 43.2229677,46.7433391 45.3868251,45.1508565 L47.7914762,43.2649304 L47.7754507,43.2536913 C48.2030036,42.9389957 48.522076,42.4749217 48.6297347,41.913987 L53.0838044,18.1317826 C53.6438761,14.968887 52.8982781,11.9786652 50.984871,9.71040435" id="Fill-13" fill="#FFFFFF"></path>
                    <path d="M27.4025245,3.68843739 L32.4242678,8.68310696" id="Fill-15" fill="#FFFFFF"></path>
                    <path d="M53.2390671,16.9919917 C53.2370126,17.01917 53.2335198,17.0471657 53.2310544,17.0745483 C53.2008524,17.4209178 53.1572959,17.7693309 53.0950428,18.1204004 L48.6411785,41.9028091 C48.5335198,42.4637439 48.2140365,42.9274091 47.7864837,43.2425135 L47.8027146,43.2537526 L45.3982689,45.1396787 C45.3403305,45.1827961 45.2865011,45.2195787 45.2324663,45.2575874 L45.2332882,45.2528874 C43.2658463,46.615683 43.6792228,44.7608178 43.6792228,44.7608178 L45.5102422,34.8977657 L45.5108585,34.8977657 L45.8280818,33.186557 L48.7724646,17.3291657 C49.0229148,15.914057 48.835334,14.5682222 48.2514294,13.4461483 C48.1651381,13.2804222 48.0710395,13.1193961 47.9683118,12.9638874 C47.863324,12.8067439 47.7517617,12.6538917 47.6293102,12.5088048 C47.5095296,12.3673961 47.3815309,12.2343657 47.2483957,12.1080787 C47.1994973,12.0610787 47.1469007,12.018983 47.0959477,11.9748439 C47.0098619,11.9000526 46.9225433,11.8260787 46.8317319,11.755783 C46.7635207,11.7042874 46.692844,11.6556526 46.6223728,11.6078352 C46.5447106,11.5545004 46.4660212,11.5030048 46.3854826,11.4541657 C46.3010404,11.40267 46.2155709,11.3530135 46.1280469,11.3062178 C46.0602465,11.2706613 45.9905971,11.2369439 45.9207423,11.2040439 C45.8176036,11.1545917 45.714054,11.1049352 45.6072172,11.0618178 C45.562017,11.0440396 45.5153786,11.0291222 45.4697674,11.0121613 C45.0165326,10.842757 44.5328904,10.7236222 44.0227444,10.6637483 C43.7601722,10.6339135 43.4932855,10.6132743 43.218797,10.6132743 C43.0815527,10.6132743 42.9438975,10.6196091 42.8064478,10.6273743 C42.6570817,10.6357526 42.5083319,10.6496483 42.3595821,10.6666091 C42.3468439,10.6684483 42.3345165,10.66947 42.3219837,10.6702874 C42.1830958,10.6872483 42.0452352,10.7087048 41.9073745,10.7330222 C41.8839526,10.7379265 41.8605307,10.740583 41.8375197,10.745283 C41.7066445,10.7696004 41.5761803,10.7978004 41.4463324,10.828657 C41.4165414,10.8360135 41.3867503,10.8417352 41.3577811,10.8490917 C41.233686,10.8801526 41.111029,10.9148917 40.988783,10.9512657 C40.9522119,10.961483 40.9160518,10.9719048 40.8798916,10.9831439 C40.7629874,11.0197222 40.647316,11.058957 40.53185,11.1002352 C40.4909643,11.1151526 40.4500787,11.1302743 40.409193,11.1451917 C40.298658,11.1862657 40.1885338,11.2304048 40.0790261,11.2772004 C40.0342368,11.2960004 39.9894475,11.3145961 39.9448636,11.3344178 C39.8409031,11.3801917 39.7373536,11.4280091 39.6346258,11.4776657 C39.5853165,11.501983 39.5362126,11.5263004 39.4871088,11.5508222 C39.3897229,11.6002743 39.2927479,11.6509526 39.1965947,11.7042874 C39.1439981,11.7333048 39.0918124,11.7631396 39.0394212,11.793383 C38.948199,11.8456961 38.8577986,11.8982135 38.76822,11.9544091 C38.712747,11.9881265 38.6574795,12.023683 38.6026228,12.0592396 C38.5179752,12.1144135 38.4333275,12.1697917 38.350118,12.2268048 C38.2917687,12.2670613 38.2340357,12.3093613 38.1765081,12.351457 C38.098846,12.4066309 38.0211838,12.4628265 37.9453707,12.5208613 C37.883734,12.5686787 37.8233301,12.6173135 37.7627208,12.6661526 C37.692455,12.7221439 37.6213674,12.7785439 37.5525398,12.8373961 C37.4880268,12.891957 37.4259792,12.9479483 37.3629044,13.0041439 C37.3002404,13.0603396 37.2367547,13.1155135 37.1749126,13.1737526 C37.1071123,13.2364874 37.0417774,13.3029004 36.9758262,13.3684961 C36.9217914,13.4218309 36.8667293,13.4743483 36.8141327,13.5287048 C36.7383196,13.6073787 36.6655884,13.6878917 36.5926517,13.7684048 C36.552177,13.8133613 36.510264,13.8564787 36.4706111,13.9014352 C36.3592542,14.0295613 36.2503628,14.1599352 36.1459914,14.2929657 C36.1026403,14.3601961 36.044291,14.4370309 35.970327,14.5222439 C35.7453532,14.8257004 35.5398977,15.1403961 35.3539605,15.4663309 C34.9040129,16.3646439 34.5627514,17.5484309 34.3279157,18.5521874 C33.3238547,23.7557004 30.0546468,41.9028091 30.0546468,41.9028091 C29.9467827,42.4637439 29.6275048,42.9274091 29.1999519,43.2425135 L29.2159774,43.2537526 L26.8115317,45.1396787 C26.7683861,45.1717613 26.7287332,45.1985309 26.6872312,45.227957 L26.6878475,45.2250961 C24.6721236,46.6430657 25.092691,44.7608178 25.092691,44.7608178 L26.768797,35.0708483 L29.6044938,18.6768396 C30.1185435,15.8923961 30.0199248,14.6797961 29.919868,14.20857 C29.829673,13.9388309 29.7181107,13.6795135 29.5903174,13.4293917 C29.5097788,13.2720439 29.4218439,13.1193961 29.3265125,12.9714483 C29.3215816,12.9638874 29.3176779,12.9555091 29.312747,12.9479483 C29.2137174,12.7953004 29.1058533,12.6491917 28.9877164,12.5088048 C28.8656758,12.3645352 28.7352116,12.2286439 28.5987891,12.0994961 C28.5503016,12.0537222 28.4970887,12.0124439 28.4467521,11.9693265 C28.3567625,11.8906526 28.2659512,11.8119787 28.1704144,11.7398439 C28.1038468,11.6901874 28.0344029,11.6444135 27.9651644,11.5976178 C27.8801058,11.5393787 27.7946363,11.4823657 27.7062904,11.4298483 C27.6259573,11.3820309 27.5437751,11.3380961 27.4607711,11.2941613 C27.3785889,11.2510439 27.295174,11.2089483 27.2103209,11.1695091 C27.1176604,11.1263917 27.0235618,11.0861352 26.928025,11.0487396 C26.8487192,11.0168613 26.7683861,10.9878439 26.6872312,10.9606657 C26.5822434,10.9240874 26.4764338,10.8885309 26.3675424,10.8576743 C26.2941948,10.8370352 26.2183817,10.8200743 26.1435959,10.8014787 C26.0240208,10.7732787 25.9048566,10.7442613 25.7817888,10.7228048 C25.7207685,10.7115657 25.6572827,10.7040048 25.5950297,10.6956265 C25.4561418,10.67417 25.3178703,10.6535309 25.1750787,10.64127 C24.9786632,10.6245135 24.7806041,10.6132743 24.5776141,10.6132743 C24.3752404,10.6132743 24.1726613,10.6281917 23.9706985,10.6449483 C23.739972,10.6637483 23.5102728,10.6946048 23.2809844,10.7338396 C23.266808,10.7369048 23.252837,10.7387439 23.2386606,10.740583 C23.0216996,10.7800222 22.8063822,10.8294743 22.5920921,10.88567 C22.5653829,10.8932309 22.5380574,10.8987483 22.5111427,10.9063091 C22.3079472,10.9625048 22.1063953,11.0270787 21.9062817,11.0983961 C21.8695052,11.1114743 21.8317013,11.1235309 21.7951303,11.1376309 C21.6054948,11.2079265 21.4181194,11.2855787 21.2325931,11.3689526 C21.1859547,11.3895917 21.1393163,11.4102309 21.0930888,11.4316874 C20.9180407,11.5132222 20.7448418,11.6023178 20.5739028,11.6948874 C20.519868,11.7249265 20.4650114,11.7549657 20.4113875,11.7856178 C20.2505158,11.8765526 20.0923151,11.9740265 19.9363744,12.0751787 C19.8751486,12.1144135 19.8143338,12.15467 19.7537244,12.1959483 C19.607851,12.2952613 19.4646485,12.3972309 19.3239115,12.5041048 C19.256933,12.5556004 19.1909818,12.6070961 19.1250306,12.6594091 C18.9947718,12.7646483 18.8663621,12.8711135 18.7410343,12.9816657 C18.6699467,13.0446048 18.6007082,13.1091787 18.5314697,13.1737526 C18.4160037,13.2814439 18.3023868,13.390157 18.1924681,13.5033657 C18.1191205,13.5783613 18.0484438,13.6560135 17.9773562,13.73387 C17.8770939,13.8434004 17.7776534,13.9529309 17.6825275,14.0661396 C17.608769,14.1552352 17.5391196,14.2459657 17.4684429,14.3369004 C17.3831789,14.4456135 17.2975039,14.5551439 17.2169654,14.6675352 C17.145056,14.7697091 17.0782829,14.8735178 17.0102771,14.9775309 C16.9391895,15.0862439 16.8666638,15.1937309 16.8005071,15.304283 C16.7316795,15.4195352 16.6700428,15.5374439 16.606968,15.655557 C16.5498514,15.7603874 16.4906802,15.8644004 16.4376727,15.9720917 C16.3741869,16.103283 16.3187139,16.2371309 16.2618028,16.3709787 C16.2192735,16.4694743 16.1732514,16.5667439 16.1350367,16.6670787 C16.0758655,16.8215657 16.0267617,16.9789135 15.9774524,17.1370787 C15.9509486,17.2196352 15.9195139,17.3009657 15.8965029,17.3843396 C15.8282917,17.6279222 15.7707641,17.8731396 15.7270021,18.1214222 L11.1671227,41.9185439 C11.0625459,42.4741657 10.7537463,42.9372178 10.3335898,43.2537526 L10.3348225,43.2537526 L7.93078773,45.1396787 C7.88682025,45.1725787 7.84634551,45.1995526 7.80463805,45.2289787 L7.80504896,45.2261178 C5.79179052,46.6422483 6.21133065,44.7608178 6.21133065,44.7608178 L12.5418255,10.0147396 C12.6194877,9.58315696 12.8224777,9.20654391 13.1039517,8.90962652 C13.1939412,8.81399174 13.2917381,8.72693957 13.3969313,8.64928739 L13.3883022,8.64274826 L15.8239771,6.79769174 C15.9626596,6.69940043 16.0869601,6.61888739 16.2053025,6.54777435 C16.2367372,6.52795261 16.2669392,6.51017435 16.2969357,6.49341783 C16.3974034,6.4351787 16.4910911,6.38572652 16.576766,6.34628739 C16.5874497,6.34158739 16.600188,6.33402652 16.6110771,6.32953087 C16.7047648,6.28825261 16.7877688,6.26005261 16.8644037,6.23859609 C16.8845384,6.2330787 16.9030294,6.22919609 16.9221367,6.22470043 C16.9835679,6.21060043 17.0404791,6.20303957 17.0914321,6.20120043 C17.0988285,6.20120043 17.1086903,6.19752217 17.1162922,6.19752217 C17.1195795,6.19752217 17.1214286,6.19833957 17.1247159,6.19833957 C17.1760797,6.1993613 17.2221018,6.20590043 17.262782,6.21795696 C17.2720275,6.22081783 17.2792184,6.22551783 17.288053,6.2283787 C17.3182549,6.23961783 17.3466078,6.25351348 17.3708515,6.26945261 C17.3813298,6.27701348 17.3911916,6.28539174 17.4006426,6.29377 C17.4203663,6.31052652 17.438241,6.32850913 17.4542665,6.34914826 C17.4614574,6.35834391 17.4692647,6.36794826 17.4760448,6.37734826 C17.4924812,6.40350478 17.5068631,6.43068304 17.5187795,6.45949609 C17.5216559,6.46623957 17.5249432,6.47093957 17.5274086,6.4774787 C17.5405578,6.51303522 17.5508306,6.55043087 17.558227,6.58884826 C17.5606924,6.60090478 17.5621306,6.61234826 17.5639797,6.62358739 C17.5682943,6.65158304 17.5719925,6.67978304 17.5742525,6.7077787 C17.5756907,6.72290043 17.576718,6.73679609 17.5771289,6.75089609 C17.5781561,6.77807435 17.5785671,6.80341348 17.5785671,6.82957 C17.5781561,6.84264826 17.5785671,6.85490913 17.5781561,6.86696565 C17.576718,6.90354391 17.5748689,6.93910043 17.5713761,6.97281783 L17.5941817,6.93072217 C17.5841144,7.03657435 17.5822653,7.13670478 17.5894562,7.23029609 C17.6284927,7.7746787 18.0009836,8.06587435 19.3356225,7.39070913 L19.3356225,7.39336565 C20.3078379,6.9560613 21.3314172,6.63482652 22.3841712,6.4437613 C22.3999913,6.44090043 22.4156059,6.43722217 22.4318369,6.4343613 C22.7560456,6.37734826 23.0829253,6.33320913 23.4118596,6.30153522 C23.4716471,6.29560913 23.5310238,6.29111348 23.5908113,6.28620913 C23.9181019,6.25923522 24.2466253,6.24145696 24.5776141,6.24145696 C24.9254503,6.24145696 25.2714373,6.25637435 25.6147535,6.28620913 C25.7776797,6.30051348 25.9367022,6.32953087 26.0981902,6.35017 C26.2767311,6.37346565 26.457121,6.38940478 26.6331964,6.4202613 C26.856321,6.45949609 27.0738984,6.51589609 27.2927085,6.56739174 C27.4030381,6.59354826 27.5164496,6.61234826 27.6251355,6.64238739 C27.8981859,6.71513522 28.1642507,6.80525261 28.4278501,6.89884391 C28.4781867,6.91662217 28.5309888,6.92970043 28.5809145,6.94850043 C28.8812904,7.05987 29.1740645,7.18656565 29.4598531,7.32307 C29.4703314,7.32879174 29.4818369,7.33247 29.4925205,7.33717 C29.7795419,7.47673957 30.0573177,7.63020478 30.326259,7.79429609 C30.3348881,7.79981348 30.3435172,7.80349174 30.35153,7.80839609 C30.6005421,7.9618613 30.8378432,8.12860913 31.0693915,8.30373522 C31.0952789,8.32335261 31.1242481,8.33929174 31.1501355,8.35890913 C31.362371,8.52279609 31.5620738,8.70180478 31.757462,8.88326565 C31.7960876,8.91902652 31.8394387,8.95008739 31.8768316,8.9864613 L31.8782698,8.98830043 C31.8803244,8.99013957 31.8821735,8.9911613 31.884228,8.99300043 L31.8827898,8.98932217 C31.8827898,8.98932217 31.8883371,8.9966787 31.8945008,9.00321783 C31.9296337,9.03713957 31.9637393,9.07249174 31.9984613,9.10723087 L31.9988722,9.10723087 C32.0377033,9.14646565 32.0771507,9.18488304 32.1153654,9.22432217 C32.3508175,9.43500478 32.7522775,9.72252217 33.2498907,9.82469609 C33.2429052,9.82469609 33.2348925,9.82367435 33.227907,9.82367435 C33.4175424,9.86495261 33.6223815,9.87721348 33.837288,9.84819609 C33.8229061,9.84901348 33.8087297,9.85003522 33.7879787,9.85003522 L33.7838696,9.85003522 C33.814277,9.84717435 33.844068,9.84513087 33.87427,9.84145261 C34.1958078,9.79179609 34.5399458,9.64854826 34.8960002,9.35735261 C35.0260535,9.2504787 35.132274,9.17282652 35.2288381,9.10723087 C35.743915,8.72428304 36.2546774,8.38343087 36.7266087,8.14352652 C38.5249607,7.06559174 40.4081658,6.39594391 42.4896354,6.26843087 C42.7298129,6.25167435 42.9724558,6.24145696 43.218797,6.24145696 C43.5586204,6.24145696 43.8937183,6.25821348 44.2245017,6.28743522 C44.2542927,6.29009174 44.2842892,6.29111348 44.3140803,6.29377 C44.6304817,6.32380913 44.9411304,6.36876565 45.24767,6.42393957 C45.2865011,6.43150043 45.326154,6.43803957 45.3651906,6.44560043 C45.6674156,6.50363522 45.9636825,6.57577 46.2546074,6.65812217 C46.2920003,6.6693613 46.3289823,6.67978304 46.3657589,6.69081783 C46.6595602,6.77807435 46.9469925,6.87718304 47.2280556,6.9897787 C47.2549703,7.00101783 47.2816795,7.01225696 47.3077723,7.02247435 C47.5982864,7.14140478 47.881815,7.27259609 48.1567145,7.41768304 C48.1651381,7.42156565 48.1735618,7.42708304 48.1821909,7.4307613 C49.0506513,7.89156565 49.8402168,8.48172217 50.53178,9.19162652 C50.5332182,9.19244391 50.5342455,9.19346565 50.5356837,9.19530478 C50.693679,9.35735261 50.8485924,9.52410043 50.9961095,9.69922652 C51.1156846,9.84063522 51.2305342,9.98572217 51.3412747,10.1328526 C51.3418911,10.13367 51.342302,10.13367 51.3427129,10.1346917 C51.5378956,10.3960526 51.7168474,10.6666091 51.8834718,10.9437048 C51.8966209,10.9653657 51.9114137,10.9868222 51.9247683,11.0093004 C52.0813254,11.2753613 52.2230897,11.5498004 52.3529376,11.8287352 C52.3699904,11.8655178 52.387865,11.9000526 52.4038905,11.9364265 C52.5271638,12.2100483 52.6360553,12.4900048 52.7332357,12.7746613 C52.7484394,12.8198222 52.7644649,12.8635526 52.7790523,12.9087135 C52.8708909,13.1915309 52.9499913,13.4790483 53.0163534,13.7712657 C53.0276534,13.8199004 53.0379262,13.8687396 53.0484044,13.9173743 C53.1110684,14.2114309 53.1607886,14.5083483 53.1977706,14.810783 C53.2033179,14.8586004 53.2080434,14.9072352 53.2131798,14.95587 C53.2454363,15.2621874 53.2668036,15.572183 53.2723509,15.8868787 C53.2733782,15.9279526 53.2723509,15.9702526 53.2727618,16.0123483 C53.2754328,16.3354222 53.2657764,16.6623787 53.2390671,16.9919917 L53.2390671,16.9919917 L53.2390671,16.9919917 Z M42.5257956,44.3727613 L38.941419,40.8473526 L38.9627863,40.828757 C38.726718,40.5555439 38.8582095,39.9653874 38.8582095,39.9653874 L43.9514513,12.5341439 C43.9902824,12.3130396 44.017608,12.0939787 44.036099,11.8755309 C45.1311768,12.0367613 46.0629175,12.517183 46.7061986,13.2796048 C47.4628912,14.1766917 47.7842236,15.3884743 47.6371175,16.7251135 L43.9730241,36.2903961 L44.0371262,36.2319526 L42.5257956,44.3727613 L42.5257956,44.3727613 Z M23.9425511,44.3406787 L20.3996765,40.8571613 C20.1299134,40.5974352 20.2716777,39.9653874 20.2716777,39.9653874 L24.7834805,13.8818178 C24.9326412,13.0726004 25.0296162,12.3992743 25.090431,11.8354787 C26.318644,11.9439874 27.361947,12.4468874 28.0646048,13.2796048 C28.3516262,13.6194352 28.5827636,14.035283 28.7522644,14.5167265 C28.8079428,14.8463396 28.8911523,15.9028178 28.4190156,18.4606396 L23.9425511,44.3406787 L23.9425511,44.3406787 Z M5.06262896,44.3427222 L1.51461794,40.8538917 C1.51256339,40.8520526 1.51133065,40.8502135 1.50989246,40.8491917 L1.50845428,40.8473526 L1.50886519,40.8473526 C1.25184036,40.5833352 1.39031736,39.9653874 1.39031736,39.9653874 L7.69245935,5.37318304 L11.5309844,9.19162652 C11.4547604,9.38820913 11.3935347,9.59235261 11.3555254,9.80303522 L6.99575975,33.7335961 L6.49855744,36.3275874 L6.52773212,36.3016352 L5.06262896,44.3427222 L5.06262896,44.3427222 Z M8.57571254,3.85426565 L8.56728886,3.84752217 L11.0027583,2.00267 C11.5615973,1.60562217 12.0175031,1.43233522 12.3766393,1.39493957 L16.202837,5.19989609 C15.8747246,5.33578739 15.5186702,5.54095261 15.1231684,5.82193087 C15.113512,5.82928739 15.1036501,5.83684826 15.0935828,5.84440913 L12.6581133,7.6892613 C12.6092149,7.72583957 12.5633983,7.76609609 12.5210745,7.81023522 C12.3978012,7.91220478 12.2895261,8.02745696 12.1831002,8.14454826 L8.21513814,4.1979787 C8.32444046,4.07148739 8.44196101,3.95337435 8.57571254,3.85426565 L8.57571254,3.85426565 L8.57571254,3.85426565 Z M19.7566008,1.44643522 C22.5376464,1.44643522 25.2163752,2.41565696 27.0560238,4.19123522 L27.2207991,4.35512217 C27.2452483,4.3804613 27.2703139,4.4039613 27.2941467,4.42909609 C27.295174,4.43011783 27.2964067,4.43113957 27.297434,4.43195696 L28.5550271,5.6823613 C27.3050358,5.27203087 25.9611514,5.04254826 24.5776141,5.04254826 C22.6539343,5.04254826 20.7489509,5.45471783 18.9148496,6.26679609 C18.8723203,6.28253087 18.8299965,6.30153522 18.7891109,6.32197 C18.7716471,6.33034826 18.7552107,6.33893087 18.7391852,6.34730913 C18.6590575,5.95863957 18.4868858,5.69073957 18.3276578,5.51663522 C18.2070554,5.38544391 15.0615317,2.36988304 15.0615317,2.36988304 C16.5455368,1.77890913 18.1326805,1.44643522 19.7566008,1.44643522 L19.7566008,1.44643522 L19.7566008,1.44643522 Z M30.0749869,4.56233087 C30.2048348,4.45545696 30.3110553,4.37780478 30.4078248,4.31220913 C30.9226963,3.9292613 31.4334586,3.58820478 31.9051845,3.34850478 C33.9118683,2.14591783 36.0221018,1.44643522 38.3977837,1.44643522 C41.1030163,1.44643522 43.5290348,2.36232217 45.3520414,4.04614826 L45.3534796,4.04533087 L45.3783397,4.06964826 C45.5346914,4.21575696 45.6873448,4.36554391 45.8342455,4.52187 L46.9221324,5.60287 C45.7635688,5.23381783 44.5197412,5.04254826 43.218797,5.04254826 C40.7724384,5.04254826 38.456544,5.71423957 36.1392114,7.09542652 C35.6641983,7.34084826 35.1359722,7.6798613 34.5267966,8.13228739 C34.3918124,8.2250613 34.26443,8.32049174 34.1284184,8.43288304 C33.8430407,8.66604391 33.6659381,8.66604391 33.6082051,8.66604391 C33.345633,8.66604391 33.0760754,8.46660043 32.9488984,8.35707 C32.8907545,8.29719609 32.8319942,8.23813957 32.7720012,8.18010478 C32.7504284,8.15660478 32.7270065,8.13514826 32.7039955,8.11450913 L29.4896442,4.91728304 C29.6803069,4.83656565 29.8752841,4.72519609 30.0749869,4.56233087 L30.0749869,4.56233087 L30.0749869,4.56233087 Z M51.919221,8.92842652 C51.7565003,8.73552217 51.5855613,8.55079174 51.4109241,8.37117 C51.4027059,8.36258739 51.3971586,8.35237 51.3889404,8.34501348 L46.7006513,3.68833522 C46.5502579,3.52914826 46.3926735,3.37282217 46.2188582,3.20995696 L46.2092018,3.20137435 C46.1806435,3.17235696 46.1500306,3.1443613 46.1185959,3.11800043 C44.0574663,1.24024826 41.3892158,0.247526522 38.3977837,0.247526522 C35.9514251,0.247526522 33.6355307,0.919013478 31.3181981,2.30040478 C30.843185,2.54582652 30.3149589,2.8858613 29.7055779,3.33726565 C29.5705936,3.42983522 29.4436221,3.52547 29.3074051,3.6378613 C29.0220275,3.87102217 28.8451303,3.87102217 28.7869864,3.87102217 C28.5240033,3.87102217 28.2550621,3.6715787 28.1278851,3.56204826 C28.0695358,3.50197 28.0107755,3.44291348 27.9509879,3.38508304 C27.9292097,3.36158304 27.9057877,3.33992217 27.8827767,3.31928304 L27.828331,3.26513087 C27.8227837,3.25940913 27.8149764,3.25777435 27.8094291,3.25205261 C25.7817888,1.34242217 22.8569243,0.247526522 19.7566008,0.247526522 C17.9557834,0.247526522 16.168526,0.609017826 14.4412616,1.32362217 C14.3609285,1.15789609 14.2551189,1.00054826 14.1256819,0.859139565 C13.7291528,0.426535217 13.1614793,0.187652609 12.5268272,0.187652609 C11.835264,0.187652609 11.0865842,0.469652609 10.3023606,1.02690913 C10.2922932,1.03426565 10.2824314,1.04182652 10.2725695,1.04918304 L7.83710002,2.89423957 C7.78820161,2.93081783 7.74238503,2.97107435 7.7000612,3.01500913 C7.08657108,3.52547 6.67524917,4.22699609 6.5343067,5.00801348 L0.207510054,39.7318178 C0.140326106,40.0516222 0.00883458647,40.994483 0.612873754,41.6500309 C0.626639273,41.6649483 0.640815702,41.68007 0.654992131,41.69417 L5.28904092,46.2515352 C5.3145174,46.2889309 5.33465204,46.3281657 5.36382672,46.3645396 C5.53353296,46.5754265 5.74864487,46.7280743 5.99108236,46.8282048 C6.05456811,46.8566091 6.12051932,46.8778613 6.18770327,46.8950265 C6.33172757,46.9330352 6.48068281,46.9593961 6.63847264,46.9593961 C7.22299353,46.9593961 7.84264732,46.6953787 8.64721105,46.103383 C8.65768928,46.0960265 8.66755115,46.08867 8.67741301,46.0813135 L11.0814478,44.19457 C11.0869951,44.1900743 11.0931588,44.18517 11.0993224,44.1806743 C11.7555473,43.6712352 12.1995366,42.94907 12.3517792,42.140057 L16.9110421,18.3462048 C17.4873448,15.092783 20.6406758,12.2268048 23.8757781,11.8550961 C23.8176342,12.3532961 23.7301102,12.9479483 23.5977968,13.6654135 L19.0880486,39.7385613 C19.016961,40.0777787 18.8850586,41.0686613 19.5624454,41.7197135 L24.167114,46.2476526 C24.1934123,46.28607 24.2145742,46.3271439 24.2447762,46.3645396 C24.4153042,46.5762439 24.6318543,46.7288917 24.8755246,46.8292265 C24.9344903,46.8555874 24.995716,46.8739787 25.0577636,46.8911439 C25.2046643,46.9311961 25.3573177,46.9593961 25.5192166,46.9593961 C26.103943,46.9593961 26.7235968,46.6953787 27.5285714,46.103383 C27.5384333,46.0960265 27.5485006,46.08867 27.5579516,46.0813135 L29.9621918,44.19457 C30.0223903,44.1477743 30.0778633,44.095257 30.1271726,44.0382439 C30.7040916,43.5408613 31.0956898,42.8714178 31.2386868,42.1290222 C31.2736143,41.9340743 34.5109766,23.9674048 35.5074357,18.8012874 C35.778637,17.6446787 36.0931894,16.6885352 36.4184254,16.0293091 C36.5694352,15.7669265 36.7368814,15.51047 36.9162441,15.26607 C36.9943172,15.1741135 37.0639666,15.0831787 37.1235487,14.9953091 C38.5952264,13.145757 40.7469619,11.9580874 42.8300752,11.825057 C42.8144606,11.990783 42.7943259,12.1575309 42.7645349,12.3261178 L37.6760185,39.7310004 C37.6248601,39.9756048 37.5301451,40.6162352 37.7890191,41.1986265 C37.8467521,41.3870352 37.9511234,41.5593004 38.093915,41.6996874 L42.8204188,46.3479874 C42.8249388,46.3535048 42.8271988,46.3590222 42.8315134,46.3645396 C42.9247902,46.4808135 43.0347089,46.5744048 43.152024,46.657983 C43.3176211,46.7938743 43.5121874,46.882357 43.7188757,46.9154613 C43.8433817,46.9436613 43.9722023,46.9593961 44.1059538,46.9593961 C44.6906802,46.9593961 45.3101285,46.6953787 46.1153086,46.103383 C46.1251705,46.0960265 46.1348269,46.08867 46.1444833,46.0813135 L48.548929,44.19457 C48.6093329,44.1477743 48.6641895,44.095257 48.7139098,44.0382439 C49.2908288,43.5408613 49.6822215,42.8714178 49.8252186,42.1290222 L54.2799047,18.3396657 C54.9044894,14.8118048 54.0658201,11.4729657 51.919221,8.92842652 L51.919221,8.92842652 L51.919221,8.92842652 Z" id="Fill-17" fill="#010101"></path>
                </g>
            </g>
        </g>
    </g>
</svg>