<?xml version="1.0" encoding="UTF-8" standalone="no"?>
<svg width="34px" height="30px" viewBox="0 0 34 30" version="1.1" xmlns="http://www.w3.org/2000/svg" xmlns:xlink="http://www.w3.org/1999/xlink" xmlns:sketch="http://www.bohemiancoding.com/sketch/ns">
    <!-- Generator: Sketch 3.3.2 (12043) - http://www.bohemiancoding.com/sketch -->
    <title>myelin_monogram</title>
    <desc>Created with Sketch.</desc>
    <defs></defs>
    <g id="Page-1" stroke="none" stroke-width="1" fill="none" fill-rule="evenodd" sketch:type="MSPage">
        <g id="1" sketch:type="MSArtboardGroup" transform="translate(-702.000000, -18.000000)">
            <g id="myelin_monogram" sketch:type="MSLayerGroup" transform="translate(702.000000, 18.000000)">
                <path d="M31.7190985,6.19813043 C30.5489105,4.77482609 28.8307602,3.99104348 26.8806173,3.99104348 C25.402512,3.99104348 24.0898053,4.43752174 22.8415195,5.20513043 C22.547918,5.35826087 22.2301586,5.57582609 21.909715,5.8203913 C21.8496398,5.86213043 21.7835571,5.91169565 21.7026474,5.97991304 C20.9404594,6.62073913 20.2598203,6.15873913 19.9728654,5.895 C19.9276173,5.84726087 19.8819857,5.79991304 19.8354594,5.754 C19.831497,5.74969565 19.8280459,5.745 19.8280459,5.745 L19.8289406,5.74734783 C18.6845722,4.611 17.0156323,3.99104348 15.2834218,3.99104348 C14.1483842,3.99104348 13.0409556,4.25647826 12.0222338,4.72630435 L12.0222338,4.72447826 C11.0486323,5.23030435 10.8971662,4.88778261 10.9387075,4.431 L10.9246474,4.458 C10.9522564,4.15852174 10.8969105,3.57378261 9.83741429,4.34621739 L8.32224135,5.52378261 L8.32748195,5.52795652 C8.0584218,5.73247826 7.85940677,6.03547826 7.79562481,6.39952174 L3.85724887,28.5777391 C3.85724887,28.5777391 3.58064737,29.8361739 4.92697068,28.8196957 L6.4224594,27.615913 L6.42194812,27.615913 C6.68308346,27.4138696 6.87532406,27.1185652 6.94038421,26.7640435 L9.77708346,11.574 C10.2258579,8.976 12.7477376,6.78156522 15.2834218,6.78156522 C16.4107902,6.78156522 17.3855421,7.21134783 18.0270684,7.99147826 C18.2892263,8.31013043 18.4771211,8.679 18.6069857,9.07643478 C18.6693617,9.37721739 18.7305872,10.1513478 18.4107827,11.9286522 L15.6037376,28.5777391 C15.6037376,28.5777391 15.3270083,29.8361739 16.6732038,28.8196957 L18.1689481,27.615913 L18.159106,27.6087391 C18.4250985,27.4078696 18.6236023,27.1116522 18.6907075,26.7536087 C18.6907075,26.7536087 20.7247,15.1703478 21.3493541,11.849087 C21.4953241,11.2082609 21.7077602,10.4525217 21.9875571,9.8793913 C22.1033617,9.67121739 22.2311812,9.47034783 22.3710158,9.27678261 C22.4170308,9.2223913 22.4534594,9.17334783 22.4803015,9.13030435 C23.549512,7.73686957 25.2097602,6.78156522 26.8806173,6.78156522 C28.0083692,6.78156522 28.9831211,7.21134783 29.6245195,7.99147826 C30.2863692,8.79678261 30.5377902,9.8966087 30.3358353,11.0683043 L27.1671887,28.5777391 C27.1671887,28.5777391 26.8902038,29.8361739 28.2363992,28.8196957 L29.7323992,27.615913 L29.7224293,27.6087391 C29.9884218,27.4078696 30.1869256,27.1116522 30.253903,26.7536087 L33.024903,11.5734783 C33.3733391,9.5546087 32.909482,7.64595652 31.7190985,6.19813043" id="Fill-13" fill="#FFFFFF" sketch:type="MSShapeGroup"></path>
                <path d="M17.0478684,2.35432174 L20.1720338,5.5424087" id="Fill-15" fill="#FFFFFF" sketch:type="MSShapeGroup"></path>
                <path d="M30.2653023,9.91843283 C30.2641346,9.93428055 30.2621496,9.95060489 30.2607484,9.96657176 C30.2435837,10.1685408 30.2188292,10.3717013 30.1834489,10.5764109 L27.652181,24.4439963 C27.5909953,24.7710789 27.4094231,25.0414433 27.1664316,25.2251815 L27.1756562,25.231735 L25.8091359,26.3314235 C25.7762077,26.3565654 25.7456148,26.3780134 25.7149052,26.4001764 L25.7153722,26.3974358 C24.5972146,27.1920855 24.8321492,26.1105087 24.8321492,26.1105087 L25.8727737,20.3593369 L25.873124,20.3593369 L26.0534118,19.3615266 L27.7267949,10.1150398 C27.8691335,9.28988621 27.7625255,8.50512639 27.4306746,7.85084213 C27.3816326,7.75420681 27.3281535,7.66031207 27.2697702,7.56963454 C27.2101024,7.47800376 27.1466981,7.38887525 27.0771051,7.30427467 C27.0090302,7.22181888 26.9362845,7.14424848 26.8606197,7.07061023 C26.8328293,7.0432044 26.802937,7.01865832 26.7739789,6.99292067 C26.7250536,6.94930966 26.6754278,6.90617528 26.6238169,6.8651857 C26.5850504,6.83515845 26.5448827,6.80679938 26.5048317,6.77891693 C26.4606939,6.74781728 26.4159723,6.71779003 26.3701997,6.6893118 C26.3222086,6.65928455 26.2736337,6.6303297 26.2238911,6.60304303 C26.1853581,6.58230993 26.1457742,6.56264923 26.1060735,6.54346515 C26.0474567,6.51462946 25.9886063,6.48567461 25.9278876,6.46053275 C25.9021989,6.4501662 25.8756929,6.44146783 25.8497707,6.4315779 C25.5921834,6.33279778 25.3173147,6.26332997 25.027383,6.22841733 C24.8781552,6.21102059 24.7264753,6.19898586 24.570475,6.19898586 C24.4924749,6.19898586 24.4142412,6.20267969 24.3361243,6.20720761 C24.251235,6.21209299 24.1666959,6.22019558 24.0821568,6.23008551 C24.0749173,6.23115791 24.0679113,6.23175369 24.0607885,6.23223032 C23.9818543,6.24212024 23.9035038,6.2546316 23.8251534,6.26881113 C23.811842,6.27167087 23.7985306,6.2732199 23.7854527,6.27596048 C23.7110724,6.29014001 23.6369255,6.30658351 23.563129,6.32457603 C23.5461978,6.32886564 23.5292667,6.332202 23.5128026,6.3364916 C23.4422755,6.35460328 23.3725658,6.37485976 23.3030896,6.39606948 C23.2823051,6.40202727 23.2617542,6.40810421 23.2412033,6.41465778 C23.174763,6.43598666 23.1090234,6.45886457 23.0434005,6.48293403 C23.020164,6.4916324 22.9969274,6.50044993 22.9736908,6.5091483 C22.9108704,6.5330986 22.8482834,6.55883625 22.7860468,6.58612292 C22.7605917,6.59708525 22.7351365,6.60792842 22.7097982,6.61948653 C22.6507142,6.64617742 22.5918638,6.67405986 22.5334805,6.70301471 C22.5054565,6.71719425 22.4775493,6.73137378 22.449642,6.74567248 C22.3942946,6.77450817 22.3391808,6.8040588 22.284534,6.83515845 C22.2546417,6.85207857 22.224983,6.86947531 22.1952075,6.88711036 C22.143363,6.91761423 22.0919857,6.94823726 22.0410754,6.9810051 C22.0095484,7.0006658 21.9781382,7.0213989 21.9469615,7.042132 C21.8988536,7.07430405 21.8507458,7.10659527 21.8034553,7.13983972 C21.7702935,7.16331341 21.7374821,7.18797865 21.7047874,7.21252473 C21.6606496,7.24469679 21.6165118,7.27746462 21.5734249,7.31130486 C21.5383949,7.3391873 21.5040655,7.36754637 21.4696194,7.3960246 C21.4296852,7.42867328 21.3892839,7.46156027 21.3501671,7.49587713 C21.3135023,7.52769171 21.2782388,7.56034039 21.2423914,7.59310822 C21.2067776,7.62587606 21.1706967,7.65804811 21.1355499,7.6920075 C21.0970169,7.72858832 21.0598851,7.76731394 21.022403,7.80556294 C20.9916934,7.83666259 20.9603999,7.86728562 20.9305077,7.89898105 C20.8874208,7.94485602 20.8460853,7.99180339 20.8046332,8.03875076 C20.7816301,8.06496502 20.7578097,8.09010689 20.7352738,8.11632116 C20.6719862,8.19103182 20.6100999,8.26705319 20.5507824,8.34462359 C20.5261447,8.38382583 20.4929829,8.4286284 20.4509469,8.47831635 C20.3230874,8.65526265 20.2063208,8.83876251 20.1006469,9.02881595 C19.8449279,9.55262466 19.6509785,10.242894 19.5175142,10.828187 C18.9468755,13.8623693 17.0888842,24.4439963 17.0888842,24.4439963 C17.0275817,24.7710789 16.8461263,25.0414433 16.6031349,25.2251815 L16.6122427,25.231735 L15.2457223,26.3314235 C15.2212013,26.350131 15.1986654,26.3657404 15.1750785,26.3828988 L15.1754288,26.3812306 C14.029831,27.2080524 14.2688524,26.1105087 14.2688524,26.1105087 L15.2214349,20.4602619 L16.8330484,10.9008721 C17.1251987,9.2772557 17.0691506,8.57018544 17.0122853,8.29541226 C16.9610247,8.13812666 16.8976204,7.986918 16.8249915,7.84107136 C16.779219,7.74932142 16.7292429,7.66031207 16.6750631,7.5740433 C16.6722607,7.56963454 16.6700422,7.56474915 16.6672398,7.56034039 C16.6109582,7.47133104 16.5496557,7.38613467 16.4825149,7.30427467 C16.4131555,7.2201507 16.3390087,7.14091212 16.2614756,7.06560568 C16.2339187,7.03891479 16.2036761,7.01484533 16.1750683,6.98970347 C16.1239245,6.9438285 16.0723136,6.89795353 16.0180171,6.85589155 C15.9801847,6.8269367 15.9407176,6.80024581 15.9013672,6.77295914 C15.8530258,6.73899975 15.8044508,6.7057553 15.7542412,6.67513227 C15.7085854,6.64724982 15.6618787,6.62163133 15.614705,6.59601284 C15.5679983,6.57087098 15.5205911,6.54632489 15.4723664,6.52332783 C15.4197047,6.49818597 15.3662255,6.47471228 15.311929,6.45290678 C15.2668571,6.43431848 15.2212013,6.41739836 15.1750785,6.40155065 C15.1154107,6.38022177 15.0552759,6.35948866 14.9933896,6.34149615 C14.9517039,6.32946141 14.908617,6.31957149 14.8661139,6.30872831 C14.7981557,6.29228482 14.730431,6.2753647 14.6604878,6.26285335 C14.6258081,6.25629978 14.5897272,6.25189102 14.5543469,6.24700563 C14.4754126,6.23449427 14.3968286,6.22245954 14.3156758,6.2153102 C14.2040469,6.20553943 14.0914838,6.19898586 13.9761183,6.19898586 C13.8611032,6.19898586 13.7459712,6.20768423 13.6311896,6.217455 C13.5000606,6.22841733 13.3695155,6.24640985 13.2392039,6.26928776 C13.231147,6.27107509 13.2232068,6.27214749 13.2151499,6.2732199 C13.0918443,6.29621696 12.9694729,6.32505265 12.8476852,6.35782048 C12.8325056,6.36222925 12.8169756,6.36544645 12.8016792,6.36985522 C12.6861969,6.40262305 12.5716488,6.44027627 12.4579181,6.48186163 C12.4370169,6.4894876 12.4155318,6.49651779 12.3947473,6.50473953 C12.2869717,6.54572911 12.1804805,6.5910083 12.0750402,6.63962385 C12.0485341,6.65165858 12.0220281,6.66369331 11.9957556,6.67620467 C11.8962704,6.72374782 11.7978361,6.77569973 11.7006862,6.82967728 C11.6699766,6.84719318 11.6387999,6.86470908 11.6083238,6.88258244 C11.5168955,6.93560675 11.4269852,6.99244405 11.3383593,7.05142615 C11.3035628,7.07430405 11.2689999,7.09777774 11.2345537,7.1218472 C11.1516494,7.1797569 11.070263,7.23921562 10.9902778,7.30153408 C10.9522119,7.33156134 10.9147298,7.36158859 10.8772477,7.39209246 C10.8032176,7.45345768 10.7302384,7.51553783 10.6590108,7.58000109 C10.6186095,7.61670106 10.5792591,7.65435428 10.5399088,7.6920075 C10.4742859,7.75480259 10.4097139,7.81819345 10.3472438,7.88420574 C10.3055581,7.9279359 10.2653903,7.97321509 10.2249891,8.01861343 C10.1680069,8.08248092 10.1114919,8.14634841 10.0574289,8.2123607 C10.0155097,8.26431261 9.97592576,8.31721776 9.93575803,8.37024207 C9.88729986,8.43363294 9.83860816,8.49750042 9.79283562,8.56303609 C9.75196729,8.62261397 9.71401812,8.68314509 9.67536835,8.74379537 C9.63496709,8.80718624 9.59374845,8.86986217 9.55614958,8.93432543 C9.51703275,9.00152928 9.48200275,9.07028215 9.44615538,9.13915418 C9.41369425,9.20028108 9.38006545,9.26093136 9.34993964,9.32372645 C9.31385874,9.40022444 9.28233174,9.47827146 9.24998738,9.55631849 C9.22581668,9.61375156 9.19966094,9.6704697 9.17794234,9.72897518 C9.14431354,9.81905693 9.11640631,9.91080687 9.0883823,10.0030334 C9.0733194,10.0511723 9.0554541,10.0985963 9.04237624,10.1472119 C9.0036097,10.2892456 8.97091503,10.4322325 8.94604373,10.5770067 L6.35452427,24.4531713 C6.29509003,24.7771558 6.11958973,25.0471628 5.88080189,25.231735 L5.88150249,25.231735 L4.51521568,26.3314235 C4.49022762,26.3506076 4.46722458,26.3663361 4.44352095,26.3834946 L4.44375448,26.3818264 C3.29955789,27.2075758 3.53799542,26.1105087 3.53799542,26.1105087 L7.13581005,5.84997865 C7.17994785,5.59832169 7.29531332,5.37871762 7.45528366,5.20558431 C7.50642746,5.14981941 7.5620084,5.09905906 7.62179293,5.05377987 L7.61688873,5.04996689 L9.0011576,3.97410955 C9.0799751,3.91679563 9.15061894,3.86984826 9.21787654,3.82838206 C9.23574184,3.81682395 9.25290654,3.8064574 9.26995448,3.79668663 C9.32705338,3.76272724 9.38029898,3.73389155 9.42899068,3.71089448 C9.43506255,3.7081539 9.44230208,3.70374514 9.44849071,3.70112371 C9.50173632,3.67705425 9.54891005,3.66061075 9.59246402,3.6480994 C9.60390715,3.64488219 9.61441615,3.64261824 9.62527545,3.63999681 C9.66018869,3.63177506 9.69253305,3.6273663 9.72149119,3.6262939 C9.72569479,3.6262939 9.73129959,3.62414909 9.73561996,3.62414909 C9.73748822,3.62414909 9.73853912,3.62462572 9.74040739,3.62462572 C9.76959906,3.62522149 9.79575479,3.62903448 9.81887459,3.63606467 C9.82412909,3.63773285 9.82821592,3.64047343 9.83323689,3.64214161 C9.85040159,3.64869518 9.86651539,3.65679777 9.88029386,3.66609192 C9.88624896,3.67050068 9.89185376,3.67538607 9.89722503,3.68027145 C9.90843463,3.69004223 9.91859333,3.70052793 9.92770113,3.71256266 C9.93178796,3.71792467 9.93622509,3.72352499 9.94007839,3.72900616 C9.94941973,3.7442581 9.95759339,3.76010581 9.96436586,3.77690677 C9.96600059,3.78083891 9.96786886,3.7835795 9.96927006,3.78739248 C9.97674313,3.80812558 9.98258146,3.82993109 9.98678506,3.85233237 C9.98818626,3.85936256 9.98900363,3.86603528 9.99005453,3.87258885 C9.99250663,3.88891319 9.99460843,3.90535668 9.99589286,3.92168102 C9.99671023,3.93049855 9.99729406,3.93860114 9.9975276,3.94682288 C9.99811143,3.9626706 9.99834496,3.97744591 9.99834496,3.99269785 C9.99811143,4.00032382 9.99834496,4.00747316 9.99811143,4.01450335 C9.99729406,4.03583224 9.99624316,4.05656534 9.99425813,4.07622604 L10.0072192,4.05167995 C10.0014977,4.11340263 10.0004468,4.17178895 10.0045336,4.22636229 C10.0267193,4.54379323 10.2384172,4.71359018 10.9969335,4.31989956 L10.9969335,4.32144859 C11.5494734,4.06645526 12.131205,3.87914241 12.7295174,3.76773178 C12.7385084,3.7660636 12.7473827,3.7639188 12.7566072,3.76225062 C12.940865,3.72900616 13.1266408,3.70326852 13.3135842,3.68479937 C13.3475634,3.68134386 13.3813089,3.67872243 13.415288,3.67586269 C13.6012973,3.66013413 13.7880072,3.64976758 13.9761183,3.64976758 C14.1738043,3.64976758 14.3704394,3.65846595 14.5655565,3.67586269 C14.6581525,3.68420359 14.7485299,3.70112371 14.8403085,3.71315844 C14.9417787,3.7267422 15.0442998,3.73603635 15.1443689,3.75402887 C15.2711775,3.77690677 15.3948334,3.80979376 15.5191899,3.83982101 C15.5818936,3.85507295 15.6463488,3.86603528 15.7081183,3.88355118 C15.8633013,3.92597063 16.0145141,3.97851832 16.1643257,4.03309165 C16.1929336,4.0434582 16.2229426,4.05108417 16.2513169,4.0620465 C16.4220298,4.12698639 16.5884223,4.20086296 16.7508447,4.28045901 C16.7567998,4.28379537 16.7633387,4.28594017 16.7694106,4.28868075 C16.9325336,4.37006414 17.0904022,4.45955011 17.2432498,4.55523218 C17.248154,4.55844939 17.2530582,4.56059419 17.2576121,4.56345393 C17.3991333,4.6529399 17.5339988,4.750171 17.6655948,4.85228749 C17.6803074,4.86372644 17.6967715,4.87302059 17.7114841,4.88445954 C17.8321041,4.98002246 17.9456013,5.0844029 18.0566464,5.19021322 C18.0785985,5.21106547 18.1032363,5.22917715 18.1244878,5.25038687 L18.1253052,5.25145927 C18.1264728,5.25253168 18.1275237,5.25312746 18.1286914,5.25419986 L18.127874,5.25205505 C18.127874,5.25205505 18.1310267,5.25634466 18.1345297,5.26015764 C18.1544968,5.2799375 18.1738801,5.30055145 18.1936137,5.32080793 L18.1938472,5.32080793 C18.2159161,5.34368583 18.2383353,5.36608711 18.2600539,5.38908417 C18.3938685,5.51193376 18.6220306,5.67958591 18.9048395,5.73916379 C18.9008694,5.73916379 18.8963155,5.73856801 18.8923454,5.73856801 C19.0001211,5.76263747 19.1165374,5.76978682 19.2386754,5.7528667 C19.2305017,5.75334333 19.2224448,5.7539391 19.2106514,5.7539391 L19.208316,5.7539391 C19.2255975,5.75227092 19.2425287,5.75107937 19.2596934,5.74893456 C19.4424332,5.71997971 19.6380174,5.63645153 19.840374,5.46665457 C19.9142873,5.40433611 19.9746557,5.35905692 20.029536,5.32080793 C20.3222701,5.09751004 20.612552,4.89875823 20.880765,4.75886937 C21.9028237,4.13032275 22.973107,3.73984933 24.1560701,3.66549614 C24.2925704,3.65572537 24.4304718,3.64976758 24.570475,3.64976758 C24.7636071,3.64976758 24.9540536,3.65953835 25.1420479,3.67657763 C25.1589791,3.67812665 25.176027,3.67872243 25.1929582,3.68027145 C25.3727788,3.69778735 25.54933,3.72400162 25.7235459,3.75617367 C25.7456148,3.76058244 25.7681508,3.76439542 25.7903364,3.76880418 C25.9621002,3.80264442 26.1304778,3.8447064 26.2958194,3.89272617 C26.3170709,3.89927974 26.3380889,3.90535668 26.3589901,3.91179109 C26.5259665,3.9626706 26.689323,4.02046114 26.8490598,4.08611596 C26.8643563,4.09266953 26.8795359,4.0992231 26.8943653,4.10518089 C27.0594734,4.17452954 27.2206114,4.25102753 27.3768452,4.33562812 C27.3816326,4.33789208 27.3864201,4.34110929 27.3913243,4.34325409 C27.884897,4.61195032 28.3336313,4.95607215 28.7266679,5.37001925 C28.7274853,5.37049588 28.7280691,5.37109166 28.7288865,5.37216406 C28.81868,5.46665457 28.9067221,5.56388567 28.9905606,5.66600216 C29.0585188,5.74845794 29.1237913,5.83305853 29.1867286,5.91885067 C29.1870789,5.9193273 29.1873124,5.9193273 29.1875459,5.91992307 C29.2984743,6.07232329 29.400178,6.23008551 29.4948758,6.39166072 C29.5023489,6.40429123 29.5107561,6.41680258 29.5183459,6.42990972 C29.6073221,6.58505051 29.6878911,6.7450767 29.7616877,6.90772431 C29.7713793,6.92917234 29.781538,6.94930966 29.7906458,6.97051939 C29.8607058,7.13006895 29.9225921,7.29331234 29.9778228,7.45929631 C29.9864635,7.48562973 29.9955713,7.51112906 30.0038617,7.53746248 C30.0560564,7.70237405 30.1010116,7.8700262 30.1387272,8.04041894 C30.1451494,8.06877801 30.1509877,8.09725623 30.1569428,8.1256153 C30.1925567,8.29708044 30.2208142,8.47021376 30.2418322,8.64656428 C30.2449849,8.67444672 30.2476705,8.70280579 30.2505897,8.73116486 C30.2689221,8.90977935 30.2810658,9.09053863 30.2842185,9.2740385 C30.2848023,9.2979888 30.2842185,9.32265405 30.284452,9.34720013 C30.28597,9.53558538 30.280482,9.7262346 30.2653023,9.91843283 L30.2653023,9.91843283 Z M24.1766211,25.884232 L22.1395097,23.8285568 L22.1516535,23.8177136 C22.0174886,23.6584024 22.0922192,23.3142806 22.0922192,23.3142806 L24.986865,7.31904998 C25.0089339,7.19012345 25.0244639,7.06238848 25.0349729,6.93501097 C25.6573392,7.02902487 26.1868761,7.30916005 26.5524725,7.75373018 C26.9825241,8.27682396 27.1651472,8.9834176 27.0815423,9.76281541 L24.9991255,21.1713834 L25.0355567,21.1373049 L24.1766211,25.884232 Z M13.6151926,25.8655245 L11.6016681,23.8342763 C11.4483535,23.6828293 11.5289225,23.3142806 11.5289225,23.3142806 L14.0931185,8.1048822 C14.1778911,7.6330254 14.233005,7.24040718 14.2675679,6.91165645 C14.9655991,6.97492815 15.5585402,7.26817047 15.9578823,7.75373018 C16.1210053,7.95188621 16.2523678,8.19436818 16.3487003,8.47509914 C16.3803441,8.66729738 16.4276346,9.28333265 16.1593048,10.7748053 L13.6151926,25.8655245 Z M2.88515297,25.8667161 L0.868709354,23.8323698 C0.867541687,23.8312974 0.866841087,23.830225 0.866023721,23.8296292 L0.865206354,23.8285568 L0.865439887,23.8285568 C0.719364783,23.6746076 0.798065519,23.3142806 0.798065519,23.3142806 L4.37976635,3.14347477 L6.56131804,5.37001925 C6.5179976,5.48464709 6.48320114,5.60368369 6.4615993,5.72653328 L3.98381057,19.6805066 L3.70123523,21.1930698 L3.7178161,21.177937 L2.88515297,25.8667161 Z M4.88174626,2.25779002 L4.87695883,2.25385788 L6.26111093,1.1781197 C6.57871627,0.946600063 6.83782151,0.845555981 7.04192965,0.823750477 L9.21647534,3.04243068 C9.02999897,3.12166926 8.82764233,3.24130164 8.60286649,3.40514081 C8.59737846,3.40943042 8.59177366,3.41383918 8.58605209,3.41824794 L7.20189999,4.49398612 C7.17410952,4.515315 7.14807055,4.53878869 7.12401662,4.56452633 C7.05395662,4.62398505 6.99242058,4.6911889 6.93193545,4.75946515 L4.67682075,2.45821 C4.73894062,2.38445259 4.80573116,2.31558056 4.88174626,2.25779002 L4.88174626,2.25779002 Z M11.2361884,0.853777728 C12.8167421,0.853777728 14.3391459,1.41893349 15.3846747,2.45427786 L15.4783215,2.54984078 C15.4922168,2.5646161 15.5064623,2.57831901 15.5200072,2.59297517 C15.5205911,2.59357094 15.5212917,2.59416672 15.5218755,2.59464335 L16.2366043,3.32375743 C15.5261959,3.08449267 14.7624251,2.95068075 13.9761183,2.95068075 C12.882832,2.95068075 11.8001714,3.19101791 10.7577954,3.66454289 C10.7336247,3.67371789 10.7095707,3.68479937 10.6863342,3.69671495 C10.676409,3.70160034 10.6670677,3.70660488 10.6579599,3.71149026 C10.6124209,3.48485601 10.5145704,3.32864281 10.4240762,3.22712211 C10.3555342,3.15062411 8.56783649,1.3922426 8.56783649,1.3922426 C9.41124215,1.04764415 10.3132647,0.853777728 11.2361884,0.853777728 L11.2361884,0.853777728 Z M17.1004441,2.67066472 C17.1742407,2.60834626 17.234609,2.56306707 17.2896061,2.52481807 C17.5822234,2.30152018 17.8725053,2.10264922 18.1406016,1.96287952 C19.2810617,1.26164789 20.4803721,0.853777728 21.8305451,0.853777728 C23.3680119,0.853777728 24.7467927,1.38783383 25.7828634,2.36967728 L25.7836807,2.36920065 L25.7978095,2.38338019 C25.8866689,2.46857656 25.9734266,2.55591773 26.0569148,2.64707188 L26.6751943,3.27740584 C26.016747,3.06221054 25.3098416,2.95068075 24.570475,2.95068075 C23.1801343,2.95068075 21.8639404,3.34234573 20.5469291,4.14771949 C20.2769646,4.29082556 19.9767575,4.48850496 19.6305443,4.75231581 C19.5538286,4.80641252 19.4814333,4.86205826 19.4041337,4.92759393 C19.2419448,5.06355064 19.141292,5.06355064 19.1084805,5.06355064 C18.9592527,5.06355064 18.8060549,4.94725463 18.7337763,4.88338714 C18.7007313,4.8484745 18.6673361,4.81403849 18.6332402,4.78019825 C18.6209797,4.76649534 18.6076683,4.75398399 18.5945904,4.74194925 L16.7677759,2.87763827 C16.8761353,2.83057175 16.9869469,2.76563186 17.1004441,2.67066472 L17.1004441,2.67066472 Z M29.5151932,5.21654664 C29.422714,5.1040636 29.3255641,4.9963468 29.2263125,4.89160889 C29.2216418,4.88660434 29.2184891,4.88064656 29.2138184,4.87635695 L26.5493198,2.16103554 C26.4638466,2.06821321 26.3742866,1.97705905 26.275502,1.88209192 L26.2700139,1.87708737 C26.2537834,1.86016726 26.2363851,1.84384292 26.2185198,1.82847183 C25.0471166,0.733549568 23.5306679,0.154690898 21.8305451,0.154690898 C20.4402044,0.154690898 19.1240105,0.546236717 17.8069992,1.35172964 C17.5370347,1.4948357 17.2368276,1.69311088 16.8904976,1.95632595 C16.8137819,2.01030351 16.7416201,2.06606841 16.6642038,2.13160407 C16.5020149,2.26756079 16.4014788,2.26756079 16.3684339,2.26756079 C16.2189725,2.26756079 16.066125,2.15126477 15.9938464,2.08739729 C15.9606847,2.05236549 15.9272894,2.01792948 15.8933103,1.9842084 C15.880933,1.97050549 15.8676216,1.95787498 15.8545438,1.94584025 L15.8236006,1.91426397 C15.8204479,1.91092761 15.8160107,1.90997436 15.812858,1.906638 C14.6604878,0.793127447 12.9981975,0.154690898 11.2361884,0.154690898 C10.2127286,0.154690898 9.19697531,0.365477433 8.21531791,0.782165118 C8.16966215,0.685529798 8.10952731,0.593779865 8.03596431,0.51132408 C7.81060464,0.259071342 7.48797833,0.119778261 7.12728609,0.119778261 C6.73424948,0.119778261 6.30875173,0.284213206 5.86305335,0.609150957 C5.85733179,0.613440565 5.85172699,0.617849328 5.84612219,0.622138935 L4.46197008,1.69799627 C4.43417962,1.71932515 4.40814065,1.74279884 4.38408671,1.76841732 C4.03542144,2.06606841 3.80165456,2.47513012 3.72155263,2.93054343 L0.125839801,23.1780855 C0.0876571001,23.3645643 0.0129264315,23.914349 0.356220441,24.2966006 C0.364043807,24.305299 0.372100708,24.3141165 0.380157608,24.3223383 L3.01382984,26.97975 C3.02830891,27.0015555 3.03975204,27.0244334 3.05633291,27.0456431 C3.15278218,27.1686119 3.27503688,27.2576212 3.41282155,27.3160075 C3.44890246,27.3325702 3.48638456,27.3449624 3.52456726,27.3549715 C3.60642069,27.3771344 3.69107653,27.3925055 3.78075333,27.3925055 C4.11295451,27.3925055 4.46512278,27.2385563 4.92238106,26.8933621 C4.92833616,26.8890725 4.93394096,26.8847829 4.93954576,26.8804932 L6.30583256,25.7803281 C6.30898526,25.7777067 6.31248826,25.774847 6.31599126,25.7722255 C6.68894401,25.4751702 6.94127678,25.0540738 7.02780088,24.5823361 L9.61897005,10.708078 C9.94650056,8.81099922 11.7386354,7.13983972 13.5772434,6.9230954 C13.5441984,7.21359714 13.4944558,7.56034039 13.4192581,7.97869626 L10.8562297,23.1820177 C10.8158284,23.3798162 10.7408642,23.9576025 11.1258439,24.3372328 L13.7428185,26.977486 C13.7577647,26.9998873 13.7697916,27.0238376 13.7869563,27.0456431 C13.8838727,27.1690885 14.0069447,27.2580978 14.14543,27.3166033 C14.178942,27.3319744 14.2137385,27.3426984 14.249002,27.3527075 C14.3324902,27.376062 14.4192478,27.3925055 14.51126,27.3925055 C14.8435779,27.3925055 15.1957462,27.2385563 15.653238,26.8933621 C15.6588428,26.8890725 15.6645644,26.8847829 15.6699356,26.8804932 L17.0363392,25.7803281 C17.0705518,25.7530415 17.1020788,25.7224184 17.1301029,25.689174 C17.4579837,25.3991489 17.6805409,25.0087946 17.7618105,24.5759017 C17.7816609,24.4622271 19.6215533,13.9858146 20.1878716,10.9734379 C20.3420036,10.2990163 20.5207734,9.74148653 20.705615,9.35709006 C20.7914385,9.20409407 20.8866034,9.05455359 20.9885407,8.9120433 C21.032912,8.85842321 21.0724959,8.8053989 21.1063583,8.75416193 C21.9427579,7.67568316 23.1656552,6.9831499 24.3495525,6.9055795 C24.3406782,7.00221482 24.3292351,7.09944592 24.3123039,7.19774942 L21.4203438,23.1776089 C21.3912689,23.3202384 21.3374395,23.6937917 21.4845655,24.0333856 C21.5173769,24.1432472 21.5766944,24.2436955 21.6578472,24.3255555 L24.3440645,27.0359915 C24.3466333,27.0392087 24.3479178,27.0424259 24.3503699,27.0456431 C24.4033819,27.1134427 24.4658521,27.1680161 24.5325259,27.2167508 C24.6266398,27.2959894 24.7372179,27.3475838 24.8546851,27.366887 C24.9254457,27.3833305 24.9986584,27.3925055 25.0746735,27.3925055 C25.4069915,27.3925055 25.759043,27.2385563 26.2166516,26.8933621 C26.2222564,26.8890725 26.2277444,26.8847829 26.2332324,26.8804932 L27.5997528,25.7803281 C27.6340822,25.7530415 27.6652589,25.7224184 27.6935164,25.689174 C28.0213972,25.3991489 28.2438377,25.0087946 28.3251073,24.5759017 L30.8568422,10.7042651 C31.2118129,8.64716006 30.7351714,6.70027413 29.5151932,5.21654664 L29.5151932,5.21654664 Z" id="Fill-17" fill="#00FF9B" sketch:type="MSShapeGroup"></path>
            </g>
        </g>
    </g>
</svg>