<?xml version="1.0" encoding="UTF-8" standalone="no"?>
<svg width="53px" height="46px" viewBox="0 0 53 46" version="1.1" xmlns="http://www.w3.org/2000/svg" xmlns:xlink="http://www.w3.org/1999/xlink" xmlns:sketch="http://www.bohemiancoding.com/sketch/ns">
    <!-- Generator: Sketch 3.3.3 (12072) - http://www.bohemiancoding.com/sketch -->
    <title>myelin_monogram</title>
    <desc>Created with Sketch.</desc>
    <defs></defs>
    <g id="Page-1" stroke="none" stroke-width="1" fill="none" fill-rule="evenodd" sketch:type="MSPage">
        <g id="myelin_monogram" sketch:type="MSLayerGroup">
            <path d="M1.06828097,39.0030719 C1.04071552,39.1273162 0.920665998,39.7595237 1.24366114,40.1150781 L5.10941564,43.9384856 L6.7841165,34.6978682 L6.76514029,34.7146472 L7.08713668,33.0261636 L11.3258237,9.63388448 C11.3573842,9.45850431 11.4097186,9.2753339 11.4814287,9.089367 L11.5495433,8.91298808 L7.2920798,4.65492532 L1.06828097,39.0030719 Z" id="Fill-1" fill="#FFFFFF" sketch:type="MSShapeGroup"></path>
            <path d="M28.2276982,14.0941538 C28.0513193,13.590585 27.8088232,13.1531333 27.5074011,12.7941832 C26.7827094,11.9302661 25.6856845,11.3927399 24.4192719,11.2798813 L24.1352279,11.2547129 L24.1048659,11.5381576 C24.0415453,12.127419 23.9422697,12.7933842 23.8090367,13.5200734 L19.4253315,39.0025326 C19.3963678,39.1321701 19.2705255,39.7971366 19.6290761,40.1443014 L23.4692626,43.9407428 L27.9152898,18.0975358 C28.3813057,15.5591175 28.2980101,14.4858628 28.2400827,14.1420937 L28.2276982,14.0941538 Z" id="Fill-3" fill="#FFFFFF" sketch:type="MSShapeGroup"></path>
            <path d="M45.6314836,12.7942232 C44.9657181,12.0006179 44.0059211,11.4914561 42.8557628,11.3212694 L42.5495466,11.276126 L42.5237789,11.5841399 C42.5058014,11.8000693 42.479834,12.0022159 42.4452773,12.199169 L37.4956813,39.002972 C37.4747076,39.0978531 37.397804,39.5011476 37.5168548,39.8435184 L37.4345579,39.9160276 L41.5306238,43.966151 L43.2566603,34.6176687 L43.1965356,34.6729994 L46.602866,16.3803282 C46.754476,14.9952643 46.4095084,13.7216607 45.6314836,12.7942232" id="Fill-5" fill="#FFFFFF" sketch:type="MSShapeGroup"></path>
            <path d="M12.0026354,1.07483276 C11.5599902,1.12117467 11.0640119,1.33870201 10.5212922,1.72661579 L8.15346011,3.53015515 L7.86222515,3.76466121 L7.88599536,3.78303818 C7.84644493,3.8241866 7.80689451,3.86773202 7.76674483,3.91427368 L7.59136466,4.11821805 L11.8554199,8.3822733 L12.0601633,8.15595698 C12.1516486,8.05468392 12.2501252,7.94821737 12.3589887,7.85753104 L12.3833582,7.83495933 C12.4135204,7.80339889 12.4460796,7.77463494 12.482434,7.74726924 L14.8508653,5.94353013 L14.8720388,5.92715066 C15.2401773,5.6640804 15.5647705,5.47571651 15.8643949,5.35107274 L16.2648929,5.18448155 L12.1402629,1.06045079 L12.0026354,1.07483276 Z" id="Fill-7" fill="#FFFFFF" sketch:type="MSShapeGroup"></path>
            <path d="M19.2078641,1.12359164 C17.637832,1.12359164 16.0658024,1.43420231 14.5353208,2.04703416 L14.1186431,2.2138251 L14.441838,2.52543451 C15.6587127,3.69856406 17.5055977,5.48252797 17.6038746,5.58759627 C17.7684682,5.76896893 17.8799285,5.99608425 17.9344602,6.26275 L18.0117633,6.64107579 L18.3978793,6.43892917 C18.428441,6.42354845 18.4600015,6.40916648 18.5075419,6.39098926 C20.2541526,5.61356372 22.0666807,5.21945771 23.894989,5.21945771 C25.1721881,5.21945771 26.4427955,5.42480033 27.6710559,5.83009232 L28.8312018,6.21301235 L26.5067154,3.88872571 C24.6961848,2.1313285 22.0359192,1.12359164 19.2078641,1.12359164" id="Fill-9" fill="#FFFFFF" sketch:type="MSShapeGroup"></path>
            <path d="M44.7733792,4.22194803 C44.6359514,4.07493231 44.4867384,3.92611884 44.3215455,3.77091338 L44.1275886,3.58274923 L44.1199981,3.58794272 C42.297882,1.97476475 39.9562172,1.12363159 37.3313074,1.12363159 C35.1060965,1.12363159 32.992346,1.74545218 30.8869849,3.0146613 C30.455326,3.23538463 29.9655399,3.55198779 29.3994495,3.97525724 C29.2829955,4.05495734 29.1733329,4.13765369 29.0556804,4.23513151 C28.8982777,4.36416976 28.735282,4.46364508 28.5569056,4.53935019 L28.1614013,4.70773912 L31.6022884,8.14842642 C31.6174693,8.16200939 31.6332495,8.17599187 31.6596165,8.20415656 C31.7155464,8.25868821 31.7706773,8.31421861 31.8254087,8.3709475 L31.8437857,8.38832572 C32.0045841,8.52775096 32.3263807,8.76145802 32.6749438,8.76145802 C32.7572407,8.76145802 33.0071275,8.76145802 33.3662773,8.46642782 C33.4883243,8.36495501 33.6047783,8.27646593 33.7414071,8.1817846 C34.318284,7.75112441 34.8180576,7.42792952 35.2846727,7.18483422 C37.4913068,5.86229196 39.6941457,5.21949766 42.0184323,5.21949766 C43.2428975,5.21949766 44.4246163,5.39907257 45.5304302,5.75322866 L46.6725986,6.11877047 L44.7733792,4.22194803 Z" id="Fill-11" fill="#FFFFFF" sketch:type="MSShapeGroup"></path>
            <path d="M49.5689282,9.49190245 C47.7402204,7.31223454 45.0551859,6.11193904 42.0076059,6.11193904 C39.6977012,6.11193904 37.6462726,6.795682 35.6955177,7.97120855 C35.2366928,8.20571461 34.7401153,8.53889699 34.239343,8.91342753 C34.1454606,8.97734741 34.0421901,9.05325227 33.9157486,9.15772132 C32.7246415,10.1390912 31.6609748,9.43157806 31.2125369,9.02768432 C31.1418255,8.95457596 31.0705149,8.88206684 30.997806,8.81175497 C30.9916138,8.80516324 30.9862206,8.79797225 30.9862206,8.79797225 L30.9876188,8.80156774 C29.1992604,7.06134901 26.5911296,6.11193904 23.8841226,6.11193904 C22.110346,6.11193904 20.3797152,6.51842952 18.7877107,7.23792768 L18.7877107,7.23513118 C17.2662178,8.00976023 17.0295145,7.48521771 17.0944331,6.78569452 L17.0724607,6.8270427 C17.1156066,6.36841756 17.029115,5.47293999 15.3733903,6.65585727 L13.0055583,8.45919688 L13.013748,8.46558887 C12.5932751,8.77879629 12.2822649,9.24281466 12.1825898,9.80031587 L6.02790437,43.7643439 C6.02790437,43.7643439 5.59564618,45.6915283 7.69960898,44.1348795 L10.0366796,42.2913902 L10.0358806,42.2913902 C10.4439691,41.981978 10.7443925,41.5297449 10.8460651,40.9868254 L15.2791085,17.7245833 C15.9804295,13.7459702 19.9214896,10.3853825 23.8841226,10.3853825 C25.6459143,10.3853825 27.169205,11.0435575 28.1717483,12.23826 C28.5814348,12.7262484 28.8750668,13.2911403 29.0780124,13.8997774 C29.1754902,14.3604001 29.2711703,15.5459141 28.7713967,18.2677025 L24.3846952,43.7643439 C24.3846952,43.7643439 23.9522373,45.6915283 26.0560003,44.1348795 L28.3934704,42.2913902 L28.3780897,42.280404 C28.7937687,41.9727895 29.1039798,41.5191581 29.2088484,40.9708454 C29.2088484,40.9708454 32.3874642,23.2320799 33.3636406,18.1458552 C33.5917547,17.1644853 33.9237386,16.007136 34.3609905,15.1294361 C34.5419636,14.8106357 34.7417133,14.5030213 34.9602394,14.2065929 C35.0321492,14.1232973 35.0890779,14.0481914 35.1310253,13.982274 C36.8019309,11.8483488 39.3964788,10.3853825 42.0076059,10.3853825 C43.7699968,10.3853825 45.2932875,11.0435575 46.2956311,12.23826 C47.3299347,13.4715142 47.7228422,15.1558031 47.4072378,16.950154 L42.4554445,43.7643439 C42.4554445,43.7643439 42.0225871,45.6915283 44.1263502,44.1348795 L46.4642198,42.2913902 L46.4486393,42.280404 C46.8643183,41.9727895 47.1745294,41.5191581 47.2791983,40.9708454 L51.6095704,17.7237843 C52.1540879,14.6320596 51.4291965,11.7091233 49.5689282,9.49190245" id="Fill-13" fill="#FFFFFF" sketch:type="MSShapeGroup"></path>
            <path d="M26.6415064,3.60544079 L31.5237868,8.48772113" id="Fill-15" fill="#FFFFFF" sketch:type="MSShapeGroup"></path>
            <path d="M51.7605212,16.6096408 C51.7585237,16.6362075 51.7551279,16.6635732 51.7527309,16.6903396 C51.7233677,17.0289152 51.6810208,17.3694883 51.6204967,17.7126582 L47.2903243,40.9599191 C47.1856555,41.5082318 46.8750448,41.9614637 46.4593659,42.2694776 L46.4751461,42.2804639 L44.1374762,44.1239532 C44.0811468,44.1661003 44.0288124,44.2020553 43.9762783,44.2392087 L43.9770773,44.2346145 C42.0642749,45.5667447 42.4661711,43.7536174 42.4661711,43.7536174 L44.2463398,34.1125019 L44.246939,34.1125019 L44.5553524,32.4397986 L47.4179643,16.9392277 C47.6614591,15.5559615 47.4790877,14.2404105 46.9113993,13.1435853 C46.8275044,12.9815883 46.7360191,12.8241856 46.6361443,12.6721762 C46.5340722,12.5185687 46.4256082,12.369156 46.3065574,12.2273337 C46.1901034,12.089107 46.0656594,11.95907 45.9362216,11.8356247 C45.8886812,11.7896823 45.8375453,11.7485339 45.7880074,11.705388 C45.7043123,11.6322796 45.6194187,11.5599702 45.5311294,11.4912564 C45.4648125,11.4409195 45.3960986,11.3933791 45.3275845,11.3466376 C45.2520791,11.294503 45.175575,11.2441661 45.0972732,11.1964259 C45.0151761,11.146089 44.9320802,11.0975499 44.8469869,11.0518072 C44.7810695,11.0170508 44.7133544,10.9840921 44.6454395,10.9519324 C44.5451652,10.903593 44.4444914,10.8550538 44.3406216,10.8129066 C44.2966767,10.7955284 44.2513335,10.7809467 44.2069891,10.7643675 C43.7663414,10.598775 43.2961308,10.482321 42.8001525,10.4237944 C42.5448725,10.3946309 42.2853977,10.3744562 42.0185322,10.3744562 C41.8850994,10.3744562 41.7512672,10.3806485 41.6176347,10.3882389 C41.4724167,10.3964287 41.327798,10.4100117 41.1831793,10.4265909 C41.1707948,10.4283886 41.1588098,10.4293874 41.1466251,10.4301864 C41.0115943,10.4467656 40.8775623,10.4677393 40.7435303,10.4915095 C40.7207589,10.4963035 40.6979874,10.4989002 40.6756155,10.5034945 C40.548375,10.5272647 40.4215339,10.5548301 40.2952922,10.5849923 C40.2663285,10.5921833 40.2373648,10.5977763 40.2092001,10.6049673 C40.0885513,10.6353292 39.9693008,10.6692867 39.8504498,10.7048421 C39.8148943,10.7148296 39.7797384,10.7250168 39.7445825,10.736003 C39.6309249,10.7717582 39.5184659,10.8101102 39.4062066,10.8504596 C39.3664564,10.8650413 39.3267062,10.8798228 39.2869561,10.8944045 C39.1794908,10.9345542 39.072425,10.9777001 38.9659584,11.0234428 C38.922413,11.0418197 38.8788676,11.0599969 38.8355219,11.0793726 C38.7344486,11.1241166 38.6337748,11.170858 38.5339,11.2193971 C38.4859601,11.2431673 38.4382199,11.2669375 38.3904797,11.2909075 C38.2957984,11.3392469 38.2015166,11.3887848 38.1080338,11.4409195 C38.0568979,11.4692839 38.0061615,11.4984474 37.9552253,11.5280103 C37.8665365,11.5791462 37.7786466,11.6304819 37.6915558,11.685413 C37.6376234,11.7183717 37.5838908,11.7531281 37.5305576,11.7878846 C37.4482608,11.841817 37.3659639,11.8959491 37.2850653,11.9516793 C37.2283364,11.9910299 37.1722068,12.0323781 37.1162769,12.0735265 C37.0407715,12.1274589 36.9652662,12.1823901 36.8915586,12.239119 C36.8316337,12.2858604 36.7729073,12.3334008 36.7139811,12.381141 C36.6456668,12.4358724 36.5765534,12.4910032 36.5096373,12.5485311 C36.4469159,12.6018643 36.3865915,12.6565957 36.3252684,12.7115268 C36.2643447,12.766458 36.2026221,12.8203904 36.1424975,12.877319 C36.0765801,12.9386422 36.0130597,13.0035608 35.9489401,13.0676804 C35.8964059,13.1198151 35.842873,13.1711507 35.7917371,13.2242841 C35.7180295,13.3011877 35.6473181,13.3798891 35.576407,13.4585904 C35.5370563,13.5025354 35.4963074,13.5446825 35.4577557,13.5886274 C35.3494915,13.7138705 35.2436241,13.8413107 35.1421513,13.9713477 C35.1000042,14.0370653 35.0432753,14.1121712 34.9713654,14.1954668 C34.7526396,14.492095 34.5528899,14.7997094 34.3721165,15.1183101 C33.9346649,15.9964094 33.6028807,17.153559 33.3745669,18.1347292 C32.3983905,23.2211536 29.2199744,40.9599191 29.2199744,40.9599191 C29.1151059,41.5082318 28.804695,41.9614637 28.389016,42.2694776 L28.4045965,42.2804639 L26.0669266,44.1239532 C26.0249792,44.1553139 25.9864275,44.1814811 25.9460781,44.210245 L25.9466773,44.2074485 C23.9869338,45.5935112 24.3958212,43.7536174 24.3958212,43.7536174 L26.0253787,34.2816899 L28.782323,18.2565764 C29.2820966,15.534788 29.1862168,14.3494738 29.0889387,13.8888511 C29.0012486,13.6251816 28.8927846,13.3716993 28.7685403,13.1272058 C28.6902384,12.9733986 28.6047456,12.8241856 28.5120618,12.6795669 C28.5072678,12.6721762 28.5034725,12.6639864 28.4986786,12.6565957 C28.4023992,12.5073827 28.2975307,12.3645617 28.1826746,12.2273337 C28.0640234,12.0863105 27.9371824,11.953477 27.8045486,11.8272352 C27.7574077,11.7824913 27.7056725,11.7421419 27.6567339,11.6999947 C27.5692435,11.6230911 27.4809542,11.5461875 27.3880706,11.4756759 C27.3233518,11.4271367 27.2558364,11.3823928 27.1885208,11.3366502 C27.1058244,11.2797215 27.0227286,11.2239914 26.9368362,11.1726557 C26.8587341,11.1259143 26.7788343,11.0829681 26.6981354,11.040022 C26.6182356,10.9978748 26.5371372,10.9567264 26.4546406,10.9181747 C26.3645536,10.8760275 26.2730682,10.8366769 26.1801846,10.8001227 C26.1030813,10.7689617 26.0249792,10.7405973 25.9460781,10.7140306 C25.844006,10.6782754 25.741135,10.643519 25.6352677,10.6133568 C25.5639571,10.5931821 25.4902494,10.5766028 25.4175406,10.5584256 C25.3012863,10.5308602 25.1854315,10.5024957 25.0657815,10.481522 C25.0064558,10.4705358 24.9447332,10.4631451 24.8842091,10.4549553 C24.7491783,10.4339816 24.6147468,10.4138069 24.4759208,10.4018219 C24.2849602,10.3854424 24.0924016,10.3744562 23.8950489,10.3744562 C23.6982956,10.3744562 23.5013424,10.3890379 23.3049885,10.4054174 C23.0806697,10.4237944 22.8573496,10.4539566 22.634429,10.4923085 C22.6206463,10.4953047 22.6070633,10.4971025 22.5932806,10.4989002 C22.382345,10.5374519 22.1730074,10.5857913 21.9646686,10.6407225 C21.9387011,10.6481132 21.9121344,10.6535064 21.8859672,10.6608972 C21.6884148,10.7158283 21.4924604,10.7789492 21.2979043,10.8486618 C21.2621491,10.8614458 21.2253952,10.873231 21.1898398,10.8870138 C21.0054709,10.9557276 20.8232992,11.0316325 20.6429253,11.1131303 C20.5975821,11.133305 20.552239,11.1534798 20.5072953,11.1744535 C20.3371086,11.2541536 20.1687197,11.3412444 20.002528,11.431731 C19.9499938,11.4610942 19.8966607,11.4904574 19.844526,11.5204198 C19.6881221,11.6093084 19.5343149,11.704589 19.3827049,11.803465 C19.3231795,11.841817 19.2640536,11.8811676 19.2051275,11.9215171 C19.0633052,12.0185954 18.9240798,12.1182704 18.7872513,12.2227395 C18.7221329,12.2730764 18.6580133,12.3234133 18.5938936,12.3745492 C18.4672524,12.4774203 18.3424088,12.5814898 18.2205616,12.6895544 C18.1514482,12.7510773 18.0841326,12.8141981 18.016817,12.877319 C17.9045577,12.9825871 17.7940961,13.0888539 17.6872301,13.1995152 C17.6159195,13.2728233 17.5472056,13.3487281 17.4780922,13.4248327 C17.3806144,13.5318985 17.2839356,13.6389643 17.1914515,13.7496256 C17.1197414,13.8367165 17.0520263,13.9254053 16.9833124,14.0142939 C16.9004163,14.1205607 16.8171207,14.2276265 16.7388189,14.3374888 C16.6689065,14.4373636 16.6039879,14.5388364 16.5378707,14.640509 C16.4687574,14.7467758 16.3982457,14.8518441 16.3339264,14.9599086 C16.2670102,15.0725674 16.2070854,15.1878229 16.1457622,15.3032782 C16.0902318,15.4057498 16.0327039,15.5074223 15.9811685,15.6126904 C15.9194459,15.7409297 15.8655135,15.8717657 15.8101828,16.0026017 C15.7688347,16.098881 15.7240908,16.1939618 15.6869373,16.2920389 C15.6294094,16.4430496 15.5816693,16.5968568 15.5337294,16.751463 C15.5079617,16.8321619 15.4774,16.9116622 15.455028,16.9931601 C15.3887111,17.2312616 15.3327812,17.4709612 15.2902346,17.713657 L10.8569914,40.9752998 C10.7553188,41.5184191 10.4550951,41.9710517 10.0466072,42.2804639 L10.0478057,42.2804639 L7.71053529,44.1239532 C7.66778887,44.1561129 7.62843819,44.1824798 7.58788902,44.2112438 L7.58828852,44.2084473 C5.63094194,45.5927122 6.03883067,43.7536174 6.03883067,43.7536174 L12.1935161,9.78938956 C12.2690215,9.36751836 12.4663741,8.9993798 12.7400311,8.70914359 C12.8275214,8.61566077 12.9226023,8.53056743 13.0248741,8.45466257 L13.0164846,8.44827058 L15.3845164,6.64473121 C15.5193474,6.54865164 15.6401959,6.46995029 15.7552517,6.40043742 C15.7858134,6.38106171 15.8151766,6.36368349 15.84434,6.34730402 C15.9420176,6.29037538 16.0331034,6.24203597 16.116399,6.20348429 C16.126786,6.19889005 16.1391705,6.19149931 16.1497572,6.18710482 C16.240843,6.1467554 16.3215419,6.11918995 16.3960485,6.09821624 C16.415624,6.092823 16.4336014,6.08902775 16.4521781,6.08463326 C16.5119033,6.07085054 16.5672339,6.0634598 16.6167718,6.06166206 C16.6239628,6.06166206 16.6335508,6.05806656 16.6409415,6.05806656 C16.6441375,6.05806656 16.6459353,6.05886556 16.6491313,6.05886556 C16.6990687,6.05986431 16.7438126,6.0662563 16.783363,6.07804153 C16.7923518,6.08083802 16.799343,6.08543226 16.8079322,6.08822876 C16.8372954,6.09921499 16.8648609,6.11279796 16.8884313,6.12837843 C16.8986186,6.13576917 16.9082065,6.1439589 16.917395,6.15214864 C16.936571,6.16852811 16.9539492,6.18610607 16.9695297,6.20628078 C16.9765209,6.21526952 16.9841114,6.22465775 16.9907031,6.23384623 C17.0066831,6.25941419 17.0206656,6.28598089 17.0322511,6.31414558 C17.0350476,6.32073732 17.0382435,6.32533156 17.0406405,6.33172355 C17.0534245,6.36647998 17.063412,6.40303417 17.070603,6.4405871 C17.073,6.45237232 17.0743982,6.4635583 17.076196,6.47454453 C17.0803907,6.50191023 17.0839862,6.52947568 17.0861835,6.55684138 C17.0875817,6.57162285 17.0885805,6.58520582 17.0889799,6.59898855 C17.0899787,6.62555525 17.0903782,6.6503242 17.0903782,6.67589215 C17.0899787,6.68867613 17.0903782,6.70066111 17.0899787,6.71244634 C17.0885805,6.74820152 17.0867827,6.78295795 17.083387,6.81591664 L17.1055592,6.77476822 C17.0957714,6.87823852 17.0939737,6.97611584 17.1009649,7.06760117 C17.1389174,7.59973417 17.5010634,7.88437739 18.798637,7.22440463 L18.798637,7.22700137 C19.7438522,6.79953717 20.7390049,6.48553076 21.7625219,6.29876486 C21.7779027,6.29596837 21.7930836,6.29237287 21.8088638,6.28957638 C22.1240688,6.23384623 22.4418704,6.19070031 22.7616696,6.15973912 C22.8197967,6.15394638 22.8775243,6.14955189 22.9356515,6.1447579 C23.2538526,6.11839095 23.5732523,6.10101273 23.8950489,6.10101273 C24.2332251,6.10101273 24.5696034,6.11559446 24.903385,6.1447579 C25.0617865,6.15874037 25.2163927,6.18710482 25.3733959,6.20727953 C25.5469783,6.23005099 25.7223585,6.24563146 25.8935439,6.27579365 C26.110472,6.31414558 26.3220069,6.36927648 26.5347402,6.41961338 C26.6420058,6.44518134 26.7522676,6.4635583 26.8579351,6.4929215 C27.1234024,6.56403236 27.3820781,6.65212195 27.6383569,6.74360728 C27.6872956,6.76098549 27.7386312,6.77376947 27.7871704,6.79214644 C28.0792043,6.90100998 28.3638476,7.02485475 28.6416993,7.1582875 C28.6518865,7.16388049 28.6630725,7.16747598 28.6734595,7.17207022 C28.9525097,7.30849922 29.2225712,7.45851119 29.4840435,7.61891014 C29.4924329,7.62430338 29.5008224,7.62789887 29.5086127,7.63269286 C29.7507092,7.78270483 29.98142,7.94570052 30.2065378,8.11688595 C30.2317063,8.13606192 30.259871,8.15164239 30.2850394,8.17081835 C30.4913808,8.33101755 30.6855374,8.50599822 30.8754993,8.68337589 C30.9130523,8.71833207 30.9551994,8.74869402 30.9915539,8.78424945 L30.9929521,8.7860472 C30.9949496,8.78784494 30.9967474,8.78884369 30.9987449,8.79064144 L30.9973466,8.78704594 C30.9973466,8.78704594 31.0027399,8.79423693 31.0087323,8.80062892 C31.0428895,8.83378736 31.076048,8.86834404 31.1098057,8.90230148 L31.1102052,8.90230148 C31.1479578,8.94065341 31.1863098,8.97820634 31.2234632,9.01675801 C31.4523763,9.22269988 31.842687,9.5037476 32.3264806,9.60362241 C32.3196891,9.60362241 32.3118989,9.60262367 32.3051074,9.60262367 C32.4894763,9.64297309 32.6886267,9.65495807 32.8975648,9.62659362 C32.8835823,9.62739262 32.8697996,9.62839137 32.8496249,9.62839137 L32.8456299,9.62839137 C32.8751928,9.62559487 32.9041565,9.62359738 32.9335197,9.62000188 C33.2461279,9.57146272 33.5807085,9.43143824 33.9268746,9.14679502 C34.0533161,9.04232597 34.1565867,8.96642111 34.250469,8.90230148 C34.7512413,8.52797068 35.2478189,8.19478831 35.7066438,7.96028225 C37.4550523,6.90660297 39.2859573,6.25202345 41.3096208,6.12737968 C41.5431281,6.11100021 41.7790324,6.10101273 42.0185322,6.10101273 C42.3489181,6.10101273 42.6747097,6.1173922 42.9963066,6.1459564 C43.0252703,6.14855314 43.0544338,6.14955189 43.0833974,6.15214864 C43.3910119,6.18151183 43.6930333,6.22545675 43.9910597,6.27938915 C44.0288124,6.28677988 44.0673641,6.29317187 44.1053165,6.30056261 C44.3991482,6.3572915 44.6871872,6.42780312 44.9700327,6.50830222 C45.0063871,6.51928845 45.042342,6.52947568 45.0780972,6.54026216 C45.3637392,6.62555525 45.6431889,6.72243382 45.9164464,6.83249586 C45.9426136,6.84348209 45.968581,6.85446832 45.9939492,6.8644558 C46.2763952,6.98071008 46.5520497,7.10894934 46.8193147,7.25077158 C46.8275044,7.25456682 46.8356942,7.25996006 46.8440836,7.26355555 C47.6884253,7.71399096 48.4560631,8.29086788 49.1284204,8.98479807 C49.1298186,8.98559707 49.1308174,8.98659582 49.1322156,8.98839357 C49.2858231,9.14679502 49.4364343,9.30979071 49.5798545,9.48097614 C49.6961088,9.61920288 49.8077688,9.76102512 49.9154339,9.90484485 C49.9160331,9.90564385 49.9164326,9.90564385 49.9168321,9.90664259 C50.1065943,10.1621224 50.2805762,10.4265909 50.4425731,10.6974514 C50.4553571,10.7186248 50.4697391,10.7395985 50.4827228,10.761571 C50.634932,11.021645 50.7727593,11.2899088 50.899001,11.562567 C50.9155803,11.5985219 50.9329585,11.6322796 50.9485389,11.667835 C51.0683887,11.9352998 51.174256,12.2089568 51.2687376,12.487208 C51.2835191,12.5313527 51.2990995,12.5740991 51.3132818,12.6182438 C51.4025698,12.8946972 51.4794734,13.175745 51.5439926,13.4613869 C51.5549788,13.5089273 51.5649663,13.5566675 51.5751535,13.6042079 C51.6360772,13.8916476 51.6844166,14.1818838 51.7203715,14.4775133 C51.7257647,14.5242547 51.730359,14.5717951 51.7353527,14.6193355 C51.7667134,14.9187602 51.7874874,15.2217804 51.7928806,15.5293948 C51.7938794,15.5695445 51.7928806,15.6108926 51.7932801,15.6520411 C51.7958769,15.9678452 51.7864886,16.2874446 51.7605212,16.6096408 L51.7605212,16.6096408 Z M41.3447767,43.3742928 L37.8599447,39.9282123 L37.8807187,39.9100351 C37.6512064,39.6429698 37.7790461,39.0660929 37.7790461,39.0660929 L42.7308394,12.2521027 C42.768592,12.0359736 42.7951587,11.821842 42.8131362,11.6083097 C43.8778017,11.7659121 44.7836663,12.2355235 45.4090823,12.9807893 C46.1447602,13.8576902 46.4571686,15.0422055 46.3141479,16.3487678 L42.7518131,35.4737956 L42.814135,35.4166673 L41.3447767,43.3742928 Z M23.2776228,43.3429321 L19.8331403,39.9378003 C19.570869,39.6839185 19.7086963,39.0660929 19.7086963,39.0660929 L24.0951981,13.5694515 C24.2402163,12.778443 24.3344981,12.1202679 24.393624,11.5691587 C25.5877273,11.6752258 26.6020559,12.1668096 27.2851996,12.9807893 C27.5642498,13.312973 27.7889681,13.7194634 27.9537616,14.1900736 C28.0078937,14.5122697 28.0887923,15.5449753 27.6297677,18.0452413 L23.2776228,43.3429321 Z M4.92203052,43.3449296 L1.47255424,39.9346043 C1.47055674,39.9328065 1.46935824,39.9310088 1.46796,39.93001 L1.46656175,39.9282123 L1.46696125,39.9282123 C1.21707447,39.6701358 1.35170571,39.0660929 1.35170571,39.0660929 L7.47882572,5.25227657 L11.210748,8.98479807 C11.1366409,9.17695721 11.0771155,9.37650709 11.0401618,9.58244895 L6.80147474,32.9745283 L6.31808065,35.5101501 L6.3464451,35.4847819 L4.92203052,43.3449296 Z M8.33754936,3.76753761 L8.32935963,3.76094587 L10.6971917,1.95760625 C11.2405107,1.56949273 11.6837551,1.40010505 12.0329174,1.36355087 L15.7528547,5.08288889 C15.4338546,5.21572239 15.0876885,5.41627102 14.7031704,5.69092675 C14.6937822,5.69811774 14.6841942,5.70550847 14.6744065,5.71289921 L12.3065744,7.51623883 C12.259034,7.55199401 12.2144898,7.59134469 12.1733414,7.63449061 C12.0534916,7.73416567 11.9482236,7.84682446 11.8447533,7.96128099 L7.98698877,4.10351648 C8.09325557,3.97987146 8.20751236,3.86441618 8.33754936,3.76753761 L8.33754936,3.76753761 Z M19.207924,1.41388777 C21.9117349,1.41388777 24.5160705,2.36130025 26.3046287,4.09692474 L26.4648279,4.25712394 C26.4885981,4.28189289 26.5129675,4.3048641 26.5361385,4.32943331 C26.5371372,4.33043205 26.5383357,4.3314308 26.5393345,4.3322298 L27.7620019,5.55449776 C26.5467252,5.15340051 25.2401629,4.92908168 23.8950489,4.92908168 C22.0247932,4.92908168 20.1727147,5.33197667 18.3895498,6.12578169 C18.3482016,6.14116241 18.3070532,6.15973912 18.267303,6.17971408 C18.2503243,6.18790382 18.2343443,6.1962933 18.2187638,6.20448304 C18.1408615,5.82455925 17.9734713,5.56268749 17.8186653,5.39250081 C17.7014123,5.26426155 14.6432455,2.31655633 14.6432455,2.31655633 C16.0860371,1.73888041 17.6291029,1.41388777 19.207924,1.41388777 L19.207924,1.41388777 Z M29.2397497,4.45967006 C29.3659914,4.35520101 29.469262,4.27929615 29.5633441,4.21517652 C30.0639166,3.84084572 30.5604942,3.5074636 31.0191193,3.27315729 C32.9700739,2.09763074 35.0217023,1.41388777 37.3314072,1.41388777 C39.9615106,1.41388777 42.3201541,2.30916559 44.0925326,3.95510251 L44.0939308,3.95430351 L44.1181005,3.97807371 C44.27011,4.1208947 44.4185239,4.26731117 44.5613449,4.42011963 L45.6190192,5.47679515 C44.4926311,5.11604733 43.2833468,4.92908168 42.0185322,4.92908168 C39.6401134,4.92908168 37.3885356,5.5856587 35.1355596,6.93576642 C34.6737385,7.17566572 34.1601822,7.50705035 33.5679245,7.94929602 C33.436689,8.03998235 33.3128443,8.13326542 33.18061,8.24312771 C32.9031578,8.47104204 32.7309736,8.47104204 32.674844,8.47104204 C32.4195639,8.47104204 32.1574924,8.2760864 32.0338474,8.1690206 C31.9773183,8.11049396 31.9201899,8.05276632 31.861863,7.99603743 C31.8408893,7.97306622 31.8181178,7.95209251 31.7957459,7.9319178 L28.670663,4.80663516 C28.8560306,4.72773406 29.045593,4.61887051 29.2397497,4.45967006 L29.2397497,4.45967006 Z M50.4773296,8.72752056 C50.3191279,8.53895691 50.1529362,8.35838325 49.983149,8.18280333 C49.975159,8.17441384 49.9697658,8.16442636 49.9617758,8.15723538 L45.4036891,3.60534091 C45.2574724,3.44973595 45.1042644,3.29692749 44.9352762,3.13772704 L44.925888,3.12933756 C44.8981228,3.10097311 44.8683601,3.07360741 44.8377984,3.04783971 C42.8339102,1.2123404 40.2397618,0.241956721 37.3314072,0.241956721 C34.9529884,0.241956721 32.7014107,0.89833399 30.4484346,2.24864146 C29.9866135,2.48854076 29.4730572,2.82092413 28.8805998,3.26217106 C28.7493643,3.35265764 28.6259191,3.44614046 28.4934851,3.55600276 C28.2160328,3.78391708 28.0440484,3.78391708 27.9875193,3.78391708 C27.7318397,3.78391708 27.4703675,3.58896144 27.3467225,3.48189564 C27.2899936,3.42316925 27.2328652,3.36544161 27.174738,3.30891247 C27.1535646,3.28594126 27.1307931,3.2647678 27.1084212,3.24459309 L27.0554875,3.19165944 C27.0500943,3.18606645 27.0425038,3.18446845 27.0371105,3.17887546 C25.0657815,1.31221521 22.2221458,0.241956721 19.207924,0.241956721 C17.4571185,0.241956721 15.7194965,0.595313808 14.0402014,1.29383825 C13.9620993,1.1318413 13.8592283,0.978034091 13.733386,0.83980735 C13.3478692,0.416937393 12.795961,0.183430081 12.1789344,0.183430081 C11.5065772,0.183430081 10.7786895,0.459084564 10.0162452,1.00380179 C10.0064575,1.01099278 9.9968695,1.01838352 9.98728152,1.0255745 L7.61944946,2.82911387 C7.57190905,2.86486905 7.52736488,2.90421973 7.48621646,2.9471659 C6.88976408,3.44614046 6.48986533,4.13188093 6.35283709,4.89532399 L0.201747122,38.8377791 C0.136428994,39.1503872 0.00858923389,40.072032 0.595853132,40.7128288 C0.609236357,40.7274105 0.623019082,40.742192 0.636801806,40.7559747 L5.14215461,45.2107909 C5.16692356,45.2473451 5.18649902,45.285697 5.21486347,45.3212524 C5.37985666,45.527394 5.58899452,45.676607 5.82469908,45.7744843 C5.88642171,45.8022495 5.95054134,45.8230235 6.01585947,45.8398025 C6.15588395,45.8769559 6.30070243,45.9027236 6.45411015,45.9027236 C7.02239783,45.9027236 7.6248427,45.6446471 8.40706223,45.0659724 C8.41724946,45.0587814 8.42683745,45.0515904 8.43642543,45.0443994 L10.7736958,43.2001112 C10.779089,43.1957167 10.7850815,43.1909227 10.791074,43.1865282 C11.4290743,42.6885524 11.8607333,41.9826372 12.0087477,41.1918284 L16.4413917,17.9333815 C17.0016894,14.7531678 20.0674466,11.9516793 23.2127042,11.5883347 C23.1561751,12.0753243 23.0710817,12.6565957 22.942443,13.3579166 L18.5579387,38.8443708 C18.4888253,39.1759552 18.3605861,40.1445411 19.0191606,40.7809434 L23.4959492,45.2069956 C23.5215171,45.2445486 23.5420913,45.2846982 23.5714545,45.3212524 C23.7372467,45.528193 23.9477828,45.677406 24.1846859,45.7754831 C24.242014,45.8012508 24.3015394,45.8192282 24.3618638,45.8360072 C24.5046848,45.8751581 24.6530988,45.9027236 24.8105015,45.9027236 C25.3789889,45.9027236 25.9814338,45.6446471 26.7640528,45.0659724 C26.7736408,45.0587814 26.7834285,45.0515904 26.792617,45.0443994 L29.1300871,43.2001112 C29.1886138,43.1543685 29.2425462,43.1030328 29.2904861,43.0473027 C29.851383,42.5611121 30.2321058,41.9067323 30.3711315,41.1810419 C30.405089,40.9904808 33.5525438,23.4280942 34.5213295,18.378224 C34.784999,17.2476411 35.0908157,16.3130126 35.4070193,15.6686203 C35.5538353,15.4121418 35.7166313,15.161456 35.8910127,14.9225554 C35.9669175,14.8326681 36.0346327,14.7437795 36.0925601,14.6578872 C37.5233666,12.8499533 39.6153445,11.6890085 41.6406059,11.5589715 C41.6254249,11.7209684 41.6058495,11.8839641 41.5768858,12.0487576 L36.6296868,38.8369801 C36.5799491,39.0760804 36.4878646,39.7022955 36.7395491,40.2715819 C36.7956787,40.455751 36.8971515,40.62414 37.0359775,40.761368 L41.6312177,45.3050727 C41.6356122,45.3104659 41.6378094,45.3158592 41.6420041,45.3212524 C41.7326905,45.43491 41.8395565,45.5263953 41.9536136,45.6080929 C42.1146118,45.7409264 42.3037747,45.827418 42.5047228,45.8597774 C42.6257711,45.8873429 42.7510141,45.9027236 42.8810511,45.9027236 C43.4495385,45.9027236 44.0517836,45.6446471 44.8346024,45.0659724 C44.8441904,45.0587814 44.8535786,45.0515904 44.8629669,45.0443994 L47.2006367,43.2001112 C47.2593631,43.1543685 47.3126963,43.1030328 47.3610357,43.0473027 C47.9219326,42.5611121 48.3024557,41.9067323 48.4414814,41.1810419 L52.7724528,17.9269896 C53.3796916,14.478512 52.5643137,11.2148029 50.4773296,8.72752056 L50.4773296,8.72752056 Z" id="Fill-17" fill="#010101" sketch:type="MSShapeGroup"></path>
        </g>
    </g>
</svg>