<?xml version="1.0" encoding="UTF-8" standalone="no"?>
<svg width="176px" height="153px" viewBox="0 0 176 153" version="1.1" xmlns="http://www.w3.org/2000/svg" xmlns:xlink="http://www.w3.org/1999/xlink" xmlns:sketch="http://www.bohemiancoding.com/sketch/ns">
    <!-- Generator: Sketch 3.3.3 (12072) - http://www.bohemiancoding.com/sketch -->
    <title>Artboard 1</title>
    <desc>Created with Sketch.</desc>
    <defs></defs>
    <g id="Page-1" stroke="none" stroke-width="1" fill="none" fill-rule="evenodd" sketch:type="MSPage">
        <g id="Artboard-1" sketch:type="MSArtboardGroup">
            <g id="Group" sketch:type="MSLayerGroup" transform="translate(15.000000, 0.000000)">
                <path d="M15.4209,51.2148 L0.7299,25.7788 L15.4209,0.3418 L44.7959,0.3418 L59.4839,25.7788 L44.7959,51.2148 L15.4209,51.2148 Z" id="Fill-6" fill="#00FF99" sketch:type="MSShapeGroup"></path>
                <path d="M15.4209,51.2148 L0.7299,25.7788 L15.4209,0.3418 L44.7959,0.3418 L59.4839,25.7788 L44.7959,51.2148 L15.4209,51.2148 L15.4209,51.2148 Z" id="Stroke-7" stroke="#1D1D1B" stroke-width="2" stroke-linejoin="round" sketch:type="MSShapeGroup"></path>
                <path d="M15.4209,51.2148 L0.7299,25.7788 L15.4209,0.3418 L30.1089,25.7788 L15.4209,51.2148 Z" id="Fill-8" fill="#FFFFFF" sketch:type="MSShapeGroup"></path>
                <path d="M15.4209,51.2148 L0.7299,25.7788 L15.4209,0.3418 L30.1089,25.7788 L15.4209,51.2148 L15.4209,51.2148 Z" id="Stroke-9" stroke="#1D1D1B" stroke-width="2" stroke-linejoin="round" sketch:type="MSShapeGroup"></path>
                <path d="M30.1084,25.7793 L59.4794,25.7793 L44.7964,51.2153 L15.4174,51.2153 L30.1084,25.7793 Z" id="Fill-10" fill="#7A1D58" sketch:type="MSShapeGroup"></path>
                <path d="M30.1084,25.7793 L59.4794,25.7793 L44.7964,51.2153 L15.4174,51.2153 L30.1084,25.7793 L30.1084,25.7793 Z" id="Stroke-11" stroke="#1D1D1B" stroke-width="2" stroke-linejoin="round" sketch:type="MSShapeGroup"></path>
                <path d="M15.4209,102.084 L0.7299,76.647 L15.4209,51.215 L44.7959,51.215 L59.4839,76.647 L44.7959,102.084 L15.4209,102.084 Z" id="Fill-12" fill="#00FF99" sketch:type="MSShapeGroup"></path>
                <path d="M15.4209,102.084 L0.7299,76.647 L15.4209,51.215 L44.7959,51.215 L59.4839,76.647 L44.7959,102.084 L15.4209,102.084 L15.4209,102.084 Z" id="Stroke-13" stroke="#1D1D1B" stroke-width="2" stroke-linejoin="round" sketch:type="MSShapeGroup"></path>
                <path d="M15.4209,102.084 L0.7299,76.647 L15.4209,51.215 L30.1089,76.647 L15.4209,102.084 Z" id="Fill-14" fill="#FFFFFF" sketch:type="MSShapeGroup"></path>
                <path d="M15.4209,102.084 L0.7299,76.647 L15.4209,51.215 L30.1089,76.647 L15.4209,102.084 L15.4209,102.084 Z" id="Stroke-15" stroke="#1D1D1B" stroke-width="2" stroke-linejoin="round" sketch:type="MSShapeGroup"></path>
                <path d="M30.1084,76.6465 L59.4794,76.6465 L44.7964,102.0835 L15.4174,102.0835 L30.1084,76.6465 Z" id="Fill-16" fill="#7A1D58" sketch:type="MSShapeGroup"></path>
                <path d="M30.1084,76.6465 L59.4794,76.6465 L44.7964,102.0835 L15.4174,102.0835 L30.1084,76.6465 L30.1084,76.6465 Z" id="Stroke-17" stroke="#1D1D1B" stroke-width="2" stroke-linejoin="round" sketch:type="MSShapeGroup"></path>
            </g>
            <g id="Group-Copy" sketch:type="MSLayerGroup" transform="translate(59.000000, 25.000000)">
                <path d="M15.4209,51.2148 L0.7299,25.7788 L15.4209,0.3418 L44.7959,0.3418 L59.4839,25.7788 L44.7959,51.2148 L15.4209,51.2148 Z" id="Fill-6" fill="#00FF99" sketch:type="MSShapeGroup"></path>
                <path d="M15.4209,51.2148 L0.7299,25.7788 L15.4209,0.3418 L44.7959,0.3418 L59.4839,25.7788 L44.7959,51.2148 L15.4209,51.2148 L15.4209,51.2148 Z" id="Stroke-7" stroke="#1D1D1B" stroke-width="2" stroke-linejoin="round" sketch:type="MSShapeGroup"></path>
                <path d="M15.4209,51.2148 L0.7299,25.7788 L15.4209,0.3418 L30.1089,25.7788 L15.4209,51.2148 Z" id="Fill-8" fill="#FFFFFF" sketch:type="MSShapeGroup"></path>
                <path d="M15.4209,51.2148 L0.7299,25.7788 L15.4209,0.3418 L30.1089,25.7788 L15.4209,51.2148 L15.4209,51.2148 Z" id="Stroke-9" stroke="#1D1D1B" stroke-width="2" stroke-linejoin="round" sketch:type="MSShapeGroup"></path>
                <path d="M30.1084,25.7793 L59.4794,25.7793 L44.7964,51.2153 L15.4174,51.2153 L30.1084,25.7793 Z" id="Fill-10" fill="#7A1D58" sketch:type="MSShapeGroup"></path>
                <path d="M30.1084,25.7793 L59.4794,25.7793 L44.7964,51.2153 L15.4174,51.2153 L30.1084,25.7793 L30.1084,25.7793 Z" id="Stroke-11" stroke="#1D1D1B" stroke-width="2" stroke-linejoin="round" sketch:type="MSShapeGroup"></path>
                <path d="M15.4209,102.084 L0.7299,76.647 L15.4209,51.215 L44.7959,51.215 L59.4839,76.647 L44.7959,102.084 L15.4209,102.084 Z" id="Fill-12" fill="#00FF99" sketch:type="MSShapeGroup"></path>
                <path d="M15.4209,102.084 L0.7299,76.647 L15.4209,51.215 L44.7959,51.215 L59.4839,76.647 L44.7959,102.084 L15.4209,102.084 L15.4209,102.084 Z" id="Stroke-13" stroke="#1D1D1B" stroke-width="2" stroke-linejoin="round" sketch:type="MSShapeGroup"></path>
                <path d="M15.4209,102.084 L0.7299,76.647 L15.4209,51.215 L30.1089,76.647 L15.4209,102.084 Z" id="Fill-14" fill="#FFFFFF" sketch:type="MSShapeGroup"></path>
                <path d="M15.4209,102.084 L0.7299,76.647 L15.4209,51.215 L30.1089,76.647 L15.4209,102.084 L15.4209,102.084 Z" id="Stroke-15" stroke="#1D1D1B" stroke-width="2" stroke-linejoin="round" sketch:type="MSShapeGroup"></path>
                <path d="M30.1084,76.6465 L59.4794,76.6465 L44.7964,102.0835 L15.4174,102.0835 L30.1084,76.6465 Z" id="Fill-16" fill="#7A1D58" sketch:type="MSShapeGroup"></path>
                <path d="M30.1084,76.6465 L59.4794,76.6465 L44.7964,102.0835 L15.4174,102.0835 L30.1084,76.6465 L30.1084,76.6465 Z" id="Stroke-17" stroke="#1D1D1B" stroke-width="2" stroke-linejoin="round" sketch:type="MSShapeGroup"></path>
            </g>
            <g id="Group-Copy-2" sketch:type="MSLayerGroup" transform="translate(-29.000000, -26.000000)">
                <path d="M15.4209,51.2148 L0.7299,25.7788 L15.4209,0.3418 L44.7959,0.3418 L59.4839,25.7788 L44.7959,51.2148 L15.4209,51.2148 Z" id="Fill-6" fill="#00FF99" sketch:type="MSShapeGroup"></path>
                <path d="M15.4209,51.2148 L0.7299,25.7788 L15.4209,0.3418 L44.7959,0.3418 L59.4839,25.7788 L44.7959,51.2148 L15.4209,51.2148 L15.4209,51.2148 Z" id="Stroke-7" stroke="#1D1D1B" stroke-width="2" stroke-linejoin="round" sketch:type="MSShapeGroup"></path>
                <path d="M15.4209,51.2148 L0.7299,25.7788 L15.4209,0.3418 L30.1089,25.7788 L15.4209,51.2148 Z" id="Fill-8" fill="#FFFFFF" sketch:type="MSShapeGroup"></path>
                <path d="M15.4209,51.2148 L0.7299,25.7788 L15.4209,0.3418 L30.1089,25.7788 L15.4209,51.2148 L15.4209,51.2148 Z" id="Stroke-9" stroke="#1D1D1B" stroke-width="2" stroke-linejoin="round" sketch:type="MSShapeGroup"></path>
                <path d="M30.1084,25.7793 L59.4794,25.7793 L44.7964,51.2153 L15.4174,51.2153 L30.1084,25.7793 Z" id="Fill-10" fill="#7A1D58" sketch:type="MSShapeGroup"></path>
                <path d="M30.1084,25.7793 L59.4794,25.7793 L44.7964,51.2153 L15.4174,51.2153 L30.1084,25.7793 L30.1084,25.7793 Z" id="Stroke-11" stroke="#1D1D1B" stroke-width="2" stroke-linejoin="round" sketch:type="MSShapeGroup"></path>
                <path d="M15.4209,102.084 L0.7299,76.647 L15.4209,51.215 L44.7959,51.215 L59.4839,76.647 L44.7959,102.084 L15.4209,102.084 Z" id="Fill-12" fill="#00FF99" sketch:type="MSShapeGroup"></path>
                <path d="M15.4209,102.084 L0.7299,76.647 L15.4209,51.215 L44.7959,51.215 L59.4839,76.647 L44.7959,102.084 L15.4209,102.084 L15.4209,102.084 Z" id="Stroke-13" stroke="#1D1D1B" stroke-width="2" stroke-linejoin="round" sketch:type="MSShapeGroup"></path>
                <path d="M15.4209,102.084 L0.7299,76.647 L15.4209,51.215 L30.1089,76.647 L15.4209,102.084 Z" id="Fill-14" fill="#FFFFFF" sketch:type="MSShapeGroup"></path>
                <path d="M15.4209,102.084 L0.7299,76.647 L15.4209,51.215 L30.1089,76.647 L15.4209,102.084 L15.4209,102.084 Z" id="Stroke-15" stroke="#1D1D1B" stroke-width="2" stroke-linejoin="round" sketch:type="MSShapeGroup"></path>
                <path d="M30.1084,76.6465 L59.4794,76.6465 L44.7964,102.0835 L15.4174,102.0835 L30.1084,76.6465 Z" id="Fill-16" fill="#7A1D58" sketch:type="MSShapeGroup"></path>
                <path d="M30.1084,76.6465 L59.4794,76.6465 L44.7964,102.0835 L15.4174,102.0835 L30.1084,76.6465 L30.1084,76.6465 Z" id="Stroke-17" stroke="#1D1D1B" stroke-width="2" stroke-linejoin="round" sketch:type="MSShapeGroup"></path>
            </g>
            <g id="Group-Copy-6" sketch:type="MSLayerGroup" transform="translate(103.000000, 51.000000)">
                <path d="M15.4209,51.2148 L0.7299,25.7788 L15.4209,0.3418 L44.7959,0.3418 L59.4839,25.7788 L44.7959,51.2148 L15.4209,51.2148 Z" id="Fill-6" fill="#00FF99" sketch:type="MSShapeGroup"></path>
                <path d="M15.4209,51.2148 L0.7299,25.7788 L15.4209,0.3418 L44.7959,0.3418 L59.4839,25.7788 L44.7959,51.2148 L15.4209,51.2148 L15.4209,51.2148 Z" id="Stroke-7" stroke="#1D1D1B" stroke-width="2" stroke-linejoin="round" sketch:type="MSShapeGroup"></path>
                <path d="M15.4209,51.2148 L0.7299,25.7788 L15.4209,0.3418 L30.1089,25.7788 L15.4209,51.2148 Z" id="Fill-8" fill="#FFFFFF" sketch:type="MSShapeGroup"></path>
                <path d="M15.4209,51.2148 L0.7299,25.7788 L15.4209,0.3418 L30.1089,25.7788 L15.4209,51.2148 L15.4209,51.2148 Z" id="Stroke-9" stroke="#1D1D1B" stroke-width="2" stroke-linejoin="round" sketch:type="MSShapeGroup"></path>
                <path d="M30.1084,25.7793 L59.4794,25.7793 L44.7964,51.2153 L15.4174,51.2153 L30.1084,25.7793 Z" id="Fill-10" fill="#7A1D58" sketch:type="MSShapeGroup"></path>
                <path d="M30.1084,25.7793 L59.4794,25.7793 L44.7964,51.2153 L15.4174,51.2153 L30.1084,25.7793 L30.1084,25.7793 Z" id="Stroke-11" stroke="#1D1D1B" stroke-width="2" stroke-linejoin="round" sketch:type="MSShapeGroup"></path>
                <path d="M15.4209,102.084 L0.7299,76.647 L15.4209,51.215 L44.7959,51.215 L59.4839,76.647 L44.7959,102.084 L15.4209,102.084 Z" id="Fill-12" fill="#00FF99" sketch:type="MSShapeGroup"></path>
                <path d="M15.4209,102.084 L0.7299,76.647 L15.4209,51.215 L44.7959,51.215 L59.4839,76.647 L44.7959,102.084 L15.4209,102.084 L15.4209,102.084 Z" id="Stroke-13" stroke="#1D1D1B" stroke-width="2" stroke-linejoin="round" sketch:type="MSShapeGroup"></path>
                <path d="M15.4209,102.084 L0.7299,76.647 L15.4209,51.215 L30.1089,76.647 L15.4209,102.084 Z" id="Fill-14" fill="#FFFFFF" sketch:type="MSShapeGroup"></path>
                <path d="M15.4209,102.084 L0.7299,76.647 L15.4209,51.215 L30.1089,76.647 L15.4209,102.084 L15.4209,102.084 Z" id="Stroke-15" stroke="#1D1D1B" stroke-width="2" stroke-linejoin="round" sketch:type="MSShapeGroup"></path>
                <path d="M30.1084,76.6465 L59.4794,76.6465 L44.7964,102.0835 L15.4174,102.0835 L30.1084,76.6465 Z" id="Fill-16" fill="#7A1D58" sketch:type="MSShapeGroup"></path>
                <path d="M30.1084,76.6465 L59.4794,76.6465 L44.7964,102.0835 L15.4174,102.0835 L30.1084,76.6465 L30.1084,76.6465 Z" id="Stroke-17" stroke="#1D1D1B" stroke-width="2" stroke-linejoin="round" sketch:type="MSShapeGroup"></path>
            </g>
            <g id="Group-Copy-8" sketch:type="MSLayerGroup" transform="translate(147.000000, 127.000000)">
                <path d="M15.4209,51.2148 L0.7299,25.7788 L15.4209,0.3418 L44.7959,0.3418 L59.4839,25.7788 L44.7959,51.2148 L15.4209,51.2148 Z" id="Fill-6" fill="#00FF99" sketch:type="MSShapeGroup"></path>
                <path d="M15.4209,51.2148 L0.7299,25.7788 L15.4209,0.3418 L44.7959,0.3418 L59.4839,25.7788 L44.7959,51.2148 L15.4209,51.2148 L15.4209,51.2148 Z" id="Stroke-7" stroke="#1D1D1B" stroke-width="2" stroke-linejoin="round" sketch:type="MSShapeGroup"></path>
                <path d="M15.4209,51.2148 L0.7299,25.7788 L15.4209,0.3418 L30.1089,25.7788 L15.4209,51.2148 Z" id="Fill-8" fill="#FFFFFF" sketch:type="MSShapeGroup"></path>
                <path d="M15.4209,51.2148 L0.7299,25.7788 L15.4209,0.3418 L30.1089,25.7788 L15.4209,51.2148 L15.4209,51.2148 Z" id="Stroke-9" stroke="#1D1D1B" stroke-width="2" stroke-linejoin="round" sketch:type="MSShapeGroup"></path>
                <path d="M30.1084,25.7793 L59.4794,25.7793 L44.7964,51.2153 L15.4174,51.2153 L30.1084,25.7793 Z" id="Fill-10" fill="#7A1D58" sketch:type="MSShapeGroup"></path>
                <path d="M30.1084,25.7793 L59.4794,25.7793 L44.7964,51.2153 L15.4174,51.2153 L30.1084,25.7793 L30.1084,25.7793 Z" id="Stroke-11" stroke="#1D1D1B" stroke-width="2" stroke-linejoin="round" sketch:type="MSShapeGroup"></path>
            </g>
            <g id="Group-Copy-10" sketch:type="MSLayerGroup" transform="translate(59.000000, 127.000000)">
                <path d="M15.4209,51.2148 L0.7299,25.7788 L15.4209,0.3418 L44.7959,0.3418 L59.4839,25.7788 L44.7959,51.2148 L15.4209,51.2148 Z" id="Fill-6" fill="#00FF99" sketch:type="MSShapeGroup"></path>
                <path d="M15.4209,51.2148 L0.7299,25.7788 L15.4209,0.3418 L44.7959,0.3418 L59.4839,25.7788 L44.7959,51.2148 L15.4209,51.2148 L15.4209,51.2148 Z" id="Stroke-7" stroke="#1D1D1B" stroke-width="2" stroke-linejoin="round" sketch:type="MSShapeGroup"></path>
                <path d="M15.4209,51.2148 L0.7299,25.7788 L15.4209,0.3418 L30.1089,25.7788 L15.4209,51.2148 Z" id="Fill-8" fill="#FFFFFF" sketch:type="MSShapeGroup"></path>
                <path d="M15.4209,51.2148 L0.7299,25.7788 L15.4209,0.3418 L30.1089,25.7788 L15.4209,51.2148 L15.4209,51.2148 Z" id="Stroke-9" stroke="#1D1D1B" stroke-width="2" stroke-linejoin="round" sketch:type="MSShapeGroup"></path>
                <path d="M30.1084,25.7793 L59.4794,25.7793 L44.7964,51.2153 L15.4174,51.2153 L30.1084,25.7793 Z" id="Fill-10" fill="#7A1D58" sketch:type="MSShapeGroup"></path>
                <path d="M30.1084,25.7793 L59.4794,25.7793 L44.7964,51.2153 L15.4174,51.2153 L30.1084,25.7793 L30.1084,25.7793 Z" id="Stroke-11" stroke="#1D1D1B" stroke-width="2" stroke-linejoin="round" sketch:type="MSShapeGroup"></path>
            </g>
            <g id="Group-Copy-11" sketch:type="MSLayerGroup" transform="translate(15.000000, 102.000000)">
                <path d="M15.4209,51.2148 L0.7299,25.7788 L15.4209,0.3418 L44.7959,0.3418 L59.4839,25.7788 L44.7959,51.2148 L15.4209,51.2148 Z" id="Fill-6" fill="#00FF99" sketch:type="MSShapeGroup"></path>
                <path d="M15.4209,51.2148 L0.7299,25.7788 L15.4209,0.3418 L44.7959,0.3418 L59.4839,25.7788 L44.7959,51.2148 L15.4209,51.2148 L15.4209,51.2148 Z" id="Stroke-7" stroke="#1D1D1B" stroke-width="2" stroke-linejoin="round" sketch:type="MSShapeGroup"></path>
                <path d="M15.4209,51.2148 L0.7299,25.7788 L15.4209,0.3418 L30.1089,25.7788 L15.4209,51.2148 Z" id="Fill-8" fill="#FFFFFF" sketch:type="MSShapeGroup"></path>
                <path d="M15.4209,51.2148 L0.7299,25.7788 L15.4209,0.3418 L30.1089,25.7788 L15.4209,51.2148 L15.4209,51.2148 Z" id="Stroke-9" stroke="#1D1D1B" stroke-width="2" stroke-linejoin="round" sketch:type="MSShapeGroup"></path>
                <path d="M30.1084,25.7793 L59.4794,25.7793 L44.7964,51.2153 L15.4174,51.2153 L30.1084,25.7793 Z" id="Fill-10" fill="#7A1D58" sketch:type="MSShapeGroup"></path>
                <path d="M30.1084,25.7793 L59.4794,25.7793 L44.7964,51.2153 L15.4174,51.2153 L30.1084,25.7793 L30.1084,25.7793 Z" id="Stroke-11" stroke="#1D1D1B" stroke-width="2" stroke-linejoin="round" sketch:type="MSShapeGroup"></path>
            </g>
            <g id="Group-Copy-12" sketch:type="MSLayerGroup" transform="translate(-29.000000, 76.000000)">
                <path d="M15.4209,51.2148 L0.7299,25.7788 L15.4209,0.3418 L44.7959,0.3418 L59.4839,25.7788 L44.7959,51.2148 L15.4209,51.2148 Z" id="Fill-6" fill="#00FF99" sketch:type="MSShapeGroup"></path>
                <path d="M15.4209,51.2148 L0.7299,25.7788 L15.4209,0.3418 L44.7959,0.3418 L59.4839,25.7788 L44.7959,51.2148 L15.4209,51.2148 L15.4209,51.2148 Z" id="Stroke-7" stroke="#1D1D1B" stroke-width="2" stroke-linejoin="round" sketch:type="MSShapeGroup"></path>
                <path d="M15.4209,51.2148 L0.7299,25.7788 L15.4209,0.3418 L30.1089,25.7788 L15.4209,51.2148 Z" id="Fill-8" fill="#FFFFFF" sketch:type="MSShapeGroup"></path>
                <path d="M15.4209,51.2148 L0.7299,25.7788 L15.4209,0.3418 L30.1089,25.7788 L15.4209,51.2148 L15.4209,51.2148 Z" id="Stroke-9" stroke="#1D1D1B" stroke-width="2" stroke-linejoin="round" sketch:type="MSShapeGroup"></path>
                <path d="M30.1084,25.7793 L59.4794,25.7793 L44.7964,51.2153 L15.4174,51.2153 L30.1084,25.7793 Z" id="Fill-10" fill="#7A1D58" sketch:type="MSShapeGroup"></path>
                <path d="M30.1084,25.7793 L59.4794,25.7793 L44.7964,51.2153 L15.4174,51.2153 L30.1084,25.7793 L30.1084,25.7793 Z" id="Stroke-11" stroke="#1D1D1B" stroke-width="2" stroke-linejoin="round" sketch:type="MSShapeGroup"></path>
                <path d="M15.4209,102.084 L0.7299,76.647 L15.4209,51.215 L44.7959,51.215 L59.4839,76.647 L44.7959,102.084 L15.4209,102.084 Z" id="Fill-12" fill="#00FF99" sketch:type="MSShapeGroup"></path>
                <path d="M15.4209,102.084 L0.7299,76.647 L15.4209,51.215 L44.7959,51.215 L59.4839,76.647 L44.7959,102.084 L15.4209,102.084 L15.4209,102.084 Z" id="Stroke-13" stroke="#1D1D1B" stroke-width="2" stroke-linejoin="round" sketch:type="MSShapeGroup"></path>
                <path d="M15.4209,102.084 L0.7299,76.647 L15.4209,51.215 L30.1089,76.647 L15.4209,102.084 Z" id="Fill-14" fill="#FFFFFF" sketch:type="MSShapeGroup"></path>
                <path d="M15.4209,102.084 L0.7299,76.647 L15.4209,51.215 L30.1089,76.647 L15.4209,102.084 L15.4209,102.084 Z" id="Stroke-15" stroke="#1D1D1B" stroke-width="2" stroke-linejoin="round" sketch:type="MSShapeGroup"></path>
                <path d="M30.1084,76.6465 L59.4794,76.6465 L44.7964,102.0835 L15.4174,102.0835 L30.1084,76.6465 Z" id="Fill-16" fill="#7A1D58" sketch:type="MSShapeGroup"></path>
                <path d="M30.1084,76.6465 L59.4794,76.6465 L44.7964,102.0835 L15.4174,102.0835 L30.1084,76.6465 L30.1084,76.6465 Z" id="Stroke-17" stroke="#1D1D1B" stroke-width="2" stroke-linejoin="round" sketch:type="MSShapeGroup"></path>
            </g>
            <g id="Group-Copy-7" sketch:type="MSLayerGroup" transform="translate(147.000000, 25.000000)">
                <path d="M15.4209,51.2148 L0.7299,25.7788 L15.4209,0.3418 L44.7959,0.3418 L59.4839,25.7788 L44.7959,51.2148 L15.4209,51.2148 Z" id="Fill-6" fill="#00FF99" sketch:type="MSShapeGroup"></path>
                <path d="M15.4209,51.2148 L0.7299,25.7788 L15.4209,0.3418 L44.7959,0.3418 L59.4839,25.7788 L44.7959,51.2148 L15.4209,51.2148 L15.4209,51.2148 Z" id="Stroke-7" stroke="#1D1D1B" stroke-width="2" stroke-linejoin="round" sketch:type="MSShapeGroup"></path>
                <path d="M15.4209,51.2148 L0.7299,25.7788 L15.4209,0.3418 L30.1089,25.7788 L15.4209,51.2148 Z" id="Fill-8" fill="#FFFFFF" sketch:type="MSShapeGroup"></path>
                <path d="M15.4209,51.2148 L0.7299,25.7788 L15.4209,0.3418 L30.1089,25.7788 L15.4209,51.2148 L15.4209,51.2148 Z" id="Stroke-9" stroke="#1D1D1B" stroke-width="2" stroke-linejoin="round" sketch:type="MSShapeGroup"></path>
                <path d="M30.1084,25.7793 L59.4794,25.7793 L44.7964,51.2153 L15.4174,51.2153 L30.1084,25.7793 Z" id="Fill-10" fill="#7A1D58" sketch:type="MSShapeGroup"></path>
                <path d="M30.1084,25.7793 L59.4794,25.7793 L44.7964,51.2153 L15.4174,51.2153 L30.1084,25.7793 L30.1084,25.7793 Z" id="Stroke-11" stroke="#1D1D1B" stroke-width="2" stroke-linejoin="round" sketch:type="MSShapeGroup"></path>
                <path d="M15.4209,102.084 L0.7299,76.647 L15.4209,51.215 L44.7959,51.215 L59.4839,76.647 L44.7959,102.084 L15.4209,102.084 Z" id="Fill-12" fill="#00FF99" sketch:type="MSShapeGroup"></path>
                <path d="M15.4209,102.084 L0.7299,76.647 L15.4209,51.215 L44.7959,51.215 L59.4839,76.647 L44.7959,102.084 L15.4209,102.084 L15.4209,102.084 Z" id="Stroke-13" stroke="#1D1D1B" stroke-width="2" stroke-linejoin="round" sketch:type="MSShapeGroup"></path>
                <path d="M15.4209,102.084 L0.7299,76.647 L15.4209,51.215 L30.1089,76.647 L15.4209,102.084 Z" id="Fill-14" fill="#FFFFFF" sketch:type="MSShapeGroup"></path>
                <path d="M15.4209,102.084 L0.7299,76.647 L15.4209,51.215 L30.1089,76.647 L15.4209,102.084 L15.4209,102.084 Z" id="Stroke-15" stroke="#1D1D1B" stroke-width="2" stroke-linejoin="round" sketch:type="MSShapeGroup"></path>
                <path d="M30.1084,76.6465 L59.4794,76.6465 L44.7964,102.0835 L15.4174,102.0835 L30.1084,76.6465 Z" id="Fill-16" fill="#7A1D58" sketch:type="MSShapeGroup"></path>
                <path d="M30.1084,76.6465 L59.4794,76.6465 L44.7964,102.0835 L15.4174,102.0835 L30.1084,76.6465 L30.1084,76.6465 Z" id="Stroke-17" stroke="#1D1D1B" stroke-width="2" stroke-linejoin="round" sketch:type="MSShapeGroup"></path>
            </g>
            <g id="Group-Copy-9" sketch:type="MSLayerGroup" transform="translate(103.000000, -51.000000)">
                <path d="M15.4209,51.2148 L0.7299,25.7788 L15.4209,0.3418 L44.7959,0.3418 L59.4839,25.7788 L44.7959,51.2148 L15.4209,51.2148 Z" id="Fill-6" fill="#00FF99" sketch:type="MSShapeGroup"></path>
                <path d="M15.4209,51.2148 L0.7299,25.7788 L15.4209,0.3418 L44.7959,0.3418 L59.4839,25.7788 L44.7959,51.2148 L15.4209,51.2148 L15.4209,51.2148 Z" id="Stroke-7" stroke="#1D1D1B" stroke-width="2" stroke-linejoin="round" sketch:type="MSShapeGroup"></path>
                <path d="M15.4209,51.2148 L0.7299,25.7788 L15.4209,0.3418 L30.1089,25.7788 L15.4209,51.2148 Z" id="Fill-8" fill="#FFFFFF" sketch:type="MSShapeGroup"></path>
                <path d="M15.4209,51.2148 L0.7299,25.7788 L15.4209,0.3418 L30.1089,25.7788 L15.4209,51.2148 L15.4209,51.2148 Z" id="Stroke-9" stroke="#1D1D1B" stroke-width="2" stroke-linejoin="round" sketch:type="MSShapeGroup"></path>
                <path d="M30.1084,25.7793 L59.4794,25.7793 L44.7964,51.2153 L15.4174,51.2153 L30.1084,25.7793 Z" id="Fill-10" fill="#7A1D58" sketch:type="MSShapeGroup"></path>
                <path d="M30.1084,25.7793 L59.4794,25.7793 L44.7964,51.2153 L15.4174,51.2153 L30.1084,25.7793 L30.1084,25.7793 Z" id="Stroke-11" stroke="#1D1D1B" stroke-width="2" stroke-linejoin="round" sketch:type="MSShapeGroup"></path>
                <path d="M15.4209,102.084 L0.7299,76.647 L15.4209,51.215 L44.7959,51.215 L59.4839,76.647 L44.7959,102.084 L15.4209,102.084 Z" id="Fill-12" fill="#00FF99" sketch:type="MSShapeGroup"></path>
                <path d="M15.4209,102.084 L0.7299,76.647 L15.4209,51.215 L44.7959,51.215 L59.4839,76.647 L44.7959,102.084 L15.4209,102.084 L15.4209,102.084 Z" id="Stroke-13" stroke="#1D1D1B" stroke-width="2" stroke-linejoin="round" sketch:type="MSShapeGroup"></path>
                <path d="M15.4209,102.084 L0.7299,76.647 L15.4209,51.215 L30.1089,76.647 L15.4209,102.084 Z" id="Fill-14" fill="#FFFFFF" sketch:type="MSShapeGroup"></path>
                <path d="M15.4209,102.084 L0.7299,76.647 L15.4209,51.215 L30.1089,76.647 L15.4209,102.084 L15.4209,102.084 Z" id="Stroke-15" stroke="#1D1D1B" stroke-width="2" stroke-linejoin="round" sketch:type="MSShapeGroup"></path>
                <path d="M30.1084,76.6465 L59.4794,76.6465 L44.7964,102.0835 L15.4174,102.0835 L30.1084,76.6465 Z" id="Fill-16" fill="#7A1D58" sketch:type="MSShapeGroup"></path>
                <path d="M30.1084,76.6465 L59.4794,76.6465 L44.7964,102.0835 L15.4174,102.0835 L30.1084,76.6465 L30.1084,76.6465 Z" id="Stroke-17" stroke="#1D1D1B" stroke-width="2" stroke-linejoin="round" sketch:type="MSShapeGroup"></path>
            </g>
            <g id="Group-Copy-13" sketch:type="MSLayerGroup" transform="translate(59.000000, -77.000000)">
                <path d="M15.4209,102.084 L0.7299,76.647 L15.4209,51.215 L44.7959,51.215 L59.4839,76.647 L44.7959,102.084 L15.4209,102.084 Z" id="Fill-12" fill="#00FF99" sketch:type="MSShapeGroup"></path>
                <path d="M15.4209,102.084 L0.7299,76.647 L15.4209,51.215 L44.7959,51.215 L59.4839,76.647 L44.7959,102.084 L15.4209,102.084 L15.4209,102.084 Z" id="Stroke-13" stroke="#1D1D1B" stroke-width="2" stroke-linejoin="round" sketch:type="MSShapeGroup"></path>
                <path d="M15.4209,102.084 L0.7299,76.647 L15.4209,51.215 L30.1089,76.647 L15.4209,102.084 Z" id="Fill-14" fill="#FFFFFF" sketch:type="MSShapeGroup"></path>
                <path d="M15.4209,102.084 L0.7299,76.647 L15.4209,51.215 L30.1089,76.647 L15.4209,102.084 L15.4209,102.084 Z" id="Stroke-15" stroke="#1D1D1B" stroke-width="2" stroke-linejoin="round" sketch:type="MSShapeGroup"></path>
                <path d="M30.1084,76.6465 L59.4794,76.6465 L44.7964,102.0835 L15.4174,102.0835 L30.1084,76.6465 Z" id="Fill-16" fill="#7A1D58" sketch:type="MSShapeGroup"></path>
                <path d="M30.1084,76.6465 L59.4794,76.6465 L44.7964,102.0835 L15.4174,102.0835 L30.1084,76.6465 L30.1084,76.6465 Z" id="Stroke-17" stroke="#1D1D1B" stroke-width="2" stroke-linejoin="round" sketch:type="MSShapeGroup"></path>
            </g>
            <g id="Group-Copy-14" sketch:type="MSLayerGroup" transform="translate(147.000000, -77.000000)">
                <path d="M15.4209,102.084 L0.7299,76.647 L15.4209,51.215 L44.7959,51.215 L59.4839,76.647 L44.7959,102.084 L15.4209,102.084 Z" id="Fill-12" fill="#00FF99" sketch:type="MSShapeGroup"></path>
                <path d="M15.4209,102.084 L0.7299,76.647 L15.4209,51.215 L44.7959,51.215 L59.4839,76.647 L44.7959,102.084 L15.4209,102.084 L15.4209,102.084 Z" id="Stroke-13" stroke="#1D1D1B" stroke-width="2" stroke-linejoin="round" sketch:type="MSShapeGroup"></path>
                <path d="M15.4209,102.084 L0.7299,76.647 L15.4209,51.215 L30.1089,76.647 L15.4209,102.084 Z" id="Fill-14" fill="#FFFFFF" sketch:type="MSShapeGroup"></path>
                <path d="M15.4209,102.084 L0.7299,76.647 L15.4209,51.215 L30.1089,76.647 L15.4209,102.084 L15.4209,102.084 Z" id="Stroke-15" stroke="#1D1D1B" stroke-width="2" stroke-linejoin="round" sketch:type="MSShapeGroup"></path>
                <path d="M30.1084,76.6465 L59.4794,76.6465 L44.7964,102.0835 L15.4174,102.0835 L30.1084,76.6465 Z" id="Fill-16" fill="#7A1D58" sketch:type="MSShapeGroup"></path>
                <path d="M30.1084,76.6465 L59.4794,76.6465 L44.7964,102.0835 L15.4174,102.0835 L30.1084,76.6465 L30.1084,76.6465 Z" id="Stroke-17" stroke="#1D1D1B" stroke-width="2" stroke-linejoin="round" sketch:type="MSShapeGroup"></path>
            </g>
        </g>
    </g>
</svg>