<?xml version="1.0" standalone="no"?><!DOCTYPE svg PUBLIC "-//W3C//DTD SVG 1.1//EN" "http://www.w3.org/Graphics/SVG/1.1/DTD/svg11.dtd" ><svg xmlns="http://www.w3.org/2000/svg"><metadata></metadata><defs><font id="lineto-akkurat-lightitalic" horiz-adv-x="1167" ><font-face units-per-em="2048" ascent="1604" descent="-444" /><missing-glyph horiz-adv-x="436" /><glyph unicode="&#xd;" horiz-adv-x="436" /><glyph unicode=" "  horiz-adv-x="436" /><glyph unicode="&#x09;" horiz-adv-x="436" /><glyph unicode="&#xa0;" horiz-adv-x="436" /><glyph unicode="!" horiz-adv-x="624" d="M135 0l29 156h155l-28 -156h-156zM258 465l74 590l71 397h132l-72 -397l-135 -590h-70z" /><glyph unicode="&#x22;" horiz-adv-x="892" d="M285 887l26 311l45 254h125l-45 -254l-86 -311h-65zM594 887l27 311l45 254h125l-46 -254l-86 -311h-65z" /><glyph unicode="#" horiz-adv-x="1562" d="M115 406l16 92h270l134 428h-263l17 92h276l129 405h92l-129 -405h443l129 405h94l-129 -405h264l-16 -92h-279l-133 -428h270l-16 -92h-285l-129 -406h-92l129 406h-442l-129 -406h-94l129 406h-256zM494 498h442l135 428h-442z" /><glyph unicode="$" d="M61 438q0 10 1 18.5t1 18.5h101v-29q0 -74 22.5 -132t61.5 -99t92 -67.5t115 -36.5l104 594l-94 30q-53 18 -100.5 45t-83 65t-57 88t-21.5 114q0 84 24.5 144t71.5 109q78 84 168 116t197 32h26l33 190h84l-35 -202q68 -14 128.5 -47t105.5 -83.5t71.5 -115t26.5 -143.5 v-19q0 -6 -2 -16h-98v20q0 129 -72 205t-178 100l-99 -557l88 -28q57 -18 109.5 -49t92.5 -73t63.5 -96.5t23.5 -119.5q0 -88 -27.5 -152.5t-78.5 -118.5q-72 -72 -172.5 -105.5t-206.5 -33.5h-27l-33 -184h-84l35 192q-90 14 -171 56.5t-134 121.5q-37 55 -54.5 119 t-17.5 129zM305 1057q0 -94 52.5 -146.5t136.5 -79.5l84 -26l94 545h-23q-78 0 -146.5 -25t-119.5 -78q-35 -37 -56.5 -83t-21.5 -107zM537 102h12q66 0 133.5 16.5t121.5 53.5t89 94t35 135q0 49 -18.5 89t-48.5 72t-68.5 54.5t-79.5 36.5l-74 25z" /><glyph unicode="%" horiz-adv-x="1890" d="M199 1020q0 80 20.5 161t63.5 147.5t109.5 108.5t158.5 42q68 0 120 -24.5t89 -66.5t55.5 -99t18.5 -120q0 -78 -21.5 -158.5t-66 -146t-111 -106.5t-156.5 -41q-66 0 -118 23.5t-87.5 64.5t-55 96t-19.5 119zM254 35l1309 1438l61 -56l-1313 -1442zM291 1028 q0 -98 47 -158.5t151 -60.5q68 0 115 35t78 88t44 115.5t13 119.5q0 98 -47 158.5t-151 60.5q-68 0 -115 -34.5t-78 -88t-44 -116t-13 -119.5zM1040 276q0 80 20.5 161t63.5 147.5t109.5 108.5t159.5 42q68 0 120 -24.5t88.5 -66.5t55 -98.5t18.5 -119.5q0 -78 -21.5 -159 t-65.5 -146.5t-110.5 -106.5t-156.5 -41q-66 0 -118 23.5t-88 64.5t-55.5 96.5t-19.5 118.5zM1133 285q0 -98 47 -158.5t151 -60.5q68 0 115 34.5t77.5 88t44 116t13.5 119.5q0 98 -47 158.5t-152 60.5q-68 0 -114.5 -35t-77.5 -88t-44 -115.5t-13 -119.5z" /><glyph unicode="&#x26;" horiz-adv-x="1468" d="M131 307q0 141 69.5 241.5t192.5 170.5l127 72l-82 112q-31 43 -51 101.5t-20 113.5q0 74 26.5 140.5t76.5 115.5t122 78t164 29q59 0 114.5 -20.5t98.5 -58.5t68.5 -90t25.5 -116q0 -104 -50 -177t-136 -130q-49 -33 -102.5 -61.5t-112.5 -59.5l307 -436 q80 109 110.5 230.5t53.5 250.5h253l-14 -92h-155q-10 -59 -26.5 -121.5t-40.5 -124t-55.5 -119t-70.5 -102.5l182 -254h-123l-120 172q-96 -92 -214 -146.5t-253 -54.5q-76 0 -142.5 27t-116 72t-78 106.5t-28.5 130.5zM238 319q0 -61 20.5 -107t57 -77t86 -46t104.5 -15 q119 0 218 45t181 131l-334 467l-127 -72q-94 -53 -150 -138t-56 -188zM469 1135q0 -45 16.5 -95.5t40.5 -85.5l82 -116l185 104q72 41 120 97.5t48 140.5q0 47 -17.5 85t-47.5 65.5t-69 41.5t-82 14q-59 0 -109 -18t-87 -51t-58.5 -79t-21.5 -103z" /><glyph unicode="'" horiz-adv-x="489" d="M248 887l26 311l45 254h125l-45 -254l-86 -311h-65z" /><glyph unicode="(" horiz-adv-x="591" d="M133 487q0 63 5 124t16 120q20 119 63 237.5t106.5 229.5t144.5 209t179 176l55 -59q-182 -166 -295.5 -362.5t-156.5 -446.5q-12 -66 -17.5 -129.5t-5.5 -126.5q0 -174 42 -336t128 -322l-69 -39q-98 160 -146.5 348.5t-48.5 376.5z" /><glyph unicode=")" horiz-adv-x="591" d="M-111 -176q182 166 296 362.5t157 446.5q12 66 17.5 129t5.5 127q0 174 -42 335.5t-128 321.5l69 37q98 -160 146.5 -347.5t48.5 -375.5q0 -61 -5 -122.5t-16 -121.5q-20 -119 -63 -237.5t-106.5 -229t-144.5 -210t-179 -175.5z" /><glyph unicode="*" horiz-adv-x="1089" d="M197 1094l41 88l321 -123l39 366h104l-59 -366l361 121l18 -93l-369 -104l176 -293l-90 -57l-155 305l-267 -303l-69 61l274 293z" /><glyph unicode="+" horiz-adv-x="1394" d="M147 573v93h502v526h96v-526h502v-93h-502v-563h-96v563h-502z" /><glyph unicode="," horiz-adv-x="546" d="M2 -188q80 27 108.5 69.5t43.5 118.5h-107l33 184h182l-33 -184q-18 -100 -59 -160.5t-145 -89.5z" /><glyph unicode="-" horiz-adv-x="882" d="M125 571l16 95h580l-16 -95h-580z" /><glyph unicode="." horiz-adv-x="536" d="M49 0l31 184h182l-33 -184h-180z" /><glyph unicode="/" horiz-adv-x="806" d="M-84 -27l899 1506h103l-900 -1506h-102z" /><glyph unicode="0" d="M100 438q0 78 9.5 157t23.5 157t33.5 163.5t50.5 168.5t77 156t112 122q115 88 266 88q92 0 170 -35t135 -106q53 -70 71.5 -153t18.5 -169q0 -78 -9 -156.5t-24 -156.5q-14 -78 -33.5 -164t-50 -169t-77 -155.5t-111.5 -122.5q-119 -90 -266 -90q-92 0 -169 35t-134 107 q-53 70 -73 153.5t-20 169.5zM201 436q0 -98 26.5 -178t87.5 -127q35 -29 82 -44t111 -15q72 0 126 26.5t97 67.5q49 47 82 110.5t56.5 132t38 140.5t24.5 133q14 78 24.5 153.5t10.5 153.5q0 92 -22.5 167t-76.5 124q-35 35 -86 54.5t-123 19.5q-66 0 -113.5 -21.5 t-88.5 -56.5q-53 -45 -90 -109.5t-62.5 -137.5t-41 -146.5t-27.5 -139.5q-14 -78 -24.5 -153.5t-10.5 -153.5z" /><glyph unicode="1" d="M303 1028l23 123l411 272h92l-249 -1423h-103l225 1288z" /><glyph unicode="2" d="M57 0l19 113l719 694q31 31 60.5 66.5t54 76.5t39 85t14.5 89q0 57 -20.5 100.5t-56.5 72t-83 43t-101 14.5q-68 0 -123 -24.5t-97 -66.5t-69.5 -96.5t-37.5 -111.5h-107q14 82 52 153.5t95.5 126t132.5 85t163 30.5q72 0 136 -21.5t112.5 -62.5t77 -100.5t28.5 -135.5 q0 -117 -61.5 -214t-143.5 -175l-674 -643h709l-16 -98h-822z" /><glyph unicode="3" d="M70 362q0 16 1 30t3 30h100q-2 -14 -2 -27v-26q0 -145 88 -221t229 -76q160 0 254.5 97t94.5 255q0 127 -80 197.5t-205 70.5h-74l17 99h75q74 0 138.5 18t112.5 57t77 96.5t29 137.5q0 59 -23.5 106t-62.5 79t-91.5 49.5t-107.5 17.5q-66 0 -123 -20.5t-102 -58.5 t-76 -91.5t-43 -116.5h-111q16 86 57.5 157.5t101 122t136 78t164.5 27.5q76 0 145.5 -22.5t124 -65.5t86 -106.5t31.5 -145.5q0 -66 -21.5 -127t-59.5 -111.5t-92 -86t-122 -50.5q100 -43 151.5 -128t51.5 -191q0 -102 -37 -184t-100.5 -139.5t-148.5 -88.5t-179 -31 q-84 0 -158.5 27t-130 77t-87 121.5t-31.5 163.5z" /><glyph unicode="4" d="M43 326l18 112l754 985h121l-762 -995h557l78 440h104l-77 -440h198l-16 -102h-199l-59 -326h-105l60 326h-672z" /><glyph unicode="5" d="M113 362q0 16 1 31t3 31h104q-2 -10 -2 -23v-22q0 -147 88 -228t232 -81q76 0 135 28.5t102 73.5q66 66 97.5 158t31.5 184q0 141 -75.5 225t-221.5 84q-84 0 -161.5 -32.5t-131.5 -98.5l-116 47l159 684h752l-16 -96h-656l-129 -539q57 68 139 100t170 32 q184 0 288 -105.5t104 -290.5q0 -131 -45 -246.5t-136 -193.5q-57 -49 -129.5 -81t-164.5 -32q-104 0 -188.5 34t-141.5 99q-41 47 -66.5 114t-25.5 144z" /><glyph unicode="6" d="M123 459q0 76 9 148.5t22 146.5q12 76 31.5 157.5t49 159.5t72.5 146.5t105 121.5q59 53 131.5 82t152.5 29t148.5 -24.5t121 -70.5t82 -112.5t29.5 -148.5h-106q0 63 -21.5 111t-59.5 81t-90 49.5t-112 16.5q-72 0 -127 -27t-98 -70q-49 -49 -83 -113.5t-58.5 -135 t-40 -142t-25.5 -133.5q57 90 152.5 141.5t199.5 51.5q90 0 164 -28t126 -80t81 -126t29 -164q0 -104 -33 -204.5t-95.5 -177t-152.5 -124t-203 -47.5q-86 0 -149.5 27t-110.5 70q-76 68 -108.5 169t-32.5 220zM233 406q0 -72 21.5 -135.5t62.5 -106.5q39 -41 92.5 -66.5 t125.5 -25.5q90 0 158.5 39t115.5 101t70.5 141t23.5 161q0 141 -79 228t-226 87q-86 0 -154.5 -36.5t-114.5 -96t-71 -135.5t-25 -155z" /><glyph unicode="7" d="M123 0l878 1325h-778l17 98h888l-18 -108l-870 -1315h-117z" /><glyph unicode="8" d="M76 348q0 74 24.5 140.5t67.5 121t102.5 93t130.5 57.5q-80 41 -126 123t-46 172q0 88 37 161.5t98.5 125t140.5 80t163 28.5q76 0 147.5 -23.5t126.5 -67.5t88 -108.5t33 -146.5q0 -66 -20.5 -127.5t-58.5 -111.5t-91 -86t-119 -50q98 -43 148.5 -133t50.5 -195 q0 -98 -39 -178t-105.5 -135t-152.5 -85t-178 -30q-84 0 -160 26t-134.5 73t-93 116.5t-34.5 159.5zM182 358q0 -68 27 -122t71 -92t102 -57t124 -19q74 0 140.5 25.5t115.5 70.5t78.5 108.5t29.5 139.5q0 70 -27.5 124t-73.5 91t-105.5 55t-124.5 18q-74 0 -139.5 -24.5 t-113.5 -69.5t-76 -108.5t-28 -139.5zM336 1047q0 -61 25.5 -109.5t67.5 -82.5t96.5 -51.5t111.5 -17.5q70 0 128 24t101 64.5t67.5 99t24.5 128.5q0 61 -25.5 109.5t-68.5 81t-97 50t-110 17.5q-68 0 -127 -23.5t-102 -64.5t-67.5 -98.5t-24.5 -126.5z" /><glyph unicode="9" d="M98 338v16h107v-14q0 -53 19.5 -101.5t58.5 -86.5q80 -80 213 -80q72 0 127 26.5t96 69.5q47 49 78.5 113.5t53 136t36 144.5t24.5 134q-25 -43 -62.5 -78.5t-84.5 -61.5t-99.5 -40t-103.5 -14q-90 0 -160.5 28.5t-124.5 79.5q-53 51 -82.5 127t-29.5 162q0 119 41 228.5 t119 189.5q59 61 141 97t180 36q135 0 236 -70q74 -51 112 -133q29 -59 41.5 -124.5t12.5 -131.5q0 -80 -10.5 -160.5t-24.5 -158.5q-12 -76 -30.5 -159t-46.5 -163t-69 -151.5t-102 -122.5q-119 -102 -277 -103q-88 0 -160.5 31t-125.5 86q-47 49 -75 114.5t-28 133.5z M266 911q0 -141 79 -228t226 -87q86 0 155 38t115 99.5t70.5 139t24.5 157.5q0 141 -77 232.5t-224 91.5q-74 0 -132.5 -27t-103.5 -72q-66 -66 -99.5 -156.5t-33.5 -187.5z" /><glyph unicode=":" horiz-adv-x="598" d="M94 0l33 176h170l-33 -176h-170zM242 848l32 176h170l-32 -176h-170z" /><glyph unicode=";" horiz-adv-x="598" d="M51 -178q76 25 103.5 65.5t40.5 112.5h-101l31 174h170l-31 -174q-16 -94 -55 -151.5t-137 -84.5zM242 848l32 176h170l-32 -176h-170z" /><glyph unicode="&#x3c;" horiz-adv-x="995" d="M102 623l670 669l62 -63l-607 -606l609 -609l-62 -61z" /><glyph unicode="=" horiz-adv-x="1415" d="M215 279v94h956v-94h-956zM215 764v94h956v-94h-956z" /><glyph unicode="&#x3e;" horiz-adv-x="995" d="M166 14l608 609l-606 606l61 63l670 -669l-672 -670z" /><glyph unicode="?" horiz-adv-x="995" d="M109 1083q14 88 55 161t101.5 125t138 80t167.5 28q96 0 185.5 -35t146.5 -115q33 -45 50.5 -94.5t17.5 -104.5q0 -72 -22.5 -132t-61.5 -110t-91.5 -90t-113.5 -71q-55 -29 -92 -59.5t-61.5 -67.5t-40 -81t-23.5 -99l-109 -2q14 82 36 141t55.5 104.5t84 83t121.5 76.5 q92 49 146.5 122t54.5 181q0 63 -23.5 109.5t-63.5 77t-93 46t-111 15.5q-135 0 -228 -76.5t-116 -212.5h-110zM258 0l27 160h159l-26 -160h-160z" /><glyph unicode="@" horiz-adv-x="1908" d="M174 545q0 186 66.5 356t187.5 298t287 204t366 76q139 0 263 -47.5t217.5 -132.5t147.5 -203.5t54 -261.5q0 -59 -11 -125t-33.5 -131.5t-57.5 -126t-82 -107.5q-53 -53 -115.5 -84t-148.5 -31q-68 0 -118 44t-54 116q-41 -78 -119 -118t-160 -40q-68 0 -117 26 t-81.5 67t-49 92t-16.5 104q0 96 29.5 189.5t86 166t137.5 117.5t183 45q70 0 128.5 -37.5t78.5 -97.5l47 117h76l-135 -541q-4 -14 -6 -28.5t-2 -28.5q0 -43 22.5 -75t77.5 -32q59 0 102 21.5t82 56.5q41 39 71 90.5t50.5 108.5t29.5 117.5t9 115.5q0 127 -47 230.5 t-129 176.5t-189.5 112.5t-230.5 39.5q-182 0 -328.5 -70.5t-250 -188t-160 -269t-56.5 -311.5q0 -141 48.5 -257t133.5 -200t202.5 -130t257.5 -46q129 0 255.5 31.5t239.5 89.5l-16 -96q-98 -55 -224 -86t-255 -31q-164 0 -300.5 52t-234.5 147.5t-153.5 228.5t-55.5 297z M700 524q0 -39 10.5 -75.5t32 -66.5t55 -47.5t81.5 -17.5q74 0 131 43t96 106.5t60.5 134.5t25.5 126v25q0 80 -40 139t-130 59q-78 0 -137.5 -42t-100.5 -105.5t-62.5 -138t-21.5 -140.5z" /><glyph unicode="A" horiz-adv-x="1245" d="M-113 0l809 1452h103l303 -1452h-105l-79 383h-703l-211 -383h-117zM272 483h625l-170 822z" /><glyph unicode="B" horiz-adv-x="1351" d="M92 0l258 1452h514q74 0 145.5 -19.5t127 -59.5t89.5 -100.5t34 -142.5q0 -68 -20.5 -130t-57.5 -114t-90.5 -87t-118.5 -47q104 -35 157.5 -116t53.5 -185q0 -115 -42 -200t-115 -140.5t-168 -83t-202 -27.5h-565zM217 100h408q90 0 172 17.5t143 58.5t98 108t37 165 q0 74 -30.5 124t-80 79.5t-110.5 42t-123 12.5h-407zM342 809h408q82 0 155.5 14.5t126.5 50t85 96t32 150.5q0 63 -26.5 108.5t-69.5 72t-97.5 39t-109.5 12.5h-408z" /><glyph unicode="C" horiz-adv-x="1255" d="M92 506q0 98 14.5 208.5t45 217t80 203t116.5 168.5q80 84 178.5 130t221.5 46q106 0 191 -36t146 -102t98.5 -152.5t37.5 -184.5h-111q0 78 -27.5 147.5t-74.5 118.5q-98 104 -267 104q-92 0 -168.5 -37t-140.5 -100q-61 -61 -104 -150.5t-71 -188.5t-41 -202.5 t-13 -191.5q0 -111 34.5 -194t90.5 -136q49 -47 111.5 -71.5t154.5 -24.5q86 0 153.5 29.5t124.5 82.5q47 43 82 99.5t54 128.5h110q-16 -72 -59 -151t-94 -132q-158 -162 -379 -162q-111 0 -199 37t-154 103q-141 145 -141 393z" /><glyph unicode="D" horiz-adv-x="1368" d="M92 0l258 1452h465q111 0 196 -36t141 -100.5t86 -154.5t30 -196q0 -102 -16.5 -220t-51.5 -232t-91 -213t-136 -165q-84 -68 -186.5 -101.5t-208.5 -33.5h-486zM217 104h379q84 0 162 27t141 80q68 55 117 145t80.5 192.5t46 208t14.5 193.5q0 86 -20.5 160t-63.5 126 t-110.5 82t-159.5 30h-365z" /><glyph unicode="E" horiz-adv-x="1263" d="M92 0l258 1452h920l-19 -102h-813l-94 -533h721l-18 -104h-721l-109 -611h823l-18 -102h-930z" /><glyph unicode="F" horiz-adv-x="1183" d="M92 0l258 1452h903l-18 -102h-797l-100 -562h723l-17 -102h-722l-123 -686h-107z" /><glyph unicode="G" horiz-adv-x="1366" d="M92 506q0 98 14.5 208.5t45 217t80 203t116.5 168.5q80 84 180.5 130t223.5 46q106 0 195.5 -33.5t150.5 -99.5t96 -147t35 -179h-111q0 78 -25.5 141.5t-72.5 112.5q-47 51 -119 73.5t-156 22.5q-92 0 -170.5 -35t-142.5 -98q-61 -61 -104 -150.5t-71 -188.5t-41 -202.5 t-13 -191.5q0 -111 34.5 -193t90.5 -135q49 -47 111.5 -72.5t154.5 -25.5q72 0 141.5 24.5t124.5 71.5q51 43 87 98.5t61.5 118t42 129t26.5 127.5h-428l19 103h530l-131 -750h-82l19 197q-68 -106 -181.5 -165t-238.5 -59q-111 0 -198 38t-153 104q-141 145 -141 391z" /><glyph unicode="H" horiz-adv-x="1466" d="M92 0l258 1452h107l-113 -635h811l113 635h106l-258 -1452h-106l127 713h-811l-127 -713h-107z" /><glyph unicode="I" horiz-adv-x="550" d="M92 0l258 1452h109l-258 -1452h-109z" /><glyph unicode="J" horiz-adv-x="1034" d="M-23 342q0 20 2.5 39.5t6.5 40.5h108q-4 -18 -6 -36.5t-2 -35.5q0 -129 71.5 -200.5t202.5 -71.5q66 0 119 26.5t94 71.5t68 104.5t39 125.5l184 1046h107l-191 -1071q-14 -82 -50 -155.5t-91 -130t-129 -89.5t-164 -33q-84 0 -152.5 28t-116.5 77t-74 116.5t-26 147.5z " /><glyph unicode="K" horiz-adv-x="1333" d="M92 0l258 1452h107l-160 -895l956 895h136l-578 -543l369 -909h-115l-336 834l-459 -433l-71 -401h-107z" /><glyph unicode="L" horiz-adv-x="1105" d="M92 0l258 1452h107l-240 -1352h754l-19 -100h-860z" /><glyph unicode="M" horiz-adv-x="1806" d="M92 0l258 1452h139l308 -1292l757 1292h160l-258 -1452h-106l233 1298l-758 -1278h-94l-309 1268l-223 -1288h-107z" /><glyph unicode="N" horiz-adv-x="1511" d="M92 0l258 1452h111l624 -1284l228 1284h106l-258 -1452h-110l-625 1288l-227 -1288h-107z" /><glyph unicode="O" horiz-adv-x="1343" d="M92 506q0 96 16.5 207.5t49 221t82 208t116.5 168.5q78 82 177.5 125t214.5 43q111 0 200.5 -39t153.5 -105q72 -72 106.5 -174t34.5 -223q0 -96 -15.5 -206.5t-48 -218t-80.5 -205t-116 -167.5q-78 -82 -177 -125t-214 -43q-111 0 -202 39t-154 105q-143 147 -144 389z M203 504q0 -211 125 -326q49 -47 115.5 -73.5t152.5 -26.5q88 0 165 33.5t138 95.5q59 59 103.5 149t73 191.5t43 205t14.5 187.5q0 104 -31 190.5t-92 143.5q-49 47 -115 73.5t-152 26.5q-88 0 -164.5 -33.5t-138.5 -95.5q-59 -59 -104 -151.5t-75 -194.5t-44 -206.5 t-14 -188.5z" /><glyph unicode="P" horiz-adv-x="1259" d="M92 0l258 1452h498q86 0 161.5 -24.5t132 -72.5t89.5 -119t33 -163q0 -125 -44 -215t-120 -148.5t-177.5 -86t-213.5 -27.5h-404l-106 -596h-107zM324 698h403q90 0 168 21.5t134 68t89 117t33 168.5q0 72 -25.5 124t-69.5 86t-102.5 50.5t-124.5 16.5h-391z" /><glyph unicode="Q" horiz-adv-x="1343" d="M94 506q0 96 16.5 207.5t49.5 221t82 208t116 168.5q78 82 177.5 125t214.5 43q111 0 200.5 -39t153.5 -105q72 -72 106.5 -174t34.5 -223q0 -96 -15.5 -206.5t-48 -218t-80.5 -205t-116 -167.5l-39 -37l103 -153l-78 -55l-101 153q-127 -76 -276 -76q-111 0 -202 39 t-154 105q-143 147 -144 389zM205 504q0 -211 125 -326q49 -47 115.5 -73.5t152.5 -26.5q117 0 213 59l-184 279l80 55l182 -276l12 12q59 59 103.5 149t73 191.5t43 205t14.5 187.5q0 104 -31 190.5t-92 143.5q-49 47 -115 73.5t-152 26.5q-88 0 -164.5 -33.5t-138.5 -95.5 q-59 -59 -104 -151.5t-75 -194.5t-44 -206.5t-14 -188.5z" /><glyph unicode="R" horiz-adv-x="1343" d="M92 0l258 1452h506q82 0 161 -21.5t138 -66.5t96 -112.5t37 -159.5q0 -186 -99 -303t-271 -152l202 -637h-114l-201 618h-496l-110 -618h-107zM326 717h424q82 0 159.5 20.5t136 63.5t94.5 110.5t36 161.5q0 74 -27 126t-72 86t-104.5 50.5t-126.5 16.5h-408z" /><glyph unicode="S" horiz-adv-x="1261" d="M55 426v39h111v-31q0 -92 32.5 -159.5t89 -111.5t131.5 -65.5t159 -21.5q72 0 143.5 19.5t129.5 59.5t95 100t37 142q0 37 -10 75t-36 73t-70 65.5t-113 48.5l-262 72q-59 16 -110.5 44t-91.5 68t-62.5 93t-22.5 119q0 86 28.5 152.5t77.5 117.5q84 86 178.5 120 t210.5 34q104 0 197.5 -37t161.5 -107q59 -59 87 -140t28 -171h-109q0 66 -18.5 124t-63.5 109q-53 59 -130 89t-169 30q-84 0 -157.5 -26.5t-127.5 -79.5q-37 -39 -60.5 -89.5t-23.5 -113.5q0 -98 60.5 -155.5t146.5 -80.5l264 -71q158 -43 234 -138.5t76 -209.5 q0 -92 -31 -165t-86 -126q-76 -74 -182.5 -111t-221.5 -37q-63 0 -125.5 9.5t-119 32t-106.5 59.5t-89 92q-41 57 -60.5 123.5t-19.5 136.5z" /><glyph unicode="T" horiz-adv-x="1091" d="M141 1350l19 102h1030l-19 -102h-462l-240 -1350h-107l240 1350h-461z" /><glyph unicode="U" horiz-adv-x="1419" d="M152 416q0 29 3 57.5t7 58.5l164 920h106l-162 -922q-4 -29 -7 -56.5t-3 -53.5q0 -80 23.5 -145.5t72.5 -110.5q45 -41 108.5 -64.5t149.5 -23.5q100 0 177 32.5t135 90.5q66 63 104.5 149t54.5 182l164 922h107l-164 -920q-23 -119 -66 -218t-114 -175 q-72 -76 -172.5 -121t-233.5 -45q-106 0 -186 33t-139 86q-63 57 -96 140t-33 184z" /><glyph unicode="V" horiz-adv-x="1157" d="M131 1452h107l231 -1298l684 1298h117l-778 -1452h-99z" /><glyph unicode="W" horiz-adv-x="1763" d="M209 1452h98l53 -1298l594 1276h97l163 -1276l496 1298h102l-561 -1452h-112l-162 1272l-594 -1272h-117z" /><glyph unicode="X" horiz-adv-x="1171" d="M-82 0l608 735l-348 717h109l309 -635l534 635h123l-604 -717l346 -735h-112l-305 649l-537 -649h-123z" /><glyph unicode="Y" horiz-adv-x="1083" d="M100 1452h109l305 -772l576 772h118l-655 -877l-102 -575h-107l102 575z" /><glyph unicode="Z" horiz-adv-x="1222" d="M-27 0l21 115l1098 1237h-869l19 100h995l-20 -115l-1100 -1237h907l-18 -100h-1033z" /><glyph unicode="[" horiz-adv-x="653" d="M70 -236l315 1797h360l-14 -84h-270l-287 -1629h270l-14 -84h-360z" /><glyph unicode="\" horiz-adv-x="808" d="M156 1479h88l383 -1506h-88z" /><glyph unicode="]" horiz-adv-x="653" d="M-115 -236l15 84h270l287 1629h-271l15 84h360l-315 -1797h-361z" /><glyph unicode="^" horiz-adv-x="1046" d="M158 829l327 650h113l324 -650h-113l-268 547l-271 -547h-112z" /><glyph unicode="_" horiz-adv-x="1081" d="M-53 0h950v-88h-950v88z" /><glyph unicode="`" horiz-adv-x="493" d="M154 1354l65 86l283 -238l-43 -53z" /><glyph unicode="a" horiz-adv-x="1148" d="M57 406q0 137 45 273t140 234q63 63 145 100.5t180 37.5q61 0 111.5 -19.5t89.5 -50.5t64.5 -65.5t35.5 -65.5l50 174h90l-183 -1024h-84l19 176q-18 -41 -53 -78t-78 -64.5t-94.5 -44t-104.5 -16.5q-92 0 -171 42t-126 112q-41 57 -58.5 128t-17.5 151zM160 416 q0 -66 11 -118t40 -101q33 -55 88 -89t141 -34q66 0 119 27.5t96 70.5t74 96.5t52.5 112.5t31.5 118.5t10 114.5q0 72 -11 129.5t-46 106.5q-35 47 -85 73.5t-128 26.5q-66 0 -129.5 -26.5t-108.5 -73.5q-78 -78 -116.5 -196.5t-38.5 -237.5z" /><glyph unicode="b" horiz-adv-x="1165" d="M72 0l262 1479h102q-27 -150 -52.5 -298.5t-53.5 -297.5q20 39 57 70.5t81 53t91 33t90 11.5q92 0 164 -39t120 -101.5t72.5 -143.5t24.5 -165q0 -113 -27.5 -224.5t-87 -201.5t-151.5 -146.5t-221 -56.5q-92 0 -172 45t-127 121q-4 8 -15.5 28.5t-15.5 37.5 q-10 -49 -24.5 -102.5t-26.5 -102.5h-90zM254 412q0 -68 20.5 -129.5t59.5 -107.5t95 -73.5t128 -27.5q100 0 171 49t116 125t64.5 168t19.5 176q0 68 -17.5 133.5t-54.5 115.5t-93 80.5t-132 30.5q-102 0 -189 -67q-53 -41 -89 -96.5t-58.5 -118t-31.5 -129t-9 -129.5z" /><glyph unicode="c" horiz-adv-x="1024" d="M57 395q0 145 47.5 286.5t149.5 240.5q59 57 135 93t174 36q84 0 149.5 -27t114.5 -74q47 -47 77 -111.5t30 -146.5v-14h-109v6q0 59 -20.5 107.5t-54.5 82.5q-76 76 -199 76q-74 0 -129 -27.5t-100 -72.5q-43 -41 -73 -95.5t-49.5 -113.5t-28.5 -121.5t-9 -120.5 q0 -78 25.5 -143.5t74.5 -110.5q37 -35 85 -53t114 -18q106 0 187 63.5t116 161.5h108q-20 -72 -60 -131t-95 -102t-122 -68t-140 -25q-88 0 -157 29t-120 80q-59 57 -90 137t-31 176z" /><glyph unicode="d" horiz-adv-x="1165" d="M57 406v8q0 33 1 65.5t8 67.5q23 127 79 235.5t150 180.5q53 39 116.5 63.5t137.5 24.5q66 0 122 -18.5t99 -51.5t72.5 -75t40.5 -89l116 662h105l-266 -1479h-88l18 176l-4 -12q-47 -92 -137 -141.5t-187 -49.5q-92 0 -163.5 36t-119.5 95.5t-74 138.5t-26 163zM160 416 q0 -70 18.5 -131.5t55 -108.5t93 -74.5t132.5 -27.5q57 0 102 19.5t84 47.5q53 39 89 94.5t58.5 117t33 127.5t10.5 132q0 72 -18.5 133.5t-55.5 107.5t-94.5 71.5t-132.5 25.5q-59 0 -106.5 -20.5t-88.5 -55.5q-72 -59 -113 -147t-57 -186q-6 -33 -8 -64t-2 -61z" /><glyph unicode="e" horiz-adv-x="1077" d="M57 422q0 135 41 264t138 227q59 59 139 98.5t190 39.5q88 0 157 -31t118 -80q118 -118 118 -317q0 -23 -1 -38.5t-3 -29.5t-5 -29.5t-7 -38.5h-782q-2 -16 -2 -30v-29q0 -82 22.5 -151.5t69.5 -118.5q80 -84 221 -84q49 0 96 15t88 43t73 66t48 83h109 q-10 -47 -44 -99.5t-69 -85.5q-63 -59 -144 -91t-167 -32q-92 0 -163 32t-122 85q-59 61 -89 142t-30 190zM174 582h680q2 10 2 20v23q0 70 -20.5 129t-58.5 103t-94 69.5t-130 25.5q-90 0 -155.5 -39t-112.5 -92q-41 -47 -69 -109.5t-42 -129.5z" /><glyph unicode="f" horiz-adv-x="704" d="M94 930l17 94h206l33 188q20 117 97 190t198 73q55 0 100.5 -10.5t90.5 -24.5l-17 -92q-39 12 -84 23t-92 11q-90 0 -133 -48t-59 -134l-31 -176h319l-16 -94h-322l-163 -930h-103l164 930h-205z" /><glyph unicode="g" horiz-adv-x="1005" d="M-57 -160q0 59 20.5 105.5t61.5 87.5q20 20 50.5 38.5t59.5 26.5q-41 27 -60.5 59.5t-19.5 80.5q0 72 50.5 122t111.5 78q-41 41 -64.5 94.5t-23.5 120.5q0 86 32 160t86 127t128 83t160 30q66 0 126 -17.5t109 -52.5q29 55 82 95t131 40q16 0 32.5 -2t26.5 -6l-14 -90 q-12 4 -25.5 6t-27.5 2q-47 0 -86 -29.5t-58 -72.5q35 -41 53.5 -90.5t18.5 -110.5q0 -86 -31.5 -158.5t-87 -124t-130 -80t-158.5 -28.5q-115 0 -207 51q-23 -6 -47.5 -19.5t-44 -31t-31.5 -39t-12 -47.5q0 -47 32.5 -67.5t67.5 -24.5l336 -41q51 -6 99 -23.5t85 -48.5 t59.5 -77t22.5 -109q0 -55 -18.5 -100.5t-53.5 -80.5q-35 -37 -81 -63.5t-97 -44t-104 -24.5t-103 -7q-98 0 -197.5 21.5t-172.5 89.5q-35 33 -60.5 82t-25.5 110zM37 -145q0 -76 57 -134q29 -29 66 -46t78 -26t84 -13.5t81 -4.5q74 0 156 21.5t137 75.5q25 25 41.5 55.5 t16.5 69.5q0 82 -57.5 120.5t-139.5 49.5l-315 36q-8 0 -24.5 -2t-24.5 -6q-68 -25 -112 -74t-44 -122zM229 662q0 -57 21.5 -103.5t58.5 -75.5q37 -31 87 -44t106 -13q63 0 117.5 21.5t94.5 59.5t63.5 91t23.5 119q0 57 -22.5 102t-60.5 77t-87 48.5t-103 16.5 q-63 0 -117.5 -23t-94.5 -62.5t-63.5 -95t-23.5 -118.5z" /><glyph unicode="h" horiz-adv-x="1187" d="M72 0l262 1479h102l-110 -629q35 47 73.5 81t89.5 62q104 57 218 58q143 0 222 -84t79 -213q0 -39 -7 -78l-120 -676h-103l119 674q6 33 6 65q0 88 -50 149.5t-165 61.5q-90 0 -161.5 -39t-125 -101t-87 -140t-48.5 -158l-92 -512h-102z" /><glyph unicode="i" horiz-adv-x="493" d="M72 0l182 1024h108l-184 -1024h-106zM285 1309l24 143h144l-25 -143h-143z" /><glyph unicode="j" horiz-adv-x="495" d="M-299 -377l18 101q35 -18 80 -35t88 -17q76 0 111 52.5t47 119.5l211 1180h104l-215 -1200q-10 -51 -27.5 -96t-47 -79t-71.5 -54.5t-99 -20.5q-53 0 -103.5 12.5t-95.5 36.5zM287 1309l24 143h144l-25 -143h-143z" /><glyph unicode="k" horiz-adv-x="1091" d="M72 0l262 1479h104l-188 -1065l674 610h139l-432 -395l299 -629h-119l-264 551l-326 -297l-45 -254h-104z" /><glyph unicode="l" horiz-adv-x="550" d="M98 150v26q0 14 4 29l228 1274h102l-227 -1270q-2 -10 -3 -20.5t-1 -20.5q0 -47 28.5 -64.5t65.5 -17.5q25 0 51.5 7t48.5 16l-16 -97q-23 -10 -50.5 -17t-54.5 -7q-76 0 -126 42t-50 120z" /><glyph unicode="m" horiz-adv-x="1783" d="M72 0l182 1024h90l-20 -176q25 39 61.5 76t80.5 65.5t94 45t104 16.5q74 0 128 -20.5t89 -55.5q29 -29 45 -68t18 -78q25 43 64 83t87 71t103 49.5t117 18.5q143 0 216 -74t73 -197q0 -25 -3.5 -50t-7.5 -54l-118 -676h-103l117 670q4 25 7 47t3 45q0 192 -199 192h-2 q-61 0 -107 -21.5t-87 -53.5q-70 -55 -116 -138.5t-64 -189.5l-99 -551h-102l117 670q4 25 6 47t2 45q0 86 -46 139t-155 53q-59 0 -105 -20.5t-87 -52.5q-80 -66 -124 -162t-65 -207l-92 -512h-102z" /><glyph unicode="n" horiz-adv-x="1187" d="M72 0l182 1024h90l-20 -186q31 49 73.5 88t94 66.5t106.5 43t109 15.5q143 0 222 -84t79 -213q0 -39 -7 -78l-120 -676h-103l119 674q6 33 6 65q0 88 -50 149.5t-165 61.5q-90 0 -161.5 -39t-125 -101t-87 -140t-48.5 -158l-92 -512h-102z" /><glyph unicode="o" horiz-adv-x="1093" d="M57 401q0 154 54.5 304.5t177.5 248.5q59 47 129.5 72t148.5 25q98 0 172 -38t123 -98q47 -57 71.5 -131.5t24.5 -160.5q0 -154 -54 -304.5t-177 -248.5q-59 -47 -130 -72t-148 -25q-98 0 -172 38t-123 98q-47 57 -72 130.5t-25 161.5zM162 408q0 -137 69 -230 q37 -47 92.5 -75.5t135.5 -28.5q63 0 116.5 22.5t94.5 57.5q47 39 81.5 93t57 115.5t34 127t11.5 126.5q0 137 -68 228q-37 47 -93 76.5t-136 29.5q-63 0 -116.5 -22.5t-94.5 -57.5q-47 -41 -82 -95t-57.5 -115.5t-33.5 -126t-11 -125.5z" /><glyph unicode="p" d="M-2 -410l254 1434h90l-14 -135q25 39 62.5 68.5t81.5 50t90 32t89 11.5q92 0 163 -39t120 -101.5t73.5 -143.5t24.5 -165q0 -113 -27.5 -224.5t-87 -201.5t-151.5 -146.5t-221 -56.5q-92 0 -173 45t-128 121q-4 10 -16.5 30.5t-16.5 37.5l-111 -617h-102zM256 412 q0 -68 20.5 -129.5t59.5 -107.5t95 -73.5t128 -27.5q100 0 171 49t116 125t64.5 168t19.5 176q0 68 -17.5 133.5t-54.5 115.5t-93 80.5t-132 30.5q-102 0 -189 -67q-53 -41 -89 -96.5t-58.5 -118t-31.5 -129t-9 -129.5z" /><glyph unicode="q" horiz-adv-x="1159" d="M57 406q0 78 12.5 156.5t41 151t73.5 136t111 113.5q53 39 116.5 63.5t137.5 24.5q63 0 119.5 -18.5t99.5 -51.5t72.5 -75t40.5 -89l47 207h90l-254 -1434h-102l94 533q-51 -72 -135 -111t-177 -39q-92 0 -163.5 36t-121.5 95.5t-76 138.5t-26 163zM160 416 q0 -70 18.5 -132.5t56 -109.5t95 -74.5t133.5 -27.5q57 0 103 19.5t85 47.5q53 39 88 94.5t56.5 118t31 128.5t9.5 132q0 72 -18.5 133.5t-55.5 107.5t-94.5 71.5t-132.5 25.5q-59 0 -106.5 -20.5t-88.5 -55.5q-47 -39 -82 -93t-56.5 -114.5t-31.5 -125t-10 -125.5z" /><glyph unicode="r" horiz-adv-x="778" d="M72 0l184 1024h90l-24 -199q51 104 151 156.5t213 52.5q25 0 49 -4l49 -8l-18 -102q-25 6 -49.5 11t-48.5 5q-88 0 -157 -38t-119 -99.5t-80.5 -138t-45.5 -152.5l-94 -508h-100z" /><glyph unicode="s" horiz-adv-x="1021" d="M35 303q0 8 1 14.5t1 14.5h104v-19q0 -94 62 -151q53 -51 114.5 -70.5t141.5 -19.5q68 0 122 18.5t101 65.5q29 27 41 57.5t12 73.5q0 119 -153 166l-191 55q-47 14 -90 32.5t-78 51.5q-67 60 -67 150q0 69 21.5 116t64.5 88q47 45 120.5 75t165.5 30q74 0 140.5 -19.5 t117 -59.5t79 -99.5t28.5 -137.5h-105q0 57 -22.5 99.5t-61 69t-88 39.5t-100.5 13q-59 0 -114.5 -19t-92.5 -58q-49 -49 -49 -117q0 -23 6 -44.5t25 -43.5q20 -23 53 -37t78 -29l188 -55q123 -35 176.5 -105.5t53.5 -152.5q0 -63 -26 -121.5t-73 -99.5q-55 -47 -130.5 -74 t-161.5 -27q-111 0 -193 34t-137 91q-41 41 -62.5 94.5t-21.5 110.5z" /><glyph unicode="t" horiz-adv-x="753" d="M84 930l16 94h205l51 283l107 28l-55 -311h317l-16 -94h-318l-112 -641q-4 -18 -6.5 -38t-2.5 -38q0 -72 40 -101.5t106 -29.5q45 0 99 16.5t89 32.5l-18 -98q-35 -18 -88.5 -32.5t-98.5 -14.5q-98 0 -165.5 52t-67.5 159q0 49 8 88l115 645h-205z" /><glyph unicode="u" horiz-adv-x="1171" d="M109 268q0 20 2 40t6 40l119 676h104l-119 -670q-6 -37 -6 -69q0 -88 48 -149.5t161 -61.5q90 0 160.5 39t122 101t84 140t47.5 158l90 512h102l-180 -1024h-90l18 186q-31 -49 -71.5 -88t-90 -66.5t-103.5 -43t-107 -15.5q-143 0 -220 83t-77 212z" /><glyph unicode="v" horiz-adv-x="958" d="M74 1024h108l189 -879l485 879h115l-570 -1024h-104z" /><glyph unicode="w" horiz-adv-x="1519" d="M135 1024h98l62 -901l459 887h108l148 -879l381 893h96l-436 -1024h-117l-146 877l-454 -877h-127z" /><glyph unicode="x" horiz-adv-x="964" d="M-88 0l463 524l-273 500h115l234 -432l391 432h127l-455 -500l274 -524h-114l-234 451l-399 -451h-129z" /><glyph unicode="y" horiz-adv-x="980" d="M-156 -365l17 93q35 -25 77 -43.5t80 -18.5q66 0 104 34t68 87l119 209l-235 1028h108l201 -909l504 909h110l-723 -1288q-41 -72 -101 -118t-146 -46q-41 0 -93.5 17.5t-89.5 45.5z" /><glyph unicode="z" horiz-adv-x="991" d="M-12 0l20 115l785 813h-641l18 96h760l-21 -113l-784 -813h653l-18 -98h-772z" /><glyph unicode="{" horiz-adv-x="714" d="M113 614l16 97q84 10 156.5 57t89.5 133l63 367q10 61 39 114.5t74 93.5t102.5 62.5t126.5 22.5h54l-15 -86h-53q-102 0 -159.5 -60.5t-74.5 -146.5l-63 -367q-16 -96 -76.5 -158.5t-159.5 -80.5q68 -18 111 -72.5t43 -126.5q0 -10 -1 -20.5t-3 -20.5l-64 -367 q-2 -12 -3 -24.5t-1 -24.5q0 -72 41 -115t123 -43h53l-14 -86h-53q-115 0 -180.5 59.5t-65.5 168.5q0 31 6 65l64 367q2 10 2 31q0 72 -53.5 112.5t-124.5 48.5z" /><glyph unicode="|" horiz-adv-x="524" d="M219 -236v1795h86v-1795h-86z" /><glyph unicode="}" horiz-adv-x="714" d="M-119 -238l15 86h53q106 0 161.5 59.5t71.5 147.5l64 367q16 92 79.5 158.5t155.5 83.5q-63 16 -107 73.5t-44 128.5v17q0 8 2 18l63 367q6 31 6 59q0 72 -39.5 110t-125.5 38h-54l15 86h53q111 0 178.5 -55.5t67.5 -168.5q0 -33 -7 -69l-63 -367q-2 -10 -2 -31 q0 -72 53 -111.5t125 -47.5l-16 -97q-84 -8 -157 -57t-89 -135l-64 -367q-27 -147 -113.5 -220t-228.5 -73h-53z" /><glyph unicode="~" horiz-adv-x="1265" d="M147 614q63 53 133 89t156 36q55 0 103.5 -18.5t92.5 -40t89 -39.5t94 -18q63 0 114.5 25.5t100.5 62.5l51 -74q-63 -53 -131.5 -90t-154.5 -37q-53 0 -100.5 19.5t-92.5 42t-90 42t-96 19.5q-63 0 -115.5 -27.5t-99.5 -66.5z" /><glyph unicode="&#xa1;" horiz-adv-x="624" d="M57 -418l72 398l135 589h70l-74 -589l-72 -398h-131zM274 879l29 155h156l-29 -155h-156z" /><glyph unicode="&#xa2;" d="M145 600q0 145 47.5 286.5t149.5 239.5q55 53 126 89t161 40l35 197h84l-35 -201q61 -8 111 -32.5t91 -63.5q47 -47 77 -111.5t30 -146.5v-14h-109v6q0 59 -20.5 107t-54.5 83q-55 55 -144 72l-155 -872h10q53 0 100 16t86 47t69 72t48 90h109q-20 -72 -60.5 -131.5 t-95.5 -102.5t-122 -67.5t-140 -24.5h-21l-33 -178h-83l34 190q-53 12 -96 37t-78 60q-59 57 -90 137t-31 176zM250 604q0 -78 25.5 -143.5t74.5 -110.5q49 -41 107 -59l153 862q-63 -6 -111 -31.5t-89 -66.5q-43 -41 -73 -95.5t-49.5 -114t-28.5 -121.5t-9 -120z" /><glyph unicode="&#xa3;" d="M12 0l21 113q78 6 130 51t68 137l74 412h-170l17 92h170l40 237q35 207 151 309.5t286 102.5q76 0 135 -25.5t98 -68.5t59.5 -99.5t20.5 -115.5q0 -12 -1 -24.5t-3 -24.5h-100q2 10 2 18v21q0 96 -56.5 160.5t-169.5 64.5q-80 0 -135 -28.5t-93 -75t-59.5 -103.5 t-31.5 -115l-41 -233h373l-17 -92h-372l-76 -422q-4 -25 -13.5 -53.5t-24.5 -54t-38 -46t-53 -33.5v-4h493q117 0 181.5 64.5t83.5 154.5h96q-33 -162 -135.5 -240.5t-243.5 -78.5h-666z" /><glyph unicode="&#xa4;" d="M80 63l164 144q-53 61 -83 141t-30 170q0 88 27.5 166t79.5 139l-158 138l82 81l137 -159q57 47 129 73.5t156 26.5t155.5 -26.5t128.5 -73.5l136 159l81 -81l-157 -138q51 -61 79.5 -139t28.5 -166q0 -90 -29.5 -169t-82.5 -142l161 -144l-81 -79l-142 163 q-57 -45 -127.5 -70.5t-150.5 -25.5q-82 0 -153 24.5t-128 71.5l-141 -163zM227 518q0 -76 27 -144.5t74 -119.5t112.5 -81t143.5 -30t143.5 30t112.5 81t73.5 119.5t26.5 144.5t-26.5 143.5t-73.5 118.5t-112.5 81t-143.5 30t-143.5 -30t-112.5 -81t-74 -118.5t-27 -143.5z " /><glyph unicode="&#xa5;" d="M53 272l15 84h344l37 207l-3 4h-342l15 82h295l-305 774h104l301 -757l565 757h115l-580 -774h338l-14 -82h-385l-2 -4l-37 -207h387l-14 -84h-387l-49 -272h-103l49 272h-344z" /><glyph unicode="&#xa6;" horiz-adv-x="536" d="M219 -102v651h98v-651h-98zM219 897v657h98v-657h-98z" /><glyph unicode="&#xa7;" horiz-adv-x="1112" d="M63 -188q0 18 3.5 36.5t7.5 36.5h102q-6 -35 -6 -69q0 -104 60.5 -161.5t164.5 -57.5q51 0 95.5 17t78 48t53 74t19.5 96q0 47 -18.5 88t-49.5 76l-352 407q-39 45 -60.5 93.5t-21.5 107.5q0 117 62.5 200t167.5 130q-29 41 -46.5 89t-17.5 97q0 72 30 133.5t79 105.5 t114.5 69.5t137.5 25.5q70 0 129 -21.5t102 -62.5t67.5 -98t24.5 -127q0 -35 -6 -72h-106q6 33 6 68q0 104 -61.5 160.5t-164.5 56.5q-49 0 -93 -18.5t-77.5 -50.5t-54 -75t-20.5 -92q0 -47 18.5 -89t48.5 -77l352 -405q39 -45 60.5 -93t21.5 -108q0 -117 -61 -202 t-166 -132q29 -41 45.5 -87t16.5 -95q0 -74 -30 -135t-80 -105.5t-115.5 -69t-135.5 -24.5t-129 21.5t-102 62.5t-68 98.5t-25 129.5zM238 618q0 -45 16 -79.5t45 -69.5l334 -385q84 35 133 97.5t49 154.5q0 45 -16.5 80t-44.5 69l-332 385q-84 -35 -134 -97t-50 -155z" /><glyph unicode="&#xa8;" horiz-adv-x="591" d="M141 1276l23 129h123l-23 -129h-123zM518 1276l23 129h125l-23 -129h-125z" /><glyph unicode="&#xa9;" horiz-adv-x="1798" d="M154 725q0 156 57 294t158.5 239.5t236.5 161t293 59.5q156 0 292 -59.5t237.5 -161t159 -239.5t57.5 -294q0 -158 -57.5 -294t-159 -238.5t-237.5 -161t-292 -58.5q-158 0 -293 58.5t-236.5 161t-158.5 238.5t-57 294zM252 725q0 -139 49 -259t136 -209t206 -140 t256 -51t256 51t206 140t136 209t49 259q0 137 -49 259t-136 211t-206 141.5t-256 52.5t-256 -52.5t-206 -141.5t-136 -211t-49 -259zM555 727q0 80 25.5 153.5t72.5 130t114 91.5t151 35q63 0 121.5 -20.5t102.5 -58.5t72.5 -94.5t34.5 -127.5h-104q-8 94 -71.5 148 t-155.5 54q-63 0 -111.5 -27.5t-80.5 -71.5t-48 -99.5t-16 -112.5q0 -68 16 -128t57 -110q63 -74 176 -73q92 0 159 54t75 148h104q-6 -72 -35.5 -128t-75.5 -94t-104.5 -58.5t-122.5 -20.5q-82 0 -145.5 30t-110.5 83q-53 59 -76.5 133t-23.5 164z" /><glyph unicode="&#xaa;" horiz-adv-x="999" d="M195 870q0 104 70.5 165t187.5 69l286 20v74q0 96 -57 136t-147 40q-92 0 -151.5 -43t-66.5 -129h-81q8 121 90 185.5t209 64.5q39 0 79.5 -7t76.5 -24.5t64.5 -45t45.5 -68.5q14 -37 17 -74t3 -76v-354q0 -41 10.5 -62.5t49.5 -21.5q12 0 22 2v-72q-16 -4 -20 -4h-19 q-72 0 -97.5 42t-27.5 101q-29 -66 -103.5 -112.5t-168.5 -46.5q-57 0 -106.5 15t-86 46t-58 76t-21.5 104zM279 870q0 -84 54 -124.5t140 -40.5q72 0 122 27.5t83 71.5t47 99t14 111v35l-280 -17q-86 -4 -133 -47t-47 -115z" /><glyph unicode="&#xab;" horiz-adv-x="1069" d="M102 604l406 438l57 -49l-348 -397l209 -395l-72 -49zM526 604l406 438l57 -49l-348 -397l209 -395l-72 -49z" /><glyph unicode="&#xac;" horiz-adv-x="1265" d="M127 571v95h950v-422h-96v327h-854z" /><glyph unicode="&#xad;" horiz-adv-x="882" d="M125 571l16 95h580l-16 -95h-580z" /><glyph unicode="&#xae;" horiz-adv-x="1792" d="M147 725q0 156 57.5 293t159 239.5t236.5 161t293 58.5q156 0 292 -58.5t237.5 -161t158.5 -239.5t57 -293q0 -158 -57 -294t-158.5 -238.5t-237.5 -161t-292 -58.5q-158 0 -293 58.5t-236.5 161t-159 238.5t-57.5 294zM246 725q0 -139 49 -259t136 -209t206 -140 t256 -51t256 51t206 140t136 209t49 259q0 137 -49 258t-136 211t-206 141t-256 51t-256 -51t-206 -141t-136 -211t-49 -258zM645 328v805h281q68 0 118 -20.5t83.5 -56.5t50 -82t16.5 -95q0 -76 -39 -138.5t-117 -91.5l148 -321h-111l-135 301h-199v-301h-96zM741 727h183 q92 0 132 48.5t40 105.5t-39 105t-131 48h-185v-307z" /><glyph unicode="&#xaf;" horiz-adv-x="602" d="M143 1221l17 96h536l-16 -96h-537z" /><glyph unicode="&#xb0;" horiz-adv-x="972" d="M215 1141q0 70 26.5 132t72.5 108t108.5 73t132.5 27t131.5 -27t107.5 -73t72.5 -108t26.5 -132t-26.5 -132.5t-72.5 -108.5t-107.5 -72.5t-131.5 -26.5t-132.5 26.5t-108.5 72.5t-72.5 108.5t-26.5 132.5zM309 1141q0 -53 18.5 -98.5t52.5 -79t78 -53t97 -19.5 q51 0 96 19.5t78 53t51.5 79t18.5 98.5q0 51 -18.5 97t-51.5 80t-78 53.5t-96 19.5q-53 0 -97 -19.5t-78 -53.5t-52.5 -80t-18.5 -97z" /><glyph unicode="&#xb1;" horiz-adv-x="1163" d="M123 0v90h868v-90h-868zM123 721v90h387v391h96v-391h385v-90h-385v-404h-96v404h-387z" /><glyph unicode="&#xb2;" horiz-adv-x="843" d="M154 719l12 76l373 295q41 31 77.5 72.5t36.5 97.5q0 43 -31.5 79.5t-97.5 36.5q-84 0 -133 -49t-61 -121h-99q10 55 35 102.5t65 83t92 56t118 20.5q43 0 82 -16t67.5 -43t45 -61.5t16.5 -73.5q0 -49 -16.5 -88t-43 -72t-61.5 -60.5t-70 -54.5l-246 -190h385l-14 -90 h-532z" /><glyph unicode="&#xb3;" horiz-adv-x="921" d="M205 920q0 8 1 14t1 14h94q0 -6 -1 -12t-1 -12q0 -72 51 -110t119 -38q92 0 149 51q23 18 37.5 45t14.5 64q0 61 -46 84.5t-98 23.5h-55l16 86h62q61 0 110.5 32t49.5 100q0 55 -41 87.5t-101 32.5q-72 0 -123 -31.5t-73 -97.5h-103q29 104 114 158.5t200 54.5 q49 0 90 -14t71.5 -41t48 -61.5t17.5 -75.5q0 -63 -40 -115.5t-101 -71.5q45 -12 71.5 -55t26.5 -94q0 -61 -29.5 -109.5t-74.5 -78.5q-86 -59 -203 -60q-111 0 -182.5 63.5t-71.5 166.5z" /><glyph unicode="&#xb4;" horiz-adv-x="493" d="M156 1212l364 238l43 -90l-383 -203z" /><glyph unicode="&#xb5;" horiz-adv-x="1210" d="M176 -410v1434h103v-670q0 -135 61 -207.5t203 -72.5q94 0 159.5 36.5t105.5 98t57.5 140.5t17.5 163v512h102v-1024h-90l-12 186q-23 -49 -59 -88t-82 -66.5t-99 -43t-106 -15.5q-106 0 -166 31t-92 70v-484h-103z" /><glyph unicode="&#xb6;" horiz-adv-x="1376" d="M240 1053q0 86 34.5 159.5t93 126t137.5 82t167 29.5h690l-16 -98h-205l-285 -1608h-100l284 1608h-284l-285 -1608h-100l174 977q-63 4 -118.5 32.5t-97.5 74.5t-65.5 103.5t-23.5 121.5z" /><glyph unicode="&#xb7;" horiz-adv-x="577" d="M145 522l33 185h180l-32 -185h-181z" /><glyph unicode="&#xb8;" horiz-adv-x="352" d="M-82 -369l193 275h100l-193 -328z" /><glyph unicode="&#xb9;" horiz-adv-x="657" d="M201 1186l20 110l232 156h92l-131 -745h-97l111 630z" /><glyph unicode="&#xba;" horiz-adv-x="999" d="M197 1038q0 98 22.5 178t83.5 142q41 41 99.5 66.5t132.5 25.5t131 -25.5t98 -66.5q61 -61 83.5 -141.5t22.5 -178.5t-22.5 -178t-83.5 -141q-41 -41 -98.5 -66.5t-130.5 -25.5q-74 0 -132.5 25.5t-99.5 66.5q-61 61 -83.5 141t-22.5 178zM281 1038q0 -76 13 -143.5 t66 -120.5q61 -66 175 -65q109 0 170 65q53 53 67 120.5t14 143.5t-14 143.5t-67 121.5q-29 31 -72 49t-98 18t-100.5 -18.5t-74.5 -48.5q-53 -53 -66 -121t-13 -144z" /><glyph unicode="&#xbb;" horiz-adv-x="1032" d="M49 201l346 397l-207 395l72 49l252 -452l-408 -438zM473 201l348 397l-209 395l70 49l254 -452l-408 -438z" /><glyph unicode="&#xbc;" horiz-adv-x="1714" d="M184 31l1313 1442l64 -54l-1313 -1444zM281 1186l18 110l233 156h93l-133 -745h-97l113 630zM870 166l19 100l407 494h113l-416 -504h275l30 170h97l-31 -170h131l-16 -90h-131l-29 -166h-94l26 166h-381z" /><glyph unicode="&#xbd;" horiz-adv-x="1843" d="M184 31l1313 1442l64 -54l-1313 -1444zM281 1186l18 110l233 156h93l-133 -745h-97l113 630zM989 0l12 76l373 295q41 31 78 72.5t37 97.5q0 43 -32 79.5t-97 36.5q-84 0 -133 -49t-62 -121h-98q10 55 34.5 102.5t64.5 83.5t92.5 56.5t117.5 20.5q43 0 82 -16.5t67.5 -43 t45 -61.5t16.5 -74q0 -49 -16.5 -88t-43 -72t-61 -60.5t-69.5 -53.5l-246 -191h385l-14 -90h-533z" /><glyph unicode="&#xbe;" horiz-adv-x="1824" d="M205 920q0 8 1 14t1 14h94q0 -6 -1 -12t-1 -12q0 -72 51 -110t119 -38q92 0 149 51q23 18 37.5 45t14.5 64q0 61 -46 84.5t-98 23.5h-55l16 86h62q61 0 110.5 32t49.5 100q0 55 -41 87.5t-101 32.5q-72 0 -123 -31.5t-73 -97.5h-103q29 104 114 158.5t200 54.5 q49 0 90 -14t71.5 -41t48 -61.5t17.5 -75.5q0 -63 -40 -115.5t-101 -71.5q45 -12 71.5 -55t26.5 -94q0 -61 -29.5 -109.5t-74.5 -78.5q-86 -59 -203 -60q-111 0 -182.5 63.5t-71.5 166.5zM295 31l1313 1442l63 -54l-1313 -1444zM979 166l18 100l410 494h113l-418 -504h274 l31 170h96l-30 -170h131l-17 -90h-131l-29 -166h-96l29 166h-381z" /><glyph unicode="&#xbf;" horiz-adv-x="995" d="M-43 -104q0 72 22.5 132t61.5 110t91 90t114 71q55 29 92 59.5t61.5 67.5t39 81t24.5 99l108 2q-14 -82 -35.5 -141t-55.5 -104.5t-84 -83t-122 -76.5q-92 -49 -146 -122t-54 -181q0 -63 23.5 -109.5t63.5 -77t93 -46t111 -15.5q135 0 228 76.5t116 212.5h110 q-16 -90 -56 -162t-100.5 -124t-138.5 -80t-168 -28q-96 0 -185 35t-146 115q-33 45 -50.5 94t-17.5 105zM483 864l27 160h160l-27 -160h-160z" /><glyph unicode="&#xc0;" horiz-adv-x="1245" d="M-113 0l809 1452h105l299 -1452h-103l-79 383h-703l-211 -383h-117zM272 483h625l-170 822zM592 1821l65 86l283 -238l-43 -53z" /><glyph unicode="&#xc1;" horiz-adv-x="1245" d="M-113 0l809 1452h105l299 -1452h-103l-79 383h-703l-211 -383h-117zM272 483h625l-170 822zM539 1628l364 238l43 -90l-383 -203z" /><glyph unicode="&#xc2;" horiz-adv-x="1245" d="M-113 0l809 1452h103l303 -1452h-105l-79 383h-703l-211 -383h-117zM272 483h625l-170 822zM459 1645l287 217h100l205 -228l-76 -61l-188 209l-275 -209z" /><glyph unicode="&#xc3;" horiz-adv-x="1245" d="M-113 0l809 1452h105l299 -1452h-103l-79 383h-703l-211 -383h-117zM272 483h625l-170 822zM487 1722q35 33 76 55.5t92 22.5q37 0 70 -13t63.5 -28.5t60.5 -29t60 -13.5q35 0 57.5 12.5t47.5 34.5l43 -55q-35 -31 -75 -54.5t-91 -23.5q-37 0 -70 13.5t-63.5 29t-62 28.5 t-64.5 13t-56.5 -13t-46.5 -34z" /><glyph unicode="&#xc4;" horiz-adv-x="1245" d="M-113 0l809 1452h105l299 -1452h-103l-79 383h-703l-211 -383h-117zM272 483h625l-170 822zM504 1624l22 129h123l-22 -129h-123zM881 1624l22 129h125l-22 -129h-125z" /><glyph unicode="&#xc5;" horiz-adv-x="1245" d="M-113 0l779 1397q-66 25 -101 80t-35 127q0 96 60.5 159.5t169.5 63.5t169 -63.5t60 -159.5q0 -84 -45 -143.5t-129 -76.5l285 -1384h-103l-79 383h-703l-211 -383h-117zM272 483h625l-170 822zM612 1602q0 -61 40 -104.5t108 -43.5t107.5 45.5t39.5 106.5t-40 104 t-107 43q-68 0 -108 -45t-40 -106z" /><glyph unicode="&#xc6;" horiz-adv-x="1798" d="M-137 0l901 1452h1063l-19 -98h-712l-92 -529h610l-19 -100h-610l-111 -625h713l-18 -100h-817l71 406h-594l-247 -406h-119zM293 504h549l149 850h-178z" /><glyph unicode="&#xc7;" horiz-adv-x="1255" d="M92 506q0 98 14.5 208.5t45 217t80 203t116.5 168.5q80 84 178.5 130t221.5 46q106 0 191 -36t146 -102t98.5 -152.5t37.5 -184.5h-111q0 78 -27.5 147.5t-74.5 118.5q-98 104 -267 104q-92 0 -168.5 -37t-140.5 -100q-61 -61 -104 -150.5t-71 -188.5t-41 -202.5 t-13 -191.5q0 -111 34.5 -194t90.5 -136q49 -47 111.5 -71.5t154.5 -24.5q86 0 153.5 29.5t124.5 82.5q47 43 82 99.5t54 128.5h110q-16 -72 -59 -151t-94 -132q-158 -162 -379 -162q-111 0 -199 37t-154 103q-141 145 -141 393zM297 -369l192 275h101l-193 -328z" /><glyph unicode="&#xc8;" horiz-adv-x="1263" d="M92 0l258 1452h920l-19 -102h-813l-94 -533h721l-18 -104h-721l-109 -611h823l-18 -102h-930zM627 1782l65 86l283 -238l-43 -53z" /><glyph unicode="&#xc9;" horiz-adv-x="1263" d="M92 0l258 1452h920l-19 -102h-813l-94 -533h721l-18 -104h-721l-109 -611h823l-18 -102h-930zM674 1628l364 238l43 -90l-383 -203z" /><glyph unicode="&#xca;" horiz-adv-x="1263" d="M92 0l258 1452h920l-19 -102h-813l-94 -533h721l-18 -104h-721l-109 -611h823l-18 -102h-930zM528 1645l287 217h100l205 -228l-76 -61l-188 209l-275 -209z" /><glyph unicode="&#xcb;" horiz-adv-x="1263" d="M92 0l258 1452h920l-19 -102h-813l-94 -533h721l-18 -104h-721l-109 -611h823l-18 -102h-930zM582 1665l22 129h123l-22 -129h-123zM958 1665l23 129h125l-23 -129h-125z" /><glyph unicode="&#xcc;" horiz-adv-x="550" d="M92 0l258 1452h109l-258 -1452h-109zM262 1821l66 86l282 -238l-43 -53z" /><glyph unicode="&#xcd;" horiz-adv-x="550" d="M92 0l258 1452h109l-258 -1452h-109zM262 1636l328 215l39 -82l-344 -182z" /><glyph unicode="&#xce;" horiz-adv-x="550" d="M92 0l258 1452h109l-258 -1452h-109zM125 1645l287 217h100l205 -228l-76 -61l-188 209l-275 -209z" /><glyph unicode="&#xcf;" horiz-adv-x="550" d="M92 0l258 1452h109l-258 -1452h-109zM240 1665l22 129h123l-23 -129h-122zM514 1665l23 129h125l-23 -129h-125z" /><glyph unicode="&#xd0;" horiz-adv-x="1368" d="M66 711l14 86h156l116 655h465q111 0 196 -36t141 -100.5t86 -154.5t30 -196q0 -102 -16.5 -220t-51.5 -232t-91 -213t-136 -165q-84 -68 -186.5 -101.5t-208.5 -33.5h-486l127 711h-155zM219 104h379q84 0 162 27t141 80q68 55 117 145t80.5 192.5t46 208t14.5 193.5 q0 86 -20.5 160t-63.5 126t-110.5 82t-159.5 30h-365l-98 -551h348l-14 -86h-348z" /><glyph unicode="&#xd1;" horiz-adv-x="1511" d="M92 0l258 1452h111l624 -1284l228 1284h106l-258 -1452h-110l-625 1288l-227 -1288h-107zM618 1669q35 33 76 55.5t92 22.5q37 0 70 -13.5t63.5 -28.5t60.5 -28.5t60 -13.5q35 0 57.5 12.5t47.5 34.5l43 -55q-35 -31 -75 -54.5t-91 -23.5q-37 0 -69.5 13.5t-63.5 28.5 t-62.5 28.5t-64.5 13.5t-56.5 -13.5t-46.5 -33.5z" /><glyph unicode="&#xd2;" horiz-adv-x="1343" d="M92 506q0 96 16.5 207.5t49 221t82 208t116.5 168.5q78 82 177.5 125t214.5 43q111 0 200.5 -39t153.5 -105q72 -72 106.5 -174t34.5 -223q0 -96 -15.5 -206.5t-48 -218t-80.5 -205t-116 -167.5q-78 -82 -177 -125t-214 -43q-111 0 -202 39t-154 105q-143 147 -144 389z M203 504q0 -211 125 -326q49 -47 115.5 -73.5t152.5 -26.5q88 0 165 33.5t138 95.5q59 59 103.5 149t73 191.5t43 205t14.5 187.5q0 104 -31 190.5t-92 143.5q-49 47 -115 73.5t-152 26.5q-88 0 -164.5 -33.5t-138.5 -95.5q-59 -59 -104 -151.5t-75 -194.5t-44 -206.5 t-14 -188.5zM670 1798l65 86l283 -237l-43 -54z" /><glyph unicode="&#xd3;" horiz-adv-x="1343" d="M92 506q0 96 16.5 207.5t49 221t82 208t116.5 168.5q78 82 177.5 125t214.5 43q111 0 200.5 -39t153.5 -105q72 -72 106.5 -174t34.5 -223q0 -96 -15.5 -206.5t-48 -218t-80.5 -205t-116 -167.5q-78 -82 -177 -125t-214 -43q-111 0 -202 39t-154 105q-143 147 -144 389z M203 504q0 -211 125 -326q49 -47 115.5 -73.5t152.5 -26.5q88 0 165 33.5t138 95.5q59 59 103.5 149t73 191.5t43 205t14.5 187.5q0 104 -31 190.5t-92 143.5q-49 47 -115 73.5t-152 26.5q-88 0 -164.5 -33.5t-138.5 -95.5q-59 -59 -104 -151.5t-75 -194.5t-44 -206.5 t-14 -188.5zM635 1628l364 238l43 -90l-383 -203z" /><glyph unicode="&#xd4;" horiz-adv-x="1343" d="M92 506q0 96 16.5 207.5t49 221t82 208t116.5 168.5q78 82 177.5 125t214.5 43q111 0 200.5 -39t153.5 -105q72 -72 106.5 -174t34.5 -223q0 -96 -15.5 -206.5t-48 -218t-80.5 -205t-116 -167.5q-78 -82 -177 -125t-214 -43q-111 0 -202 39t-154 105q-143 147 -144 389z M203 504q0 -211 125 -326q49 -47 115.5 -73.5t152.5 -26.5q88 0 165 33.5t138 95.5q59 59 103.5 149t73 191.5t43 205t14.5 187.5q0 104 -31 190.5t-92 143.5q-49 47 -115 73.5t-152 26.5q-88 0 -164.5 -33.5t-138.5 -95.5q-59 -59 -104 -151.5t-75 -194.5t-44 -206.5 t-14 -188.5zM524 1645l287 217h100l205 -228l-76 -61l-188 209l-275 -209z" /><glyph unicode="&#xd5;" horiz-adv-x="1343" d="M92 506q0 96 16.5 207.5t49 221t82 208t116.5 168.5q78 82 177.5 125t214.5 43q111 0 200.5 -39t153.5 -105q72 -72 106.5 -174t34.5 -223q0 -96 -15.5 -206.5t-48 -218t-80.5 -205t-116 -167.5q-78 -82 -177 -125t-214 -43q-111 0 -202 39t-154 105q-143 147 -144 389z M203 504q0 -211 125 -326q49 -47 115.5 -73.5t152.5 -26.5q88 0 165 33.5t138 95.5q59 59 103.5 149t73 191.5t43 205t14.5 187.5q0 104 -31 190.5t-92 143.5q-49 47 -115 73.5t-152 26.5q-88 0 -164.5 -33.5t-138.5 -95.5q-59 -59 -104 -151.5t-75 -194.5t-44 -206.5 t-14 -188.5zM549 1722q35 33 76 55.5t92 22.5q37 0 69.5 -13t63.5 -28.5t60.5 -29t60.5 -13.5q35 0 57.5 12.5t46.5 34.5l43 -55q-35 -31 -74.5 -54.5t-91.5 -23.5q-37 0 -69.5 13.5t-63.5 29t-62.5 28.5t-64.5 13t-56.5 -13t-45.5 -34z" /><glyph unicode="&#xd6;" horiz-adv-x="1343" d="M92 506q0 96 16.5 207.5t49 221t82 208t116.5 168.5q78 82 177.5 125t214.5 43q111 0 200.5 -39t153.5 -105q72 -72 106.5 -174t34.5 -223q0 -96 -15.5 -206.5t-48 -218t-80.5 -205t-116 -167.5q-78 -82 -177 -125t-214 -43q-111 0 -202 39t-154 105q-143 147 -144 389z M203 504q0 -211 125 -326q49 -47 115.5 -73.5t152.5 -26.5q88 0 165 33.5t138 95.5q59 59 103.5 149t73 191.5t43 205t14.5 187.5q0 104 -31 190.5t-92 143.5q-49 47 -115 73.5t-152 26.5q-88 0 -164.5 -33.5t-138.5 -95.5q-59 -59 -104 -151.5t-75 -194.5t-44 -206.5 t-14 -188.5zM582 1624l22 129h123l-22 -129h-123zM958 1624l23 129h125l-23 -129h-125z" /><glyph unicode="&#xd7;" horiz-adv-x="1378" d="M147 129l480 479l-480 477l64 64l477 -477l479 477l64 -64l-479 -477l479 -479l-64 -63l-479 479l-477 -479z" /><glyph unicode="&#xd8;" horiz-adv-x="1347" d="M92 506q0 96 16.5 207.5t49 221t82 208t116.5 168.5q78 82 177.5 125t214.5 43q86 0 157.5 -22.5t130.5 -63.5l115 182l70 -41l-121 -195l4 -4q72 -72 107.5 -170t35.5 -219q0 -96 -16.5 -207.5t-49 -221t-81.5 -208t-117 -168.5q-78 -82 -177 -125t-214 -43 q-86 0 -159 23.5t-132 64.5l-129 -204l-70 39l136 217l-2 4q-72 72 -108 170t-36 219zM203 504q0 -180 96 -295l680 1091q-47 35 -104.5 54.5t-131.5 19.5q-88 0 -164.5 -33.5t-138.5 -95.5q-59 -59 -104 -151.5t-75 -194.5t-44 -206.5t-14 -188.5zM356 154 q47 -35 106.5 -55.5t133.5 -20.5q88 0 165 33.5t138 95.5q59 59 104.5 151.5t75 194.5t44 206.5t14.5 188.5q0 184 -97 297z" /><glyph unicode="&#xd9;" horiz-adv-x="1419" d="M152 416q0 29 3 57.5t7 58.5l164 920h106l-162 -922q-4 -29 -7 -56.5t-3 -53.5q0 -80 23.5 -145.5t72.5 -110.5q45 -41 108.5 -64.5t149.5 -23.5q100 0 177 32.5t135 90.5q66 63 104.5 149t54.5 182l164 922h107l-164 -920q-23 -119 -66 -218t-114 -175 q-72 -76 -172.5 -121t-233.5 -45q-106 0 -186 33t-139 86q-63 57 -96 140t-33 184zM653 1796l66 86l282 -237l-43 -54z" /><glyph unicode="&#xda;" horiz-adv-x="1419" d="M152 416q0 29 3 57.5t7 58.5l164 920h106l-162 -922q-4 -29 -7 -56.5t-3 -53.5q0 -80 23.5 -145.5t72.5 -110.5q45 -41 108.5 -64.5t149.5 -23.5q100 0 177 32.5t135 90.5q66 63 104.5 149t54.5 182l164 922h107l-164 -920q-23 -119 -66 -218t-114 -175 q-72 -76 -172.5 -121t-233.5 -45q-106 0 -186 33t-139 86q-63 57 -96 140t-33 184zM676 1628l364 238l43 -90l-383 -203z" /><glyph unicode="&#xdb;" horiz-adv-x="1419" d="M152 416q0 29 3 57.5t7 58.5l164 920h106l-162 -922q-4 -29 -7 -56.5t-3 -53.5q0 -80 23.5 -145.5t72.5 -110.5q45 -41 108.5 -64.5t149.5 -23.5q100 0 177 32.5t135 90.5q66 63 104.5 149t54.5 182l164 922h107l-164 -920q-23 -119 -66 -218t-114 -175 q-72 -76 -172.5 -121t-233.5 -45q-106 0 -186 33t-139 86q-63 57 -96 140t-33 184zM571 1645l287 217h100l205 -228l-76 -61l-188 209l-275 -209z" /><glyph unicode="&#xdc;" horiz-adv-x="1419" d="M152 416q0 29 3 58.5t7 57.5l164 920h106l-162 -922q-4 -29 -7 -56.5t-3 -53.5q0 -80 23.5 -145.5t72.5 -110.5q45 -41 108.5 -64.5t149.5 -23.5q100 0 177 32.5t135 90.5q66 63 104.5 149t54.5 182l164 922h107l-164 -920q-23 -119 -66 -218t-114 -175 q-72 -76 -172.5 -121t-233.5 -45q-106 0 -186 33t-139 86q-63 57 -96 140t-33 184zM604 1626l23 129h123l-23 -129h-123zM981 1626l23 129h124l-22 -129h-125z" /><glyph unicode="&#xdd;" horiz-adv-x="1083" d="M100 1452h109l305 -772l576 772h118l-655 -877l-102 -575h-107l102 575zM459 1608l364 237l43 -90l-383 -203z" /><glyph unicode="&#xde;" horiz-adv-x="1193" d="M90 0l256 1452h107l-50 -285h355q86 0 161.5 -24.5t132 -72.5t89.5 -119t33 -163q0 -125 -44.5 -215t-120 -148t-177 -86t-214.5 -28h-366l-55 -311h-107zM270 414h367q90 0 168 21.5t134 67.5t89 116.5t33 168.5q0 72 -25.5 124.5t-69.5 86t-102.5 50t-124.5 16.5h-354z " /><glyph unicode="&#xdf;" horiz-adv-x="1208" d="M88 926l16 98h185l10 63q31 176 143.5 284t292.5 108q72 0 136.5 -23.5t112.5 -66.5t77 -104.5t29 -135.5q0 -53 -17.5 -111.5t-50.5 -109.5t-79 -89t-101 -51q109 -41 169 -131t60 -204q0 -104 -38 -190.5t-104.5 -149t-155.5 -97t-191 -34.5q-49 0 -99.5 8t-97.5 20 l16 99q45 -10 91.5 -17.5t93.5 -7.5q82 0 151.5 27.5t119.5 77t78 118t28 152.5q0 68 -26 121t-69 90t-99 56t-116 19h-82l19 99h117q63 0 114 23.5t87 63.5t55.5 93t19.5 115q0 57 -21.5 102t-58.5 76t-85 47t-101 16q-66 0 -119 -23.5t-93 -65.5t-66.5 -96t-37.5 -116 l-194 -1079h-101l164 926h-182z" /><glyph unicode="&#xe0;" horiz-adv-x="1148" d="M57 406q0 137 45 273t140 234q63 63 145 100.5t180 37.5q61 0 111.5 -19.5t89.5 -50.5t64.5 -65.5t35.5 -65.5l50 174h90l-183 -1024h-84l19 176q-18 -41 -53 -78t-78 -64.5t-94.5 -44t-104.5 -16.5q-92 0 -171 42t-126 112q-41 57 -58.5 128t-17.5 151zM160 416 q0 -66 11 -118t40 -101q33 -55 88 -89t141 -34q66 0 119 27.5t96 70.5t74 96.5t52.5 112.5t31.5 118.5t10 114.5q0 72 -11 129.5t-46 106.5q-35 47 -85 73.5t-128 26.5q-66 0 -129.5 -26.5t-108.5 -73.5q-78 -78 -116.5 -196.5t-38.5 -237.5zM446 1354l66 86l283 -238 l-43 -53z" /><glyph unicode="&#xe1;" horiz-adv-x="1148" d="M57 406q0 137 45 273t140 234q63 63 145 100.5t180 37.5q61 0 111.5 -19.5t89.5 -50.5t64.5 -65.5t35.5 -65.5l50 174h90l-183 -1024h-84l19 176q-18 -41 -53 -78t-78 -64.5t-94.5 -44t-104.5 -16.5q-92 0 -171 42t-126 112q-41 57 -58.5 128t-17.5 151zM160 416 q0 -66 11 -118t40 -101q33 -55 88 -89t141 -34q66 0 119 27.5t96 70.5t74 96.5t52.5 112.5t31.5 118.5t10 114.5q0 72 -11 129.5t-46 106.5q-35 47 -85 73.5t-128 26.5q-66 0 -129.5 -26.5t-108.5 -73.5q-78 -78 -116.5 -196.5t-38.5 -237.5zM449 1221l364 237l43 -90 l-383 -203z" /><glyph unicode="&#xe2;" horiz-adv-x="1148" d="M57 406q0 137 45 273t140 234q63 63 145 100.5t180 37.5q61 0 111.5 -19.5t89.5 -50.5t64.5 -65.5t35.5 -65.5l50 174h90l-183 -1024h-84l19 176q-18 -41 -53 -78t-78 -64.5t-94.5 -44t-104.5 -16.5q-92 0 -171 42t-126 112q-41 57 -58.5 128t-17.5 151zM160 416 q0 -66 11 -118t40 -101q33 -55 88 -89t141 -34q66 0 119 27.5t96 70.5t74 96.5t52.5 112.5t31.5 118.5t10 114.5q0 72 -11 129.5t-46 106.5q-35 47 -85 73.5t-128 26.5q-66 0 -129.5 -26.5t-108.5 -73.5q-78 -78 -116.5 -196.5t-38.5 -237.5zM346 1235l256 227h97l174 -227 l-78 -59l-154 200l-237 -205z" /><glyph unicode="&#xe3;" horiz-adv-x="1148" d="M57 406q0 137 45 273t140 234q63 63 145 100.5t180 37.5q61 0 111.5 -19.5t89.5 -50.5t64.5 -65.5t35.5 -65.5l50 174h90l-183 -1024h-84l19 176q-18 -41 -53 -78t-78 -64.5t-94.5 -44t-104.5 -16.5q-92 0 -171 42t-126 112q-41 57 -58.5 128t-17.5 151zM160 416 q0 -66 11 -118t40 -101q33 -55 88 -89t141 -34q66 0 119 27.5t96 70.5t74 96.5t52.5 112.5t31.5 118.5t10 114.5q0 72 -11 129.5t-46 106.5q-35 47 -85 73.5t-128 26.5q-66 0 -129.5 -26.5t-108.5 -73.5q-78 -78 -116.5 -196.5t-38.5 -237.5zM367 1335q35 33 75.5 55.5 t92.5 22.5q37 0 69.5 -13.5t63 -28.5t60.5 -28.5t60 -13.5q35 0 57.5 12.5t47.5 34.5l43 -55q-35 -31 -75 -54.5t-91 -23.5q-37 0 -69.5 13.5t-63.5 28.5t-62.5 28.5t-64.5 13.5t-56.5 -13.5t-45.5 -33.5z" /><glyph unicode="&#xe4;" horiz-adv-x="1148" d="M57 406q0 137 45 273t140 234q63 63 145 100.5t180 37.5q61 0 111.5 -19.5t89.5 -50.5t64.5 -65.5t35.5 -65.5l50 174h90l-183 -1024h-84l19 176q-18 -41 -53 -78t-78 -64.5t-94.5 -44t-104.5 -16.5q-92 0 -171 42t-126 112q-41 57 -58.5 128t-17.5 151zM160 416 q0 -66 11 -118t40 -101q33 -55 88 -89t141 -34q66 0 119 27.5t96 70.5t74 96.5t52.5 112.5t31.5 118.5t10 114.5q0 72 -11 129.5t-46 106.5q-35 47 -85 73.5t-128 26.5q-66 0 -129.5 -26.5t-108.5 -73.5q-78 -78 -116.5 -196.5t-38.5 -237.5zM410 1276l22 129h123l-23 -129 h-122zM786 1276l23 129h125l-23 -129h-125z" /><glyph unicode="&#xe5;" horiz-adv-x="1148" d="M57 406q0 137 45 273t140 234q63 63 145 100.5t180 37.5q61 0 111.5 -19.5t89.5 -50.5t64.5 -65.5t35.5 -65.5l50 174h90l-183 -1024h-84l19 176q-18 -41 -53 -78t-78 -64.5t-94.5 -44t-104.5 -16.5q-92 0 -171 42t-126 112q-41 57 -58.5 128t-17.5 151zM160 416 q0 -66 11 -118t40 -101q33 -55 88 -89t141 -34q66 0 119 27.5t96 70.5t74 96.5t52.5 112.5t31.5 118.5t10 114.5q0 72 -11 129.5t-46 106.5q-35 47 -85 73.5t-128 26.5q-66 0 -129.5 -26.5t-108.5 -73.5q-78 -78 -116.5 -196.5t-38.5 -237.5zM428 1372q0 92 57.5 153.5 t161.5 61.5t161.5 -61.5t57.5 -153.5q0 -96 -63.5 -155.5t-155.5 -59.5t-155.5 59.5t-63.5 155.5zM506 1372q0 -59 38 -101t103 -42q66 0 102.5 42t36.5 101t-36.5 101.5t-102.5 42.5t-103.5 -42t-37.5 -102z" /><glyph unicode="&#xe6;" horiz-adv-x="1759" d="M37 242q0 74 28.5 135t81 107t124 72t159.5 26h348l19 102q6 31 6 59q0 94 -57.5 152.5t-167.5 58.5q-111 0 -194 -53t-116 -160h-102q41 150 155.5 230t268.5 80q47 0 95 -13.5t88 -40t69.5 -64.5t40.5 -89q55 84 147 145.5t227 61.5q88 0 150.5 -28t112.5 -77 q59 -59 87.5 -145t28.5 -178q0 -45 -3 -70t-7 -66h-764q-2 -16 -2 -30v-29q0 -70 17.5 -134.5t54.5 -113.5t94 -78.5t137 -29.5q49 0 95.5 16t85 44t68.5 66t46 83h109q-10 -47 -44 -99.5t-69 -85.5q-129 -123 -301 -123q-86 0 -149.5 28t-110.5 75q-37 37 -66.5 89 t-42.5 111q-25 -59 -63.5 -108t-58.5 -68q-72 -68 -150 -97.5t-180 -29.5q-53 0 -105.5 18.5t-94.5 52.5t-68.5 84t-26.5 114zM139 250q0 -82 60 -131q35 -29 70.5 -39t82.5 -10q78 0 142.5 30.5t116 81.5t86 118t53.5 138l12 49h-342q-121 0 -201 -63.5t-80 -173.5z M874 582h658q2 10 2 20v23q0 70 -17.5 130t-53.5 104t-90 69.5t-128 25.5q-76 0 -137 -30.5t-108.5 -81.5t-79 -119t-46.5 -141z" /><glyph unicode="&#xe7;" horiz-adv-x="1024" d="M57 395q0 145 47.5 286.5t149.5 240.5q59 57 135 93t174 36q84 0 149.5 -27t114.5 -74q47 -47 77 -111.5t30 -146.5v-14h-109v6q0 59 -20.5 107.5t-54.5 82.5q-76 76 -199 76q-74 0 -129 -27.5t-100 -72.5q-43 -41 -73 -95.5t-49.5 -113.5t-28.5 -121.5t-9 -120.5 q0 -78 25.5 -143.5t74.5 -110.5q37 -35 85 -53t114 -18q106 0 187 63.5t116 161.5h108q-20 -72 -60 -131t-95 -102t-122 -68t-140 -25q-88 0 -157 29t-120 80q-59 57 -90 137t-31 176zM168 -373l190 275h101l-193 -328z" /><glyph unicode="&#xe8;" horiz-adv-x="1077" d="M57 422q0 135 41 264t138 227q59 59 139 98.5t190 39.5q88 0 157 -31t118 -80q118 -118 118 -317q0 -23 -1 -38.5t-3 -29.5t-5 -29.5t-7 -38.5h-782q-2 -16 -2 -30v-29q0 -82 22.5 -151.5t69.5 -118.5q80 -84 221 -84q49 0 96 15t88 43t73 66t48 83h109 q-10 -47 -44 -99.5t-69 -85.5q-63 -59 -144 -91t-167 -32q-92 0 -163 32t-122 85q-59 61 -89 142t-30 190zM174 582h680q2 10 2 20v23q0 70 -20.5 129t-58.5 103t-94 69.5t-130 25.5q-90 0 -155.5 -39t-112.5 -92q-41 -47 -69 -109.5t-42 -129.5zM467 1354l65 86l283 -238 l-43 -53z" /><glyph unicode="&#xe9;" horiz-adv-x="1077" d="M57 422q0 135 41 264t138 227q59 59 139 98.5t190 39.5q88 0 157 -31t118 -80q118 -118 118 -317q0 -23 -1 -38.5t-3 -29.5t-5 -29.5t-7 -38.5h-782q-2 -16 -2 -30v-29q0 -82 22.5 -151.5t69.5 -118.5q80 -84 221 -84q49 0 96 15t88 43t73 66t48 83h109 q-10 -47 -44 -99.5t-69 -85.5q-63 -59 -144 -91t-167 -32q-92 0 -163 32t-122 85q-59 61 -89 142t-30 190zM174 582h680q2 10 2 20v23q0 70 -20.5 129t-58.5 103t-94 69.5t-130 25.5q-90 0 -155.5 -39t-112.5 -92q-41 -47 -69 -109.5t-42 -129.5zM428 1221l365 237l43 -90 l-383 -203z" /><glyph unicode="&#xea;" horiz-adv-x="1077" d="M57 422q0 135 41 264t138 227q59 59 139 98.5t190 39.5q88 0 157 -31t118 -80q118 -118 118 -317q0 -23 -1 -38.5t-3 -29.5t-5 -29.5t-7 -38.5h-782q-2 -16 -2 -30v-29q0 -82 22.5 -151.5t69.5 -118.5q80 -84 221 -84q49 0 96 15t88 43t73 66t48 83h109 q-10 -47 -44 -99.5t-69 -85.5q-63 -59 -144 -91t-167 -32q-92 0 -163 32t-122 85q-59 61 -89 142t-30 190zM174 582h680q2 10 2 20v23q0 70 -20.5 129t-58.5 103t-94 69.5t-130 25.5q-90 0 -155.5 -39t-112.5 -92q-41 -47 -69 -109.5t-42 -129.5zM313 1235l256 227h97 l174 -227l-78 -59l-154 200l-237 -205z" /><glyph unicode="&#xeb;" horiz-adv-x="1077" d="M57 422q0 135 41 264t138 227q59 59 139 98.5t190 39.5q88 0 157 -31t118 -80q118 -118 118 -317q0 -23 -1 -38.5t-3 -29.5t-5 -29.5t-7 -38.5h-782q-2 -16 -2 -30v-29q0 -82 22.5 -151.5t69.5 -118.5q80 -84 221 -84q49 0 96 15t88 43t73 66t48 83h109 q-10 -47 -44 -99.5t-69 -85.5q-63 -59 -144 -91t-167 -32q-92 0 -163 32t-122 85q-59 61 -89 142t-30 190zM174 582h680q2 10 2 20v23q0 70 -20.5 129t-58.5 103t-94 69.5t-130 25.5q-90 0 -155.5 -39t-112.5 -92q-41 -47 -69 -109.5t-42 -129.5zM385 1276l23 129h122 l-22 -129h-123zM762 1276l22 129h125l-22 -129h-125z" /><glyph unicode="&#xec;" horiz-adv-x="493" d="M72 0l182 1024h108l-184 -1024h-106zM186 1436l58 77l254 -213l-37 -49z" /><glyph unicode="&#xed;" horiz-adv-x="493" d="M72 0l182 1024h108l-184 -1024h-106zM166 1309l328 215l38 -82l-344 -182z" /><glyph unicode="&#xee;" horiz-adv-x="493" d="M66 1235l256 227h96l174 -227l-78 -59l-154 200l-237 -205zM72 0l182 1024h108l-184 -1024h-106z" /><glyph unicode="&#xef;" horiz-adv-x="493" d="M72 0l182 1024h108l-184 -1024h-106zM154 1323l22 129h123l-23 -129h-122zM428 1323l23 129h124l-22 -129h-125z" /><glyph unicode="&#xf0;" horiz-adv-x="1105" d="M66 401q0 154 54 304.5t177 248.5q59 47 130 72t148 25q53 0 101.5 -14.5t79.5 -41.5l-90 230h-265l15 82h219l-68 172h105l65 -172h209l-14 -82h-162l156 -400q18 -47 29.5 -97t11.5 -105q0 -154 -54.5 -304.5t-177.5 -248.5q-59 -47 -129.5 -72t-148.5 -25 q-98 0 -172 39t-123 99q-47 57 -71.5 129.5t-24.5 160.5zM170 408q0 -137 70 -230q37 -47 92 -75.5t135 -28.5q63 0 116.5 22.5t94.5 57.5q47 39 82 93t57.5 115.5t33.5 127t11 126.5q0 139 -67 230q-37 47 -93.5 75.5t-136.5 28.5q-63 0 -116.5 -22.5t-94.5 -57.5 q-47 -41 -81.5 -95t-57 -115.5t-34 -126t-11.5 -125.5z" /><glyph unicode="&#xf1;" horiz-adv-x="1187" d="M72 0l180 1024h92l-20 -186q31 49 73.5 88t94 66.5t106.5 43t109 15.5q143 0 222 -84t79 -213q0 -39 -7 -78l-120 -676h-103l119 674q6 33 6 65q0 88 -50 149.5t-165 61.5q-90 0 -161.5 -39t-125 -101t-87 -140t-48.5 -158l-92 -512h-102zM410 1341q35 33 75.5 55.5 t92.5 22.5q37 0 69.5 -13t63 -28.5t60.5 -29t60 -13.5q35 0 57.5 12.5t47.5 34.5l43 -55q-35 -31 -75 -54.5t-91 -23.5q-37 0 -69.5 13.5t-63.5 29t-62.5 28.5t-64.5 13t-56.5 -13t-45.5 -34z" /><glyph unicode="&#xf2;" horiz-adv-x="1093" d="M57 401q0 154 54.5 304.5t177.5 248.5q59 47 129.5 72t148.5 25q98 0 172 -38t123 -98q47 -57 71.5 -131.5t24.5 -160.5q0 -154 -54 -304.5t-177 -248.5q-59 -47 -130 -72t-148 -25q-98 0 -172 38t-123 98q-47 57 -72 130.5t-25 161.5zM162 408q0 -137 69 -230 q37 -47 92.5 -75.5t135.5 -28.5q63 0 116.5 22.5t94.5 57.5q47 39 81.5 93t57 115.5t34 127t11.5 126.5q0 137 -68 228q-37 47 -93 76.5t-136 29.5q-63 0 -116.5 -22.5t-94.5 -57.5q-47 -41 -82 -95t-57.5 -115.5t-33.5 -126t-11 -125.5zM446 1354l66 86l283 -238l-43 -53z " /><glyph unicode="&#xf3;" horiz-adv-x="1093" d="M57 401q0 154 54.5 304.5t177.5 248.5q59 47 129.5 72t148.5 25q98 0 172 -38t123 -98q47 -57 71.5 -131.5t24.5 -160.5q0 -154 -54 -304.5t-177 -248.5q-59 -47 -130 -72t-148 -25q-98 0 -172 38t-123 98q-47 57 -72 130.5t-25 161.5zM162 408q0 -137 69 -230 q37 -47 92.5 -75.5t135.5 -28.5q63 0 116.5 22.5t94.5 57.5q47 39 81.5 93t57 115.5t34 127t11.5 126.5q0 137 -68 228q-37 47 -93 76.5t-136 29.5q-63 0 -116.5 -22.5t-94.5 -57.5q-47 -41 -82 -95t-57.5 -115.5t-33.5 -126t-11 -125.5zM449 1221l364 237l43 -90l-383 -203 z" /><glyph unicode="&#xf4;" horiz-adv-x="1093" d="M57 401q0 154 54.5 304.5t177.5 248.5q59 47 129.5 72t148.5 25q98 0 172 -38t123 -98q47 -57 71.5 -131.5t24.5 -160.5q0 -154 -54 -304.5t-177 -248.5q-59 -47 -130 -72t-148 -25q-98 0 -172 38t-123 98q-47 57 -72 130.5t-25 161.5zM162 408q0 -137 69 -230 q37 -47 92.5 -75.5t135.5 -28.5q63 0 116.5 22.5t94.5 57.5q47 39 81.5 93t57 115.5t34 127t11.5 126.5q0 137 -68 228q-37 47 -93 76.5t-136 29.5q-63 0 -116.5 -22.5t-94.5 -57.5q-47 -41 -82 -95t-57.5 -115.5t-33.5 -126t-11 -125.5zM348 1235l256 227h97l174 -227 l-78 -59l-154 200l-237 -205z" /><glyph unicode="&#xf5;" horiz-adv-x="1093" d="M57 401q0 154 54.5 304.5t177.5 248.5q59 47 129.5 72t148.5 25q98 0 172 -38t123 -98q47 -57 71.5 -131.5t24.5 -160.5q0 -154 -54 -304.5t-177 -248.5q-59 -47 -130 -72t-148 -25q-98 0 -172 38t-123 98q-47 57 -72 130.5t-25 161.5zM162 408q0 -137 69 -230 q37 -47 92.5 -75.5t135.5 -28.5q63 0 116.5 22.5t94.5 57.5q47 39 81.5 93t57 115.5t34 127t11.5 126.5q0 137 -68 228q-37 47 -93 76.5t-136 29.5q-63 0 -116.5 -22.5t-94.5 -57.5q-47 -41 -82 -95t-57.5 -115.5t-33.5 -126t-11 -125.5zM367 1335q35 33 75.5 55.5 t92.5 22.5q37 0 69.5 -13.5t63 -28.5t60.5 -28.5t60 -13.5q35 0 57.5 12.5t47.5 34.5l43 -55q-35 -31 -75 -54.5t-91 -23.5q-37 0 -69.5 13.5t-63.5 28.5t-62.5 28.5t-64.5 13.5t-56.5 -13.5t-45.5 -33.5z" /><glyph unicode="&#xf6;" horiz-adv-x="1093" d="M57 401q0 154 54.5 304.5t177.5 248.5q59 47 129.5 72t148.5 25q98 0 172 -38t123 -98q47 -57 71.5 -131.5t24.5 -160.5q0 -154 -54 -304.5t-177 -248.5q-59 -47 -130 -72t-148 -25q-98 0 -172 38t-123 98q-47 57 -72 130.5t-25 161.5zM162 408q0 -137 69 -230 q37 -47 92.5 -75.5t135.5 -28.5q63 0 116.5 22.5t94.5 57.5q47 39 81.5 93t57 115.5t34 127t11.5 126.5q0 137 -68 228q-37 47 -93 76.5t-136 29.5q-63 0 -116.5 -22.5t-94.5 -57.5q-47 -41 -82 -95t-57.5 -115.5t-33.5 -126t-11 -125.5zM410 1276l22 129h123l-23 -129h-122 zM786 1276l23 129h125l-23 -129h-125z" /><glyph unicode="&#xf7;" horiz-adv-x="1333" d="M168 567v95h997v-95h-997zM580 100v170h161v-170h-161zM580 967v172h161v-172h-161z" /><glyph unicode="&#xf8;" horiz-adv-x="1093" d="M57 401q0 154 54.5 304.5t177.5 248.5q59 47 129.5 72t148.5 25q57 0 107.5 -14.5t91.5 -39.5l113 181l67 -37l-119 -189l35 -37q47 -57 71.5 -131.5t24.5 -160.5q0 -154 -54 -304.5t-177 -248.5q-59 -47 -130 -72t-148 -25q-59 0 -110.5 14.5t-92.5 41.5l-119 -189 l-68 35l125 199l-30 35q-47 57 -72 130.5t-25 161.5zM162 408q0 -137 69 -230l11 -12l469 745q-66 39 -154 39q-63 0 -116.5 -22.5t-94.5 -57.5q-47 -41 -82 -95t-57.5 -115.5t-33.5 -126t-11 -125.5zM301 115q63 -41 158 -41q63 0 116.5 22.5t94.5 57.5q47 39 81.5 93 t57 115.5t34 127t11.5 126.5q0 137 -68 228l-16 18z" /><glyph unicode="&#xf9;" horiz-adv-x="1171" d="M109 268q0 20 2 40t6 40l119 676h104l-119 -670q-6 -37 -6 -69q0 -88 48 -149.5t161 -61.5q90 0 160.5 39t122 101t84 140t47.5 158l90 512h102l-180 -1024h-90l18 186q-31 -49 -71.5 -88t-90 -66.5t-103.5 -43t-107 -15.5q-143 0 -220 83t-77 212zM487 1354l66 86 l283 -238l-43 -53z" /><glyph unicode="&#xfa;" horiz-adv-x="1171" d="M109 268q0 20 2 40t6 40l119 676h104l-119 -670q-6 -37 -6 -69q0 -88 48 -149.5t161 -61.5q90 0 160.5 39t122 101t84 140t47.5 158l90 512h102l-180 -1024h-90l18 186q-31 -49 -71.5 -88t-90 -66.5t-103.5 -43t-107 -15.5q-143 0 -220 83t-77 212zM479 1217l365 237 l43 -90l-383 -203z" /><glyph unicode="&#xfb;" horiz-adv-x="1171" d="M109 268q0 20 2 40t6 40l119 676h104l-119 -670q-6 -37 -6 -69q0 -88 48 -149.5t161 -61.5q90 0 160.5 39t122 101t84 140t47.5 158l90 512h102l-180 -1024h-90l18 186q-31 -49 -71.5 -88t-90 -66.5t-103.5 -43t-107 -15.5q-143 0 -220 83t-77 212zM395 1235l256 227h97 l174 -227l-78 -59l-154 200l-237 -205z" /><glyph unicode="&#xfc;" horiz-adv-x="1171" d="M109 268q0 20 2 40t6 40l119 676h104l-119 -670q-6 -37 -6 -69q0 -88 48 -149.5t161 -61.5q90 0 160.5 39t122 101t84 140t47.5 158l90 512h102l-180 -1024h-90l18 186q-31 -49 -71.5 -88t-90 -66.5t-103.5 -43t-107 -15.5q-143 0 -220 83t-77 212zM412 1276l22 129h123 l-22 -129h-123zM788 1276l23 129h125l-23 -129h-125z" /><glyph unicode="&#xfd;" horiz-adv-x="980" d="M-156 -365l17 93q35 -25 77 -43.5t80 -18.5q66 0 104 34t68 87l119 209l-235 1028h108l201 -909l504 909h110l-723 -1288q-41 -72 -101 -118t-146 -46q-41 0 -93.5 17.5t-89.5 45.5zM385 1196l365 238l43 -91l-383 -202z" /><glyph unicode="&#xfe;" horiz-adv-x="1165" d="M-2 -410l336 1889h102l-106 -596q20 39 57 70.5t81 53t91 33t90 11.5q92 0 164 -39t120 -101.5t72.5 -143.5t24.5 -165q0 -113 -27.5 -224.5t-87 -201.5t-151.5 -146.5t-221 -56.5q-92 0 -172 45t-127 121q-4 8 -15.5 28.5t-15.5 37.5q-20 -109 -41 -219 q-16 -94 -35.5 -201t-36.5 -195h-102zM254 412q0 -68 20.5 -129.5t59.5 -107.5t95 -73.5t128 -27.5q100 0 171 49t116 125t64.5 168t19.5 176q0 68 -17.5 133.5t-54.5 115.5t-93 80.5t-132 30.5q-102 0 -189 -67q-66 -49 -106.5 -119t-56.5 -150l-15 -71q-6 -35 -8 -68 t-2 -65z" /><glyph unicode="&#xff;" horiz-adv-x="980" d="M-156 -365l17 93q35 -25 77 -43.5t80 -18.5q66 0 104 34t68 87l119 209l-235 1028h108l201 -909l504 909h110l-723 -1288q-41 -72 -101 -118t-146 -46q-41 0 -93.5 17.5t-89.5 45.5zM295 1276l22 129h123l-22 -129h-123zM672 1276l22 129h125l-22 -129h-125z" /><glyph unicode="&#x131;" horiz-adv-x="493" d="M72 0l182 1024h108l-184 -1024h-106z" /><glyph unicode="&#x141;" horiz-adv-x="1105" d="M10 623l213 118l127 711h107l-115 -643l354 197l33 -74l-405 -225l-107 -607h754l-19 -100h-860l115 639l-164 -90z" /><glyph unicode="&#x142;" horiz-adv-x="550" d="M20 758l201 112l109 609h102l-98 -545l215 119l31 -74l-265 -148l-110 -622q-2 -10 -3 -20.5t-1 -20.5q0 -51 28.5 -66.5t65.5 -15.5q25 0 51.5 7t48.5 16l-16 -97q-23 -10 -50.5 -17t-54.5 -7q-78 0 -127 42t-49 120v26q0 14 4 29l101 563l-150 -84z" /><glyph unicode="&#x152;" horiz-adv-x="2105" d="M92 518q0 96 15.5 206t48 217.5t81 203.5t113.5 166q78 82 175.5 125t209.5 43q72 0 142.5 -21.5t130 -61.5t103.5 -97.5t63 -129.5l51 283h909l-18 -102h-803l-94 -533h706l-18 -104h-707l-108 -611h813l-19 -102h-919l37 201q-61 -98 -169 -163t-251 -65 q-123 0 -215.5 42t-153.5 116t-92 173t-31 214zM201 516q0 -92 22.5 -172t69.5 -139.5t119.5 -93t175.5 -33.5q86 0 160.5 33.5t136.5 95.5q72 72 121 187.5t73 242.5l25 129q10 47 11 94t1 88q0 211 -121 326q-47 47 -112.5 73.5t-151.5 26.5t-160.5 -33.5t-136.5 -95.5 q-59 -59 -102 -149t-73 -190.5t-44 -203t-14 -186.5z" /><glyph unicode="&#x153;" horiz-adv-x="1826" d="M57 401q0 76 12.5 154t40 150.5t70.5 136t105 112.5q59 47 127.5 72t144.5 25q84 0 149.5 -30t112.5 -77q35 -35 57.5 -77t32.5 -87q37 86 105 148q66 61 140.5 92t168.5 31q86 0 152.5 -31t115.5 -80q117 -120 117 -317q0 -23 -1 -38.5t-3 -29.5t-5 -29.5t-7 -38.5h-766 q-2 -16 -2 -30v-29q0 -82 21.5 -151.5t68.5 -118.5q80 -84 217 -84q98 0 181 57t116 148h106q-16 -49 -44.5 -99.5t-63.5 -83.5q-61 -59 -140 -91t-165 -32q-66 0 -126.5 19.5t-109.5 56.5t-84 89t-51 118q-57 -129 -162.5 -206t-247.5 -77q-96 0 -168.5 38t-119.5 98 q-94 117 -95 292zM162 408q0 -68 16.5 -126.5t50.5 -103.5q35 -47 89.5 -75.5t132.5 -28.5q61 0 113 22.5t93 57.5q47 39 81 93t56.5 115.5t33 127t10.5 126.5q0 68 -15.5 125.5t-50.5 102.5q-35 47 -91 76.5t-134 29.5q-61 0 -113.5 -22.5t-93.5 -57.5q-47 -41 -81 -95 t-55.5 -115.5t-31.5 -126t-10 -125.5zM940 582h664q2 10 2 20v23q0 70 -19.5 130t-56.5 104t-92.5 68.5t-126.5 24.5q-100 0 -158.5 -37.5t-103.5 -91.5q-41 -47 -68 -110.5t-41 -130.5z" /><glyph unicode="&#x160;" horiz-adv-x="1261" d="M55 426v39h111v-31q0 -92 32.5 -159.5t89 -111.5t131.5 -65.5t159 -21.5q72 0 143.5 19.5t129.5 59.5t95 100t37 142q0 37 -10 75t-36 73t-70 65.5t-113 48.5l-262 72q-59 16 -110.5 44t-91.5 68t-62.5 93t-22.5 119q0 86 28.5 152.5t77.5 117.5q84 86 178.5 120 t210.5 34q104 0 197.5 -37t161.5 -107q59 -59 87 -140t28 -171h-109q0 66 -18.5 124t-63.5 109q-53 59 -130 89t-169 30q-84 0 -157.5 -26.5t-127.5 -79.5q-37 -39 -60.5 -89.5t-23.5 -113.5q0 -98 60.5 -155.5t146.5 -80.5l264 -71q158 -43 234 -138.5t76 -209.5 q0 -92 -31 -165t-86 -126q-76 -74 -182.5 -111t-221.5 -37q-63 0 -125.5 9.5t-119 32t-106.5 59.5t-89 92q-41 57 -60.5 123.5t-19.5 136.5zM477 1798l74 64l188 -209l275 209l53 -72l-287 -217h-100z" /><glyph unicode="&#x161;" horiz-adv-x="1021" d="M35 303q0 8 1 14.5t1 14.5h104v-19q0 -94 62 -151q53 -51 114.5 -70.5t141.5 -19.5q68 0 122 18.5t101 65.5q29 27 41 57.5t12 73.5q0 119 -153 166l-191 55q-47 14 -90 32.5t-78 51.5q-68 61 -67 153q0 66 21.5 113t64.5 88q47 45 120.5 75t165.5 30q74 0 140.5 -19.5 t117 -59.5t79 -99.5t28.5 -137.5h-105q0 57 -22.5 99.5t-61 69t-88 39.5t-100.5 13q-59 0 -114.5 -19t-92.5 -58q-49 -49 -49 -117q0 -23 6 -44.5t25 -43.5q20 -23 53 -37t78 -29l188 -55q123 -35 176.5 -105.5t53.5 -152.5q0 -63 -26 -121.5t-73 -99.5q-55 -47 -130.5 -74 t-161.5 -27q-111 0 -193 34t-137 91q-41 41 -62.5 94.5t-21.5 110.5zM350 1399l78 59l154 -201l237 205l58 -63l-256 -228h-97z" /><glyph unicode="&#x178;" horiz-adv-x="1083" d="M100 1452h109l305 -772l576 772h118l-655 -877l-102 -575h-107l102 575zM399 1636l23 129h123l-23 -129h-123zM776 1636l23 129h125l-23 -129h-125z" /><glyph unicode="&#x17d;" horiz-adv-x="1222" d="M-27 0l21 115l1098 1237h-869l19 100h995l-20 -115l-1100 -1237h907l-18 -100h-1033zM495 1798l74 64l188 -209l275 209l53 -72l-287 -217h-100z" /><glyph unicode="&#x17e;" horiz-adv-x="991" d="M-12 0l20 115l785 813h-641l18 96h760l-21 -113l-784 -813h653l-18 -98h-772zM344 1399l78 59l154 -201l237 205l58 -63l-256 -228h-97z" /><glyph unicode="&#x192;" d="M76 -147q16 -2 53 -4.5t61 -2.5q78 0 121 44t62 137l153 753h-229v92h250l67 334q29 141 101.5 199.5t177.5 58.5q29 0 58.5 -3t58.5 -7v-96q-25 6 -52.5 10t-64.5 4q-78 0 -121 -45t-61 -137l-66 -318h309v-92h-327l-70 -346h-2l-86 -426q-29 -141 -100.5 -199.5 t-175.5 -58.5q-29 0 -59 2t-58 6v95z" /><glyph unicode="&#x2c6;" horiz-adv-x="722" d="M141 1235l256 227h97l174 -227l-78 -59l-154 200l-237 -205z" /><glyph unicode="&#x2c7;" horiz-adv-x="718" d="M141 1399l78 59l154 -201l237 205l58 -63l-256 -228h-97z" /><glyph unicode="&#x2c9;" horiz-adv-x="602" d="M143 1221l17 96h536l-16 -96h-537z" /><glyph unicode="&#x2d8;" horiz-adv-x="739" d="M197 1409q0 10 1 21.5t3 21.5h84q0 -6 -1 -11t-1 -11q0 -86 45 -136.5t131 -50.5q92 0 155.5 55.5t92.5 153.5h92q-33 -133 -128.5 -213t-224.5 -80q-111 0 -180 67.5t-69 182.5z" /><glyph unicode="&#x2d9;" horiz-adv-x="559" d="M315 1276l23 129h123l-23 -129h-123z" /><glyph unicode="&#x2da;" horiz-adv-x="446" d="M113 1311q0 51 19.5 97t55 81t82.5 56.5t103 21.5q92 0 139 -48t47 -124q0 -49 -20.5 -96.5t-56.5 -83t-83 -57t-102 -21.5q-80 0 -132 48t-52 126zM193 1323q0 -47 29.5 -81t86.5 -34q31 0 61.5 13.5t54.5 36t38 53t14 67.5q0 49 -29.5 83t-87.5 34q-33 0 -62.5 -13.5 t-53 -36t-37.5 -54t-14 -68.5z" /><glyph unicode="&#x2db;" horiz-adv-x="352" d="M131 -252q0 37 14.5 73t39 68.5t55 60t61.5 50.5l27 18q8 0 6 -3t6 -3q23 0 37 13l29 -25q-31 -12 -61 -36.5t-53.5 -55.5t-38.5 -66t-15 -65q0 -47 18 -63.5t53 -16.5l43 2l-14 -80q-4 -2 -17.5 -4t-33.5 -4h-31q-53 0 -89 33.5t-36 103.5z" /><glyph unicode="&#x2dc;" horiz-adv-x="733" d="M182 1341q35 33 76 55.5t92 22.5q37 0 70 -13t63.5 -28.5t60 -29t60.5 -13.5q35 0 57.5 12.5t47.5 34.5l43 -55q-35 -31 -75 -54.5t-91 -23.5q-37 0 -70 13.5t-63.5 29t-62.5 28.5t-64 13q-33 0 -56.5 -13t-46.5 -34z" /><glyph unicode="&#x2dd;" horiz-adv-x="935" d="M215 1210l371 246l45 -92l-389 -213zM590 1210l371 246l45 -92l-390 -213z" /><glyph unicode="&#x394;" horiz-adv-x="1245" d="M-113 0l809 1452h103l303 -1452h-1215zM57 100h920l-250 1205z" /><glyph unicode="&#x3a9;" horiz-adv-x="1204" d="M100 252v508q0 84 53.5 138t137.5 54q61 0 112 -34v145q0 84 53.5 138t137.5 54t137 -54t53 -138v-127h129q84 0 137.5 -54.5t53.5 -136.5q0 -84 -53.5 -138t-137.5 -54h-147q35 -47 35 -111q0 -84 -53.5 -137t-137.5 -53h-510zM438 588h475q70 0 113 43.5t43 113.5 t-43 113t-113 43h-161v162q0 70 -44 114t-114 44t-113 -44t-43 -114v-475z" /><glyph unicode="&#x3bc;" horiz-adv-x="1210" d="M176 -410v1434h103v-670q0 -135 61 -207.5t203 -72.5q94 0 159.5 36.5t105.5 98t57.5 140.5t17.5 163v512h102v-1024h-90l-12 186q-23 -49 -59 -88t-82 -66.5t-99 -43t-106 -15.5q-106 0 -166 31t-92 70v-484h-103z" /><glyph unicode="&#x3c0;" horiz-adv-x="1308" d="M147 932v92h973v-92h-164v-719q0 -53 20.5 -90t86.5 -37h47q18 0 41 4v-88q-16 -4 -36.5 -8t-53.5 -4q-96 0 -152.5 51t-56.5 168v723h-438v-932h-99v932h-168z" /><glyph unicode="&#x2000;" horiz-adv-x="965" /><glyph unicode="&#x2001;" horiz-adv-x="1931" /><glyph unicode="&#x2002;" horiz-adv-x="965" /><glyph unicode="&#x2003;" horiz-adv-x="1931" /><glyph unicode="&#x2004;" horiz-adv-x="643" /><glyph unicode="&#x2005;" horiz-adv-x="482" /><glyph unicode="&#x2006;" horiz-adv-x="321" /><glyph unicode="&#x2007;" /><glyph unicode="&#x2008;" horiz-adv-x="536" /><glyph unicode="&#x2009;" horiz-adv-x="386" /><glyph unicode="&#x200a;" horiz-adv-x="107" /><glyph unicode="&#x200b;" horiz-adv-x="0" /><glyph unicode="&#x2010;" horiz-adv-x="882" d="M125 571l16 95h580l-16 -95h-580z" /><glyph unicode="&#x2011;" horiz-adv-x="882" d="M125 571l16 95h580l-16 -95h-580z" /><glyph unicode="&#x2012;" horiz-adv-x="882" d="M125 571l16 95h580l-16 -95h-580z" /><glyph unicode="&#x2013;" horiz-adv-x="1253" d="M113 571l16 95h950l-16 -95h-950z" /><glyph unicode="&#x2014;" horiz-adv-x="2242" d="M117 571l16 95h1940l-17 -95h-1939z" /><glyph unicode="&#x2018;" horiz-adv-x="473" d="M195 1044l32 185q18 100 59.5 160.5t145.5 89.5l23 -62q-80 -27 -109 -69.5t-43 -118.5h107l-33 -185h-182z" /><glyph unicode="&#x2019;" horiz-adv-x="432" d="M188 1079q80 27 109 70t43 119h-107l33 184h183l-33 -184q-18 -100 -59.5 -160.5t-145.5 -89.5z" /><glyph unicode="&#x201a;" horiz-adv-x="493" d="M-8 -188q80 27 108.5 69.5t42.5 118.5h-106l33 184h182l-33 -184q-18 -100 -59 -160.5t-146 -89.5z" /><glyph unicode="&#x201c;" horiz-adv-x="786" d="M188 1044l33 185q18 100 59.5 160.5t145.5 89.5l23 -62q-80 -27 -109 -69.5t-43 -118.5h106l-32 -185h-183zM526 1044l33 185q18 100 59 160.5t146 89.5l22 -62q-80 -27 -108.5 -69.5t-42.5 -118.5h106l-32 -185h-183z" /><glyph unicode="&#x201d;" horiz-adv-x="765" d="M162 1079q80 27 108.5 70t42.5 119h-106l33 184h182l-33 -184q-18 -100 -59 -160.5t-146 -89.5zM500 1079q80 27 108.5 70t42.5 119h-106l33 184h182l-33 -184q-18 -100 -59 -160.5t-146 -89.5z" /><glyph unicode="&#x201e;" horiz-adv-x="817" d="M-33 -188q80 27 108.5 69.5t43.5 118.5h-107l33 184h182l-32 -184q-18 -100 -59.5 -160.5t-145.5 -89.5zM305 -188q80 27 108.5 69.5t43.5 118.5h-107l33 184h182l-33 -184q-18 -100 -59 -160.5t-145 -89.5z" /><glyph unicode="&#x2020;" horiz-adv-x="1157" d="M170 934l16 90h404l76 428h98l-76 -428h402l-17 -90h-401l-209 -1190h-98l208 1190h-403z" /><glyph unicode="&#x2021;" horiz-adv-x="1157" d="M29 172l16 90h401l119 672h-403l14 90h404l75 428h99l-76 -428h401l-14 -90h-401l-119 -672h403l-16 -90h-404l-75 -428h-99l76 428h-401z" /><glyph unicode="&#x2022;" horiz-adv-x="868" d="M170 598q0 49 18.5 92t50 75t74.5 50.5t93 18.5q49 0 92 -18.5t74.5 -50.5t50 -75t18.5 -92t-18.5 -92t-50 -75t-74.5 -50.5t-92 -18.5t-92.5 18.5t-75 50.5t-50 75t-18.5 92z" /><glyph unicode="&#x2026;" horiz-adv-x="1753" d="M74 0l32 182h177l-33 -182h-176zM659 0l33 182h176l-32 -182h-177zM1245 0l33 182h176l-33 -182h-176z" /><glyph unicode="&#x202f;" horiz-adv-x="386" /><glyph unicode="&#x2030;" horiz-adv-x="2273" d="M135 35l1309 1438l61 -56l-1312 -1442zM203 1032q0 76 19.5 156t61.5 143.5t105.5 104.5t153.5 41q66 0 117 -23.5t85.5 -63.5t53 -95.5t18.5 -116.5q0 -76 -20.5 -154t-62.5 -141.5t-106.5 -103.5t-152.5 -40q-63 0 -113.5 22.5t-86 62.5t-54 93.5t-18.5 114.5z M291 1040q0 -94 46 -153.5t146 -59.5q66 0 112 34t75.5 86t43 113t13.5 116q0 94 -46 153.5t-146 59.5q-66 0 -113 -34t-76 -86t-42 -112.5t-13 -116.5zM819 268q0 76 20.5 156t61.5 143.5t105.5 104.5t154.5 41q66 0 117 -23.5t86 -64.5t53.5 -96.5t18.5 -116.5 q0 -76 -20.5 -154t-63.5 -141.5t-107.5 -103.5t-152.5 -40q-63 0 -113.5 22.5t-86.5 62.5t-54.5 94.5t-18.5 115.5zM909 274q0 -94 46 -152.5t147 -58.5q66 0 112 34t74.5 85t41.5 112t13 116q0 94 -46 153.5t-146 59.5q-66 0 -112 -34t-74.5 -86t-42 -112.5t-13.5 -116.5z M1534 268q0 76 20.5 156t61.5 143.5t105.5 104.5t154.5 41q66 0 117 -23.5t86 -64.5t53 -96.5t18 -116.5q0 -76 -20.5 -154t-63.5 -141.5t-107.5 -103.5t-152.5 -40q-63 0 -113.5 22.5t-86 62.5t-54 94.5t-18.5 115.5zM1624 274q0 -94 46 -152.5t147 -58.5q66 0 111.5 34 t74.5 85t42 112t13 116q0 94 -46 153.5t-146 59.5q-66 0 -112 -34t-74.5 -86t-42 -112.5t-13.5 -116.5z" /><glyph unicode="&#x2039;" horiz-adv-x="645" d="M102 604l406 438l57 -49l-348 -397l209 -395l-72 -49z" /><glyph unicode="&#x203a;" horiz-adv-x="624" d="M49 201l348 397l-209 395l70 49l254 -452l-408 -438z" /><glyph unicode="&#x2044;" horiz-adv-x="1202" d="M41 31l1059 1442l74 -52l-1061 -1446z" /><glyph unicode="&#x205f;" horiz-adv-x="482" /><glyph unicode="&#x20ac;" d="M0 526l16 86h152q4 49 10 99.5t17 101.5h-146l17 86h149q35 127 96.5 238.5t155.5 187.5q160 129 362 129q102 0 201.5 -30.5t177.5 -100.5l-53 -82q-68 59 -155 87t-177 28q-168 0 -299 -113q-72 -59 -121 -149t-77 -195h610l-53 -86h-578q-23 -106 -29 -201h498 l-53 -86h-447q0 -209 113 -331q53 -57 133 -89t185 -32q137 0 258 61l22 -88q-66 -37 -138.5 -54.5t-148.5 -17.5q-123 0 -215 35t-159 99q-154 145 -158 417h-166z" /><glyph unicode="&#x2117;" horiz-adv-x="1798" d="M154 725q0 156 57 294t158.5 239.5t236.5 161t293 59.5q156 0 292 -59.5t237.5 -161t159 -239.5t57.5 -294q0 -158 -57.5 -294t-159 -238.5t-237.5 -161t-292 -58.5q-158 0 -293 58.5t-236.5 161t-158.5 238.5t-57 294zM252 725q0 -139 49 -259t136 -209t206 -140 t256 -51t256 51t206 140t136 209t49 259q0 137 -49 259t-136 211t-206 141.5t-256 52.5t-256 -52.5t-206 -141.5t-136 -211t-49 -259zM684 305v787h277q66 0 114.5 -20.5t81.5 -54.5t49.5 -79t16.5 -94t-16.5 -94t-50.5 -79t-83 -53.5t-115 -19.5h-178v-293h-96zM780 694 h178q90 0 130 48.5t40 103.5t-38.5 102t-128.5 47h-181v-301z" /><glyph unicode="&#x2122;" horiz-adv-x="1687" d="M166 1370l16 84h557l-16 -84h-236l-129 -741h-86l129 741h-235zM770 629l145 825h127l119 -668l355 668h133l-146 -825h-86l127 723l-377 -705h-59l-127 705l-127 -723h-84z" /><glyph unicode="&#x2126;" horiz-adv-x="1204" d="M100 252v508q0 84 53.5 138t137.5 54q61 0 112 -34v145q0 84 53.5 138t137.5 54t137 -54t53 -138v-127h129q84 0 137.5 -54.5t53.5 -136.5q0 -84 -53.5 -138t-137.5 -54h-147q35 -47 35 -111q0 -84 -53.5 -137t-137.5 -53h-510zM438 588h475q70 0 113 43.5t43 113.5 t-43 113t-113 43h-161v162q0 70 -44 114t-114 44t-113 -44t-43 -114v-475z" /><glyph unicode="&#x2190;" horiz-adv-x="1720" d="M78 623l670 669l61 -61l-565 -561h1384v-92h-1384l567 -564l-61 -61z" /><glyph unicode="&#x2191;" horiz-adv-x="1724" d="M193 807l669 672l670 -670l-62 -61l-561 565v-1313h-92v1313l-563 -568z" /><glyph unicode="&#x2192;" horiz-adv-x="1720" d="M84 578v92h1384l-565 561l62 61l669 -669l-671 -670l-62 61l567 564h-1384z" /><glyph unicode="&#x2193;" horiz-adv-x="1724" d="M193 645l61 62l563 -568v1313h92v-1313l561 566l62 -62l-670 -670z" /><glyph unicode="&#x2196;" horiz-adv-x="1439" d="M203 496v956h930v-88h-781l1004 -1002l-68 -67l-999 999v-798h-86z" /><glyph unicode="&#x2197;" horiz-adv-x="1439" d="M125 362l1003 1002h-780v88h930v-956h-86v798l-999 -999z" /><glyph unicode="&#x2198;" horiz-adv-x="1443" d="M94 1090l68 67l999 -999v798h86v-956h-930v88h781z" /><glyph unicode="&#x2199;" horiz-adv-x="1443" d="M197 0v956h86v-798l999 999l68 -67l-1004 -1002h780v-88h-929z" /><glyph unicode="&#x2202;" horiz-adv-x="1105" d="M66 401q0 154 54 304.5t177 248.5q59 47 130 72t148 25q53 0 101.5 -14.5t79.5 -41.5l-189 484h105l254 -654q18 -47 29.5 -97t11.5 -105q0 -154 -54.5 -304.5t-177.5 -248.5q-59 -47 -129.5 -72t-148.5 -25q-98 0 -172 39t-123 99q-47 57 -71.5 129.5t-24.5 160.5z M170 408q0 -137 70 -230q37 -47 92 -75.5t135 -28.5q63 0 116.5 22.5t94.5 57.5q47 39 82 93t57.5 115.5t33.5 127t11 126.5q0 139 -67 230q-37 47 -93.5 75.5t-136.5 28.5q-63 0 -116.5 -22.5t-94.5 -57.5q-47 -41 -81.5 -95t-57 -115.5t-34 -126t-11.5 -125.5z" /><glyph unicode="&#x2206;" horiz-adv-x="1245" d="M-113 0l809 1452h103l303 -1452h-1215zM57 100h920l-250 1205z" /><glyph unicode="&#x220f;" horiz-adv-x="1466" d="M92 0l258 1452h1024l-258 -1452h-106l237 1348h-811l-237 -1348h-107z" /><glyph unicode="&#x2211;" horiz-adv-x="1204" d="M100 252v508q0 84 53.5 138t137.5 54q61 0 112 -34v145q0 84 53.5 138t137.5 54t137 -54t53 -138v-127h129q84 0 137.5 -54.5t53.5 -136.5q0 -84 -53.5 -138t-137.5 -54h-147q35 -47 35 -111q0 -84 -53.5 -137t-137.5 -53h-510zM438 588h475q70 0 113 43.5t43 113.5 t-43 113t-113 43h-161v162q0 70 -44 114t-114 44t-113 -44t-43 -114v-475z" /><glyph unicode="&#x2212;" horiz-adv-x="1286" d="M137 571v95h950v-95h-950z" /><glyph unicode="&#x2215;" horiz-adv-x="1202" d="M41 31l1059 1442l74 -52l-1061 -1446z" /><glyph unicode="&#x2219;" horiz-adv-x="577" d="M145 522l33 185h180l-32 -185h-181z" /><glyph unicode="&#x221a;" horiz-adv-x="1388" d="M172 1001h111l297 -872l518 1575h313v-90h-237l-543 -1630h-105z" /><glyph unicode="&#x221e;" horiz-adv-x="1204" d="M100 252v508q0 84 53.5 138t137.5 54q61 0 112 -34v145q0 84 53.5 138t137.5 54t137 -54t53 -138v-127h129q84 0 137.5 -54.5t53.5 -136.5q0 -84 -53.5 -138t-137.5 -54h-147q35 -47 35 -111q0 -84 -53.5 -137t-137.5 -53h-510zM438 588h475q70 0 113 43.5t43 113.5 t-43 113t-113 43h-161v162q0 70 -44 114t-114 44t-113 -44t-43 -114v-475z" /><glyph unicode="&#x222b;" horiz-adv-x="696" d="M102 -319q195 0 195 198v1325q0 57 18.5 109.5t54.5 92.5t90 62.5t126 22.5h8v-92q-195 0 -195 -199v-1325q0 -59 -18.5 -110.5t-54 -91.5t-90 -62.5t-125.5 -22.5h-9v93z" /><glyph unicode="&#x2248;" horiz-adv-x="1308" d="M152 324q59 61 119.5 98t150.5 37q59 0 115.5 -19.5t109.5 -44t104.5 -44t100.5 -19.5q70 0 109.5 22.5t91.5 69.5l71 -72q-59 -61 -120.5 -97t-151.5 -36q-57 0 -110.5 20.5t-105.5 45t-104.5 45t-109.5 20.5q-68 0 -109 -25.5t-90 -72.5zM152 764q59 61 119.5 98 t150.5 37q59 0 115.5 -20.5t109.5 -44t104.5 -44t100.5 -20.5q70 0 109.5 23.5t91.5 70.5l71 -71q-59 -61 -120.5 -98.5t-151.5 -37.5q-57 0 -110.5 20.5t-105.5 46.5t-104.5 46.5t-109.5 20.5q-68 0 -109 -26t-90 -73z" /><glyph unicode="&#x2260;" horiz-adv-x="1415" d="M229 279v94h263l262 391h-525v94h588l148 219l67 -45l-117 -174h271v-94h-334l-262 -391h596v-94h-660l-149 -224l-68 45l119 179h-199z" /><glyph unicode="&#x2264;" horiz-adv-x="1204" d="M100 252v508q0 84 53.5 138t137.5 54q61 0 112 -34v145q0 84 53.5 138t137.5 54t137 -54t53 -138v-127h129q84 0 137.5 -54.5t53.5 -136.5q0 -84 -53.5 -138t-137.5 -54h-147q35 -47 35 -111q0 -84 -53.5 -137t-137.5 -53h-510zM438 588h475q70 0 113 43.5t43 113.5 t-43 113t-113 43h-161v162q0 70 -44 114t-114 44t-113 -44t-43 -114v-475z" /><glyph unicode="&#x2265;" horiz-adv-x="1204" d="M100 252v508q0 84 53.5 138t137.5 54q61 0 112 -34v145q0 84 53.5 138t137.5 54t137 -54t53 -138v-127h129q84 0 137.5 -54.5t53.5 -136.5q0 -84 -53.5 -138t-137.5 -54h-147q35 -47 35 -111q0 -84 -53.5 -137t-137.5 -53h-510zM438 588h475q70 0 113 43.5t43 113.5 t-43 113t-113 43h-161v162q0 70 -44 114t-114 44t-113 -44t-43 -114v-475z" /><glyph unicode="&#x2423;" horiz-adv-x="1892" d="M72 -147v450h82v-364h1407v364h79v-450h-1568z" /><glyph unicode="&#x25ca;" horiz-adv-x="825" d="M102 727l260 723h101l260 -729l-258 -721h-100zM211 733l207 -579l196 563l-204 579z" /><glyph unicode="&#x25fc;" horiz-adv-x="1024" d="M0 0v1024h1024v-1024h-1024z" /><glyph unicode="&#xfb01;" horiz-adv-x="1189" /><glyph unicode="&#xfb02;" horiz-adv-x="1290" /><glyph unicode="&#xfeff;" horiz-adv-x="0" /><glyph horiz-adv-x="493" d="M74 1782l65 86l283 -238l-43 -53z" /><glyph horiz-adv-x="436" d="M-57 1614l16 96h537l-17 -96h-536z" /><glyph horiz-adv-x="436" d="M14 1628l365 238l43 -90l-383 -203z" /><glyph horiz-adv-x="722" d="M-35 1645l287 217h100l205 -228l-76 -61l-188 209l-275 -209z" /><glyph horiz-adv-x="436" d="M-37 1798l74 64l188 -209l275 209l53 -72l-287 -217h-100z" /><glyph horiz-adv-x="436" d="M-82 1823q0 10 1 21t3 22h84q0 -6 -1 -11.5t-1 -11.5q0 -86 45 -136t131 -50q92 0 155.5 55t92.5 154h92q-33 -133 -128 -213t-224 -80q-111 0 -180.5 67.5t-69.5 182.5z" /><glyph horiz-adv-x="436" d="M145 1665l23 129h123l-23 -129h-123z" /><glyph horiz-adv-x="436" d="M-4 1677q0 51 20.5 97.5t55 81t82 55t102.5 20.5q92 0 139 -48t47 -124q0 -49 -20.5 -96t-56 -83t-82.5 -57.5t-103 -21.5q-82 0 -133 48t-51 128zM76 1688q0 -47 30 -81t87 -34q31 0 61.5 13t54 36t37.5 53.5t14 67.5q0 49 -29.5 83t-86.5 34q-33 0 -62.5 -13.5 t-53.5 -36t-38 -54.5t-14 -68z" /><glyph horiz-adv-x="436" d="M-145 1632l370 246l45 -92l-389 -213zM229 1632l371 246l45 -92l-389 -213z" /><glyph d="M100 438q0 78 9.5 157t23.5 157t33.5 163.5t50.5 168.5t77 156t112 122q115 88 266 88q92 0 170 -35t135 -106q53 -70 71.5 -153t18.5 -169q0 -78 -9 -156.5t-24 -156.5q-14 -78 -33.5 -164t-50 -169t-77 -155.5t-111.5 -122.5q-119 -90 -266 -90q-92 0 -169 35t-134 107 q-53 70 -73 153.5t-20 169.5zM201 412q0 -12 2 -25l745 756q-25 86 -80 137q-35 35 -86 54.5t-123 19.5q-66 0 -113.5 -21.5t-88.5 -56.5q-53 -45 -90 -109.5t-62.5 -137.5t-41 -146.5t-27.5 -139.5q-14 -78 -24.5 -153.5t-10.5 -153.5v-24zM217 289q29 -102 98 -158 q35 -29 82 -44t111 -15q72 0 126 26.5t97 67.5q49 47 82 110.5t56.5 132t38 140.5t24.5 133q14 78 24.5 153.5t10.5 153.5v31q0 14 -2 29z" /><glyph horiz-adv-x="436" d="M150 -354l24 137q10 57 44 94t67 53l12 -41q-41 -25 -53.5 -46t-16.5 -52h52l-27 -145h-102z" /><glyph horiz-adv-x="1470" d="M127 346q0 80 24.5 145.5t67.5 118t101.5 89t123.5 59.5q-78 41 -123 117.5t-45 168.5q0 76 33 151t86 126q72 68 169.5 101.5t207.5 33.5q90 0 170 -20l-16 -93q-82 16 -158 17q-74 0 -144.5 -18.5t-124 -57.5t-86 -99.5t-32.5 -144.5q0 -61 23.5 -107t64.5 -79 q51 -41 111.5 -50t134.5 -9h256l41 243h104l-43 -243h232l-17 -90h-231l-111 -611h234l-17 -94h-643q-98 0 -181 31.5t-136 97.5q-35 41 -55.5 96.5t-20.5 120.5zM231 356q0 -66 24 -114.5t64.5 -81.5t94 -49.5t114.5 -16.5h318l108 611h-309q-80 0 -154.5 -24t-132 -69 t-92.5 -109.5t-35 -146.5z" /><glyph horiz-adv-x="1159" d="M123 0l16 98h334l209 1190l-399 -260l22 123l412 272h92l-234 -1325h334l-16 -98h-770z" /><glyph horiz-adv-x="436" d="M104 1169q35 25 50.5 49.5t21.5 61.5l2 12h-51l33 187h108l-30 -174q-10 -55 -34 -104.5t-83 -84.5z" /><glyph horiz-adv-x="436" d="M150 -338q41 25 53 46.5t16 51.5h-51l27 146h102l-25 -137q-10 -57 -43.5 -94t-66.5 -54z" /><glyph horiz-adv-x="591" d="M133 538q0 63 5 124t16 120q20 119 63 237.5t106.5 229.5t144.5 209t179 176l55 -59q-182 -166 -295.5 -362.5t-156.5 -446.5q-12 -66 -17.5 -129.5t-5.5 -126.5q0 -174 42 -336t128 -322l-69 -39q-98 160 -146.5 348.5t-48.5 376.5z" /><glyph horiz-adv-x="591" d="M-111 -125q182 166 296 362.5t157 446.5q12 66 17.5 129t5.5 127q0 174 -42 335.5t-128 321.5l69 37q98 -160 146.5 -347.5t48.5 -375.5q0 -61 -5 -122.5t-16 -121.5q-20 -119 -63 -237.5t-106.5 -229t-144.5 -210t-179 -175.5z" /><glyph horiz-adv-x="653" d="M70 -175l315 1797h360l-14 -84h-270l-287 -1629h270l-14 -84h-360z" /><glyph horiz-adv-x="653" d="M-115 -175l15 84h270l287 1629h-271l15 84h360l-315 -1797h-361z" /><glyph horiz-adv-x="714" d="M113 677l16 97q84 10 156.5 57t89.5 133l63 367q10 61 39 114.5t74 93.5t102.5 62.5t126.5 22.5h54l-15 -86h-53q-102 0 -159.5 -60.5t-74.5 -146.5l-63 -367q-16 -96 -76.5 -158.5t-159.5 -80.5q68 -18 111 -72.5t43 -126.5q0 -10 -1 -20.5t-3 -20.5l-64 -367 q-2 -12 -3 -24.5t-1 -24.5q0 -72 41 -115t123 -43h53l-14 -86h-53q-115 0 -180.5 59.5t-65.5 168.5q0 31 6 65l64 367q2 10 2 31q0 72 -53.5 112.5t-124.5 48.5z" /><glyph horiz-adv-x="714" d="M-119 -175l15 86h53q106 0 161.5 59.5t71.5 147.5l64 367q16 92 79.5 158.5t155.5 83.5q-63 16 -107 73.5t-44 128.5v17q0 8 2 18l63 367q6 31 6 59q0 72 -39.5 110t-125.5 38h-54l15 86h53q111 0 178.5 -55.5t67.5 -168.5q0 -33 -7 -69l-63 -367q-2 -10 -2 -31 q0 -72 53 -111.5t125 -47.5l-16 -97q-84 -8 -157 -57t-89 -135l-64 -367q-27 -147 -113.5 -220t-228.5 -73h-53z" /><glyph horiz-adv-x="645" d="M102 731l406 438l57 -49l-348 -397l209 -395l-72 -49z" /><glyph horiz-adv-x="624" d="M49 328l348 397l-209 395l70 49l254 -452l-408 -438z" /><glyph horiz-adv-x="1069" d="M102 731l406 438l57 -49l-348 -397l209 -395l-72 -49zM526 731l406 438l57 -49l-348 -397l209 -395l-72 -49z" /><glyph horiz-adv-x="1032" d="M49 328l346 397l-207 395l72 49l252 -452l-408 -438zM473 328l348 397l-209 395l70 49l254 -452l-408 -438z" /><glyph horiz-adv-x="882" d="M125 677l16 95h580l-16 -95h-580z" /><glyph horiz-adv-x="1253" d="M113 677l16 95h950l-16 -95h-950z" /><glyph horiz-adv-x="2242" d="M117 677l16 95h1940l-17 -95h-1939z" /><glyph horiz-adv-x="882" d="M125 677l16 95h580l-16 -95h-580z" /></font>
</defs>
</svg>
